SplineFontDB: 3.0
FontName: eiadr10
FullName: eiad
FamilyName: Eiad
Weight: Regular
Copyright: %% This file is public domain.\n%% Originally written 1998, Ivan A Derzhanski.\n%% \n% eiadr10.mf: Computer Modern Irish 10 point\n\nGenerated from MetaFont bitmap by mftrace 1.2.14, http://www.xs4all.nl/~hanwen/mftrace/ 
Version: 001.001
ItalicAngle: 0
UnderlinePosition: -102.4
UnderlineWidth: 51.2
Ascent: 819
Descent: 205
LayerCount: 2
Layer: 0 0 "Back"  1
Layer: 1 0 "Fore"  0
NeedsXUIDChange: 1
UniqueID: 4168708
FSType: 0
OS2Version: 0
OS2_WeightWidthSlopeOnly: 0
OS2_UseTypoMetrics: 0
CreationTime: 1248265364
ModificationTime: 1260569349
OS2TypoAscent: 0
OS2TypoAOffset: 1
OS2TypoDescent: 0
OS2TypoDOffset: 1
OS2TypoLinegap: 92
OS2WinAscent: 0
OS2WinAOffset: 1
OS2WinDescent: 0
OS2WinDOffset: 1
HheadAscent: 0
HheadAOffset: 1
HheadDescent: 0
HheadDOffset: 1
Lookup: 258 0 0 "1"  {"1-1"  } []
DEI: 91125
LangName: 1033 
Encoding: Custom
UnicodeInterp: none
NameList: Adobe Glyph List
DisplaySize: -24
AntiAlias: 1
FitToEm: 1
ExtremaBound: 10
WinInfo: 0 27 11
BeginPrivate: 3
lenIV 1 4
BlueValues 2 []
ForceBold 5 false
EndPrivate
TeXData: 1 0 0 346030 173015 115343 463471 1073742 115343 783286 444596 497025 792723 393216 433062 380633 303038 157286 324010 404750 52429 2506097 1059062 262144
BeginChars: 260 125

StartChar: uni1E56
Encoding: 0 7766 1
Width: 1035
Flags: HW
HStem: -199 22G<277 338> -13 24<549 634> 31 146<435 495> 494 33<145 219> 580 25<474 591> 696 110<493 561>
VStem: 250 89<-190 453 471 486> 468 27<113 177> 482 109<708 794> 751 106<170 404>
LayerCount: 2
Fore
SplineSet
537 696 m 0xfec0
 510 696 482 717 482 752 c 0
 482 782 507 806 537 806 c 1
 561 800 l 1
 589 787 590 764 590 755 c 0
 590 753 590 752 590 752 c 2
 590 711 557 696 537 696 c 0xfec0
250 440 m 0
 250 443 250 446 250 449 c 0
 250 476 246 494 160 494 c 2
 145 494 l 1
 145 526 l 1
 155 526 l 2
 205 526 243 549 250 580 c 0
 255 595 271 595 274 595 c 0
 329 595 336 534 339 521 c 1
 339 471 l 1
 348 483 l 2
 410 598 514 604 525 604 c 2
 526 604 528 604 530 604 c 0
 533 604 539 604 545 604 c 0
 708 604 858 475 858 292 c 0
 858 118 730 -13 594 -13 c 0
 519 -13 525 31 452 31 c 0
 417 31 409 20 398 20 c 0
 391 20 385 35 385 42 c 0
 385 44 385 45 386 46 c 1
 387 49 391 51 399 54 c 1
 462 89 468 148 468 162 c 0xff40
 468 174 471 177 482 177 c 0xfec0
 493 177 495 171 495 167 c 0xff40
 495 97 513 10 591 10 c 0
 671 10 751 123 751 292 c 0
 751 469 645 580 535 580 c 0
 446 580 363 505 343 395 c 0
 342 389 342 379 342 365 c 0
 342 326 339 360 339 310 c 2
 339 75 l 2
 339 -68 342 -188 342 -190 c 1
 340 -195 341 -193 335 -199 c 1
 297 -199 l 2
 256 -199 253 -199 250 -194 c 0
 250 -193 250 -185 250 -166 c 0
 250 -127 250 -41 250 133 c 0
 250 330 250 408 250 440 c 0
EndSplineSet
Validated: 1
EndChar

StartChar: Aacute
Encoding: 3 193 2
Width: 1022
Flags: HW
HStem: -12 75<491 595> 608 20G<618 628>
LayerCount: 2
Fore
SplineSet
606 627 m 1
 610 628 615 629 623 629 c 0
 634 629 639 627 643 622 c 0
 647 617 898 11 898 7 c 0
 898 2 894 0 884 0 c 0
 867 0 863 2 851 24 c 0
 843 38 766 175 763 175 c 0
 749 175 644 7 544 -12 c 0
 542 -12 540 -12 537 -12 c 0
 531 -12 524 -12 517 -12 c 0
 511 -12 505 -12 500 -12 c 0
 480 -12 442 1 401 42 c 0
 344 101 312 187 307 187 c 0
 305 187 208 58 200 50 c 0
 195 46 187 44 178 44 c 0
 169 44 166 46 166 51 c 0
 166 58 589 609 597 621 c 1
 600 623 604 626 606 627 c 1
709 808 m 0
 737 808 747 783 747 769 c 0
 747 757 740 744 725 738 c 0
 725 738 553 655 544 651 c 1
 538 663 l 1
 530 674 l 1
 531 675 688 800 693 803 c 0
 703 808 703 808 709 808 c 0
732 227 m 1
 600 451 578 521 571 536 c 1
 569 536 457 386 456 385 c 2
 362 263 l 1
 372 246 l 5
 441 114 490 62 562 62 c 6
 563 62 l 2
 578 62 621 63 681 128 c 1
 743 200 l 1
 746 204 l 1
 732 227 l 1
EndSplineSet
Validated: 1
EndChar

StartChar: Eacute
Encoding: 4 201 3
Width: 949
Flags: HW
HStem: -10 26<421 563> 300 33<296 640 727 786> 589 23<416 524> 625 22G<389 393>
VStem: 189 106<181 300 300 300 333 421> 640 89<333 461> 702 28<124 153>
LayerCount: 2
Fore
SplineSet
640 349 m 2
 640 466 588 571 488 589 c 0
 486 589 484 589 482 589 c 0
 479 589 475 589 471 589 c 0
 417 589 378 560 353 528 c 0
 317 484 297 428 297 341 c 2
 296 333 l 1
 640 333 l 1
 640 349 l 2
554 808 m 0xf8
 583 808 593 785 593 770 c 0
 593 760 589 753 584 748 c 0
 580 744 394 625 391 625 c 1
 387 627 390 628 375 645 c 1
 537 803 l 1
 547 808 548 808 554 808 c 0xf8
470 -10 m 0
 292 -10 189 156 189 292 c 2
 189 300 l 2
 189 525 374 611 448 611 c 0
 452 611 462 612 471 612 c 0
 479 612 489 611 494 611 c 0
 531 611 593 586 613 573 c 0
 678 533 727 459 727 362 c 0
 727 344 728 346 728 341 c 0
 728 335 730 333 745 333 c 2
 786 333 l 1
 786 300 l 1
 296 300 l 1
 296 288 l 2
 296 166 326 84 398 40 c 0
 423 24 450 15 483 15 c 0
 605 15 685 94 702 153 c 0
 705 162 708 164 717 164 c 2
 717 164 717 164 718 164 c 0
 721 164 730 164 730 155 c 0
 730 144 679 -10 470 -10 c 0
EndSplineSet
Validated: 1
EndChar

StartChar: Iacute
Encoding: 5 205 4
Width: 556
Flags: HW
HStem: 0 22G<272 342> 494 33<146 217> 595 22G<211 249 270 301>
VStem: 252 90<6 454>
LayerCount: 2
Fore
SplineSet
384 808 m 0
 397 808 420 797 420 770 c 0
 420 750 416 751 315 676 c 2
 221 607 l 1
 211 617 l 2
 207 622 203 627 203 628 c 1
 204 630 361 799 364 802 c 1
 369 804 374 808 384 808 c 0
297 0 m 2
 293 0 290 0 287 0 c 0
 255 0 252 1 252 13 c 0
 252 16 252 20 252 25 c 0
 252 53 252 112 252 232 c 0
 252 285 253 326 253 359 c 0
 253 479 248 483 213 489 c 0
 202 491 179 494 161 494 c 2
 146 494 l 1
 146 526 l 1
 157 526 l 2
 205 526 241 551 248 582 c 0
 252 595 263 595 271 595 c 0
 272 595 273 595 274 595 c 0
 328 595 341 536 341 524 c 0
 341 518 342 441 342 261 c 2
 342 6 l 1
 335 0 l 1
 297 0 l 2
EndSplineSet
Validated: 1
EndChar

StartChar: Oacute
Encoding: 6 211 5
Width: 976
VWidth: 1000
Flags: HW
HStem: -21 26<433.97 553.479> 577 26<435.698 556.842> 613 21G<418.5 451.5>
VStem: 189 103<173.457 406.102> 695 104<180.828 406.828>
LayerCount: 2
Fore
SplineSet
189 328 m 2
 189 410 296 602 467 602 c 0
 472 602 483 603 492 603 c 0
 495 603 l 0
 694 603 797 413 797 328 c 0
 797 318 799 303 799 288 c 0
 799 132 678 -21 494 -21 c 0
 273 -21 189 182 189 260 c 0
 189 268 189 278 189 288 c 2
 189 328 l 2
579 789 m 0
 596 789 615 775 615 752 c 0
 615 731 608 729 510 669 c 2
 419 613 l 1
 418 613 403 632 403 633 c 1
 551 774 l 2
 561 784 568 789 579 789 c 0
695 302 m 0
 695 541 542 577 505 577 c 2
 493 577 l 2
 413 577 292 514 292 302 c 0
 292 72 413 5 494 5 c 0
 574 5 695 71 695 302 c 0
EndSplineSet
Validated: 1
EndChar

StartChar: Uacute
Encoding: 7 218 6
Width: 993
Flags: HW
HStem: -11 24<423 565> 505 33<140 210 594 664> 586 20G<265 291 721 751>
VStem: 246 92<103 473> 702 89<-5 145 148 462>
LayerCount: 2
Fore
SplineSet
589 808 m 0
 611 808 626 791 629 775 c 1
 629 756 617 746 577 706 c 2
 489 615 l 1
 430 554 l 1
 420 562 l 2
 414 567 409 571 409 571 c 1
 410 572 444 623 486 684 c 0
 572 807 571 808 589 808 c 0
791 -5 m 1
 784 -11 l 1
 709 -11 l 1
 702 -5 l 1
 702 70 l 1
 702 145 l 1
 697 133 l 2
 672 73 616 -11 494 -11 c 0
 358 -11 271 40 251 158 c 0
 247 183 246 181 246 328 c 0
 246 366 246 395 246 418 c 0
 246 488 242 495 209 501 c 0
 198 503 174 505 155 505 c 2
 140 505 l 1
 140 538 l 1
 150 538 l 1
 200 538 239 564 246 595 c 0
 249 603 253 605 258 605 c 0
 262 605 266 604 269 604 c 0
 313 604 332 570 337 537 c 0
 338 531 338 474 338 356 c 0
 338 310 337 268 337 230 c 0
 337 92 351 12 492 12 c 0
 494 12 497 12 500 12 c 0
 621 12 683 111 697 215 c 0
 698 222 698 285 698 346 c 0
 698 373 698 395 698 413 c 0
 698 475 697 484 686 493 c 0
 675 501 649 505 609 505 c 2
 594 505 l 1
 594 538 l 1
 604 538 l 1
 654 538 690 564 697 595 c 0
 700 604 707 605 713 605 c 0
 718 605 722 604 723 604 c 0
 780 604 790 547 790 536 c 0
 790 530 791 448 791 261 c 2
 791 -5 l 1
EndSplineSet
Validated: 1
EndChar

StartChar: arrowup
Encoding: 11 8593 7
Width: 44
Flags: HW
HStem: 367 41<73 80 520 527> 583 20G<296 304>
VStem: 280 41<-80 490>
LayerCount: 2
Fore
SplineSet
73 408 m 1
 183 428 263 503 300 604 c 1
 337 504 418 428 527 408 c 1
 527 387 l 2
 527 370 527 367 525 367 c 0
 524 367 415 382 330 480 c 2
 320 490 l 1
 320 207 l 2
 320 -66 320 -77 318 -80 c 0
 315 -87 308 -92 300 -92 c 0
 294 -92 283 -87 280 -80 c 0
 279 -79 279 -77 279 -65 c 0
 279 -41 280 25 280 207 c 2
 280 490 l 1
 270 480 l 2
 186 383 78 367 75 367 c 0
 73 367 73 370 73 387 c 2
 73 408 l 1
EndSplineSet
Validated: 1
EndChar

StartChar: arrowdown
Encoding: 12 8595 8
Width: 554
Flags: HW
LayerCount: 2
Fore
SplineSet
290 602 m 0
 293 603 295 604 298 604 c 0
 306 604 313 600 316 593 c 0
 318 589 318 578 318 305 c 2
 318 22 l 1
 328 32 l 2
 369 79 423 116 483 135 c 0
 496 139 520 145 523 145 c 0
 525 145 525 142 525 125 c 2
 525 104 l 1
 518 103 l 2
 515 102 506 100 500 98 c 0
 428 79 367 31 327 -32 c 0
 318 -46 306 -69 302 -82 c 0
 300 -87 298 -91 298 -91 c 1
 298 -91 296 -87 294 -82 c 0
 290 -69 278 -46 269 -32 c 0
 229 31 168 79 96 98 c 0
 90 100 81 102 78 103 c 2
 71 104 l 1
 71 125 l 2
 71 142 71 145 73 145 c 0
 76 145 100 139 113 135 c 0
 173 116 227 79 268 32 c 2
 278 22 l 1
 278 305 l 2
 278 558 278 588 280 592 c 0
 282 597 285 600 290 602 c 0
EndSplineSet
Validated: 1
EndChar

StartChar: uni030D
Encoding: 13 781 9
Width: 331
Flags: HW
LayerCount: 2
Fore
SplineSet
176 623 m 0
 180 624 185 624 190 624 c 0
 208 624 225 615 232 600 c 0
 235 594 237 586 237 579 c 0
 237 576 204 372 201 359 c 1
 201 356 l 1
 189 356 l 1
 177 356 l 1
 177 359 l 1
 174 372 140 576 140 579 c 0
 140 601 154 618 176 623 c 0
EndSplineSet
Validated: 1
EndChar

StartChar: exclamdown
Encoding: 14 161 10
Width: 78
Flags: HW
HStem: 296 110<177 263>
VStem: 165 110<-211 27 307 394>
LayerCount: 2
Fore
SplineSet
165 351 m 0
 165 381 190 406 221 406 c 0
 245 406 275 385 275 351 c 0
 275 318 247 296 221 296 c 0
 191 296 165 318 165 351 c 0
220 -221 m 0
 188 -221 165 -198 165 -172 c 0
 165 -164 206 201 207 206 c 0
 208 208 208 213 219 213 c 0
 230 213 232 208 233 206 c 0
 234 201 275 -164 275 -172 c 0
 275 -199 249 -221 220 -221 c 0
EndSplineSet
Validated: 1
EndChar

StartChar: questiondown
Encoding: 15 191 11
Width: 580
Flags: HW
HStem: -221 25<251 398> -131 95<427 474> 189 24<273 346> 296 110<272 359>
VStem: 146 42<-148 -57> 261 110<307 394> 357 44<119 185> 474 41<-147 -69>
LayerCount: 2
Fore
SplineSet
261 351 m 0xfd
 261 381 286 406 317 406 c 0
 341 406 370 385 370 351 c 0
 370 318 343 296 317 296 c 0
 287 296 261 318 261 351 c 0xfd
243 136 m 0
 243 123 237 123 231 123 c 0
 220 123 216 129 216 137 c 0
 216 152 228 173 235 181 c 0
 248 195 277 213 311 213 c 0
 380 213 401 161 401 130 c 0
 401 80 368 63 297 11 c 0
 222 -42 188 -59 188 -105 c 0
 188 -123 207 -199 318 -199 c 0
 434 -199 474 -133 474 -131 c 0
 474 -130 471 -131 468 -131 c 0
 440 -131 419 -111 419 -84 c 0
 419 -53 444 -36 468 -36 c 0
 494 -36 515 -54 515 -84 c 0
 515 -167 426 -221 316 -221 c 0
 235 -221 165 -178 146 -110 c 0
 145 -107 145 -104 145 -102 c 0
 145 -97 146 -93 146 -82 c 0
 146 -29 176 -5 186 8 c 1
 186 8 348 127 349 129 c 0
 355 136 357 142 357 152 c 0xfb
 357 183 330 189 314 189 c 0
 287 189 247 173 243 136 c 0
EndSplineSet
Validated: 1
EndChar

StartChar: grave
Encoding: 18 96 12
Width: 423
Flags: HW
LayerCount: 2
Fore
SplineSet
151 607 m 0
 152 607 154 608 156 608 c 0
 161 608 167 607 171 605 c 0
 176 603 176 602 248 552 c 2
 311 508 l 1
 305 496 l 2
 302 490 299 484 298 484 c 0
 297 484 144 538 140 540 c 0
 135 543 129 549 126 554 c 0
 124 558 124 560 124 569 c 0
 124 578 124 580 127 586 c 0
 132 597 141 605 151 607 c 0
EndSplineSet
Validated: 1
EndChar

StartChar: acute
Encoding: 19 180 13
Width: 385
Flags: HW
LayerCount: 2
Fore
SplineSet
257 607 m 1
 259 607 262 608 264 608 c 0
 277 608 289 600 295 586 c 0
 298 580 299 578 299 569 c 0
 299 560 298 558 296 554 c 0
 293 549 287 543 282 540 c 0
 278 538 125 484 124 484 c 0
 123 484 120 490 117 496 c 2
 111 508 l 1
 178 555 l 2
 215 581 246 603 248 604 c 0
 251 605 255 606 257 607 c 1
EndSplineSet
Validated: 1
EndChar

StartChar: uni030C
Encoding: 20 780 14
Width: 473
Flags: HW
HStem: 489 54<211 288>
VStem: 108 263
LayerCount: 2
Fore
SplineSet
112 564 m 0
 115 573 117 575 118 575 c 0
 119 574 l 1
 120 574 148 567 180 559 c 2
 239 544 l 2
 240 544 268 551 301 560 c 2
 362 575 l 1
 363 574 371 552 371 551 c 0
 371 550 242 489 240 489 c 0
 237 489 108 550 108 551 c 0
 108 552 110 557 112 564 c 0
EndSplineSet
Validated: 1
EndChar

StartChar: uni0306
Encoding: 21 774 15
Width: 533
Flags: HW
LayerCount: 2
Fore
SplineSet
127 597 m 2
 127 604 l 1
 139 604 l 1
 151 604 l 1
 151 598 l 1
 153 585 159 572 169 564 c 0
 177 558 193 550 205 547 c 0
 225 541 253 538 281 538 c 0
 309 538 338 541 358 547 c 0
 370 550 386 558 394 564 c 0
 404 572 410 585 412 598 c 1
 412 604 l 1
 424 604 l 1
 436 604 l 1
 436 597 l 2
 434 575 424 557 408 541 c 0
 380 513 332 498 282 498 c 0
 258 498 233 501 210 509 c 0
 161 525 131 557 127 597 c 2
EndSplineSet
Validated: 1
EndChar

StartChar: bar
Encoding: 22 772 16
Width: 548
Flags: HW
LayerCount: 2
Fore
SplineSet
107 545 m 1
 107 561 l 1
 292 561 l 1
 476 561 l 1
 476 545 l 1
 476 528 l 1
 292 528 l 1
 107 528 l 1
 107 545 l 1
EndSplineSet
Validated: 1
EndChar

StartChar: uni030A
Encoding: 23 778 17
Width: 608
Flags: HW
LayerCount: 2
Fore
SplineSet
202 626 m 0
 205 626 210 626 216 626 c 0
 229 626 247 626 255 625 c 0
 284 619 309 604 318 588 c 0
 321 582 322 580 322 572 c 0
 322 564 321 563 318 557 c 0
 309 541 284 526 254 520 c 0
 247 519 235 519 223 519 c 0
 211 519 200 519 193 520 c 0
 163 526 138 541 129 557 c 0
 126 563 126 564 126 572 c 0
 126 580 126 582 129 588 c 0
 139 606 167 622 202 626 c 0
265 601 m 0
 258 602 230 603 210 603 c 0
 202 603 195 602 191 602 c 0
 169 599 158 593 153 582 c 0
 152 579 152 576 152 573 c 0
 152 563 158 554 169 549 c 0
 180 543 188 543 224 543 c 0
 251 543 258 543 264 544 c 0
 274 546 282 550 287 554 c 1
 291 559 296 566 296 572 c 0
 296 578 291 586 287 591 c 1
 282 595 274 599 265 601 c 0
EndSplineSet
Validated: 1
EndChar

StartChar: uni0327
Encoding: 24 807 18
Width: 417
Flags: HW
LayerCount: 2
Fore
SplineSet
185 -47 m 1
 185 -23 l 1
 221 -23 l 1
 257 -23 l 1
 257 -39 l 1
 257 -55 l 1
 269 -57 l 2
 306 -66 331 -84 339 -108 c 0
 341 -113 342 -122 342 -130 c 0
 342 -134 342 -138 341 -141 c 0
 339 -151 333 -162 325 -169 c 0
 313 -181 297 -190 272 -196 c 0
 243 -204 210 -207 161 -208 c 2
 113 -208 l 1
 100 -209 l 1
 100 -198 l 1
 100 -185 l 1
 104 -185 l 1
 106 -184 119 -184 133 -184 c 0
 212 -184 254 -173 266 -146 c 0
 269 -140 270 -139 270 -128 c 0
 270 -118 269 -117 266 -110 c 0
 257 -92 234 -78 203 -74 c 0
 198 -73 192 -73 189 -73 c 2
 185 -73 l 1
 185 -47 l 1
EndSplineSet
Validated: 1
EndChar

StartChar: uni204A
Encoding: 25 8266 19
Width: 687
Flags: HW
HStem: 351 72<146 449>
VStem: 421 31<-203 -98>
LayerCount: 2
Fore
SplineSet
152 440 m 1
 152 441 153 441 154 441 c 1
 161 438 207 431 234 428 c 0
 274 423 291 423 344 423 c 0
 397 423 413 423 454 428 c 0
 480 431 526 438 533 441 c 1
 535 441 535 440 535 430 c 0
 535 420 528 366 494 109 c 0
 470 -61 451 -203 451 -203 c 1
 449 -208 445 -210 437 -210 c 0
 425 -210 421 -205 421 -199 c 0
 421 -191 425 -148 458 94 c 2
 498 388 l 1
 484 383 l 2
 415 363 342 351 270 351 c 0
 236 351 203 353 170 358 c 0
 146 361 126 366 126 367 c 0
 126 368 132 384 139 403 c 0
 145 422 151 439 152 440 c 1
EndSplineSet
Validated: 1
EndChar

StartChar: uni0307
Encoding: 26 775 20
Width: 343
Flags: HW
LayerCount: 2
Fore
SplineSet
174 683 m 0
 179 684 183 685 188 685 c 0
 202 685 214 680 225 669 c 0
 236 659 242 645 242 631 c 0
 242 616 236 602 225 592 c 0
 214 581 201 576 187 576 c 0
 173 576 159 581 148 592 c 0
 137 602 132 616 132 631 c 0
 132 640 133 645 138 654 c 0
 144 667 159 680 174 683 c 0
EndSplineSet
Validated: 1
EndChar

StartChar: aacute
Encoding: 27 225 21
Width: 776
Flags: HW
HStem: -12 61<358 448>
LayerCount: 2
Fore
SplineSet
546 714 m 0
 561 714 582 699 582 677 c 0
 582 671 582 662 572 652 c 0
 567 647 399 533 381 521 c 1
 373 531 l 2
 369 536 365 541 365 542 c 2
 520 702 l 2
 526 708 530 714 546 714 c 0
549 125 m 1
 507 83 463 -12 386 -12 c 0
 384 -12 383 -12 381 -12 c 0
 357 -12 309 -8 258 112 c 0
 254 119 252 126 251 126 c 0
 250 126 191 35 189 33 c 0
 186 29 180 26 175 25 c 0
 174 25 173 24 172 24 c 0
 166 24 162 28 162 32 c 0
 162 36 436 466 441 470 c 1
 449 474 l 2
 451 474 455 475 460 475 c 0
 467 474 470 473 474 468 c 0
 478 464 640 9 640 8 c 0
 640 0 631 -2 627 -2 c 0
 614 -2 614 2 597 32 c 1
 592 44 577 70 567 89 c 2
 549 125 l 1
523 171 m 1
 469 273 440 337 425 381 c 1
 420 392 l 1
 290 187 l 1
 296 171 l 1
 335 84 366 49 412 49 c 0
 474 49 504 113 530 139 c 1
 537 147 l 1
 523 171 l 1
EndSplineSet
Validated: 1
EndChar

StartChar: eacute
Encoding: 28 233 22
Width: 787
Flags: HW
HStem: -11 27<354 468> 237 23<276 517 586 642> 434 25<350 447>
VStem: 189 86<121 236 259 271 306 329> 517 69<259 361>
LayerCount: 2
Fore
SplineSet
375 458 m 0
 380 459 387 459 394 459 c 0
 409 459 428 456 443 453 c 0
 478 446 507 433 531 409 c 0
 564 375 586 329 586 269 c 1
 586 259 l 1
 615 259 l 1
 642 259 l 1
 642 248 l 1
 642 237 l 1
 459 237 l 1
 275 237 l 1
 275 220 l 2
 275 131 294 74 335 41 c 0
 357 24 379 15 405 15 c 0
 416 15 428 16 440 19 c 0
 496 31 542 71 558 120 c 0
 561 131 565 134 573 134 c 0
 578 134 579 134 582 131 c 0
 585 129 586 127 586 124 c 0
 586 121 585 117 582 110 c 0
 567 67 535 32 491 10 c 0
 462 -3 426 -11 394 -11 c 0
 390 -11 389 -11 385 -11 c 0
 376 -11 l 0
 332 -6 294 13 261 45 c 0
 248 58 240 68 230 84 c 0
 210 116 195 149 189 191 c 0
 189 193 188 197 188 201 c 0
 188 208 189 216 189 226 c 0
 189 236 188 246 188 253 c 0
 188 257 189 260 189 262 c 0
 201 342 249 408 316 440 c 0
 334 449 353 455 375 458 c 0
421 434 m 0
 419 434 414 435 410 435 c 0
 404 435 405 436 398 436 c 0
 395 436 384 434 382 434 c 0
 343 428 307 393 291 346 c 0
 286 334 283 319 281 306 c 0
 279 295 276 270 276 264 c 2
 276 259 l 1
 397 259 l 1
 517 259 l 1
 517 273 l 1
 517 336 495 385 464 411 c 0
 452 421 437 430 421 434 c 0
473 713 m 0
 475 714 479 714 482 714 c 0
 488 714 494 713 499 711 c 0
 506 707 513 699 517 691 c 0
 518 689 518 688 518 687 c 0
 518 684 517 682 517 677 c 0
 517 672 518 669 518 667 c 0
 518 665 518 664 517 663 c 2
 510 652 l 1
 413 585 l 2
 339 535 321 522 318 522 c 1
 318 523 314 527 310 532 c 2
 302 541 l 1
 305 544 l 1
 323 564 463 707 466 709 c 0
 468 710 471 712 473 713 c 0
EndSplineSet
Validated: 1
EndChar

StartChar: iacute
Encoding: 29 237 23
Width: 549
Flags: HW
HStem: 0 22G<288 328> 351 33<185 236> 432 20G<271 292>
VStem: 264 69<6 160 160 327>
LayerCount: 2
Fore
SplineSet
371 711 m 0
 377 714 379 714 387 714 c 1
 394 713 397 713 401 711 c 0
 408 707 415 699 418 691 c 0
 421 685 422 683 422 677 c 0
 422 667 419 659 412 652 c 1
 408 649 225 522 223 521 c 1
 222 521 217 526 212 531 c 2
 204 542 l 1
 272 611 l 2
 368 710 364 708 371 711 c 0
271 449 m 1
 276 453 l 1
 286 453 l 2
 298 452 305 449 312 442 c 0
 321 433 326 420 330 400 c 0
 331 390 332 379 332 198 c 2
 332 6 l 1
 328 3 l 1
 325 0 l 1
 298 0 l 2
 278 0 272 0 270 2 c 1
 264 5 264 -6 264 160 c 0
 264 242 264 312 263 316 c 0
 259 343 247 349 204 351 c 2
 185 351 l 1
 185 368 l 1
 185 384 l 1
 192 384 l 2
 227 387 255 408 262 437 c 0
 263 441 264 444 265 444 c 1
 271 449 l 1
EndSplineSet
Validated: 1
EndChar

StartChar: oacute
Encoding: 30 243 24
Width: 798
Flags: HW
HStem: -10 26<358 467> 435 24<360 466>
VStem: 186 86<121 320> 553 86<122 322>
LayerCount: 2
Fore
SplineSet
431 435 m 0
 429 435 427 435 425 435 c 0
 422 435 418 435 414 435 c 0
 388 435 363 428 341 414 c 0
 301 389 280 348 274 288 c 0
 273 279 272 252 272 228 c 0
 272 211 273 194 273 185 c 0
 273 120 291 81 323 51 c 0
 348 26 380 15 413 15 c 0
 445 15 476 26 502 51 c 0
 534 81 553 120 553 185 c 0
 553 194 553 211 553 228 c 0
 553 244 554 261 554 273 c 0
 554 279 553 285 553 288 c 0
 550 317 541 342 531 361 c 0
 512 401 475 428 431 435 c 0
387 457 m 0
 395 458 405 459 413 459 c 0
 469 459 526 435 568 393 c 0
 574 387 583 378 586 373 c 0
 621 329 639 274 639 220 c 0
 639 204 637 188 634 172 c 0
 618 86 552 18 466 -4 c 0
 447 -9 436 -10 413 -10 c 0
 389 -10 378 -9 359 -4 c 0
 257 22 186 113 186 219 c 0
 186 265 200 315 226 353 c 0
 264 411 320 449 387 457 c 0
490 712 m 0
 492 713 497 714 501 714 c 0
 507 714 509 714 515 710 c 0
 523 706 530 699 534 691 c 0
 536 686 537 684 537 677 c 0
 537 666 535 660 528 653 c 0
 523 648 337 522 335 522 c 1
 335 522 331 527 327 531 c 2
 319 541 l 1
 325 548 l 1
 482 709 l 2
 484 710 488 712 490 712 c 0
EndSplineSet
Validated: 1
EndChar

StartChar: uacute
Encoding: 31 250 25
Width: 813
Flags: HW
HStem: -10 23<362 452> 351 33<172 223 483 535> 432 20G<259 279 570 590>
VStem: 252 72<44 211 211 326> 565 70<-5 114 114 318>
LayerCount: 2
Fore
SplineSet
259 449 m 1
 264 453 l 1
 274 453 l 2
 283 452 286 452 291 450 c 0
 307 442 322 420 322 388 c 0
 322 381 323 334 323 239 c 0
 323 96 323 84 327 68 c 0
 334 38 355 20 393 14 c 0
 401 13 413 12 424 12 c 0
 436 12 446 13 452 14 c 0
 470 19 485 28 500 41 c 0
 535 76 562 135 562 215 c 0
 562 225 565 247 565 270 c 0
 565 292 563 311 562 316 c 0
 558 343 546 351 501 351 c 1
 483 351 l 1
 483 368 l 1
 483 384 l 1
 491 384 l 1
 525 384 554 408 561 437 c 0
 562 441 564 445 565 445 c 1
 565 445 567 447 570 449 c 2
 575 453 l 1
 585 453 l 2
 594 452 598 452 602 450 c 0
 619 442 634 419 634 387 c 0
 634 379 635 322 635 185 c 2
 635 -5 l 1
 631 -10 l 1
 627 -10 l 1
 600 -10 l 1
 573 -10 l 1
 570 -10 l 1
 565 -5 l 1
 565 55 l 2
 565 88 565 114 565 114 c 1
 565 110 553 82 550 75 c 0
 527 29 494 -1 452 -10 c 0
 450 -10 448 -11 445 -11 c 0
 440 -11 433 -10 419 -10 c 0
 392 -10 376 -9 360 -6 c 0
 327 1 304 12 286 30 c 0
 271 44 264 57 258 80 c 0
 252 99 252 105 252 211 c 0
 252 247 252 280 252 299 c 0
 252 309 252 315 252 316 c 0
 248 343 235 351 190 351 c 1
 172 351 l 1
 172 368 l 1
 172 384 l 1
 180 384 l 1
 214 384 245 408 252 437 c 0
 253 441 251 444 252 444 c 1
 259 449 l 1
504 712 m 0
 509 714 511 714 518 714 c 0
 525 713 527 713 532 710 c 0
 539 706 547 699 550 691 c 0
 553 685 554 683 554 677 c 0
 554 667 550 659 543 652 c 0
 540 649 356 523 353 521 c 0
 352 521 338 538 337 541 c 0
 337 543 363 571 414 623 c 2
 495 707 l 2
 497 708 501 710 504 712 c 0
EndSplineSet
Validated: 1
EndChar

StartChar: uni1E57
Encoding: 32 7767 26
Width: 868
Flags: HW
HStem: -199 22G<275 321> -10 24<480 560> 351 33<174 225> 426 26<417 522> 577 109<429 516>
VStem: 256 70<-193 262> 406 27<77 117 117 125> 622 86<110 319>
LayerCount: 2
Fore
SplineSet
459 683 m 0
 463 684 469 685 473 685 c 0
 502 685 527 661 527 631 c 0
 527 599 503 577 473 577 c 0
 470 577 467 577 464 577 c 0
 462 577 460 577 459 577 c 0
 442 581 427 594 420 612 c 0
 418 618 418 621 418 631 c 0
 418 640 418 642 420 648 c 0
 427 666 442 679 459 683 c 0
261 449 m 1
 266 453 l 1
 276 453 l 1
 288 453 295 449 302 442 c 0
 315 429 322 409 322 372 c 1
 322 351 l 1
 328 361 l 2
 350 396 373 421 406 436 c 0
 419 442 432 447 447 450 c 0
 455 452 469 453 482 453 c 0
 490 453 497 453 503 453 c 0
 506 453 510 453 512 453 c 0
 551 446 587 429 617 406 c 0
 627 399 648 378 656 368 c 0
 666 356 677 339 685 324 c 0
 700 291 708 263 708 228 c 0
 708 219 l 0
 708 162 691 106 660 62 c 0
 651 49 626 24 614 16 c 0
 596 4 574 -6 555 -10 c 0
 553 -10 550 -11 547 -11 c 0
 541 -11 535 -10 529 -10 c 0
 522 -10 516 -11 510 -11 c 0
 507 -11 504 -10 502 -10 c 0
 490 -7 479 -3 469 3 c 0
 449 12 428 17 406 17 c 0
 396 17 384 16 374 14 c 0
 370 13 366 13 364 13 c 0
 358 13 357 16 354 24 c 0
 352 29 351 32 351 35 c 0
 351 39 353 41 357 43 c 0
 364 47 373 54 379 60 c 0
 395 75 406 94 406 117 c 0
 406 124 407 126 409 128 c 0
 411 131 413 131 418 131 c 0
 425 131 430 129 432 125 c 1
 432 124 433 118 433 112 c 0
 433 61 461 25 503 15 c 0
 510 14 519 13 526 13 c 0
 533 13 541 14 545 15 c 0
 578 27 609 89 618 162 c 0
 621 180 622 199 622 217 c 0
 622 241 620 264 615 282 c 0
 600 351 557 405 505 421 c 0
 494 424 483 426 472 426 c 0
 445 426 419 416 397 401 c 0
 355 370 323 320 323 259 c 0
 323 251 323 248 323 246 c 0
 323 245 323 245 323 244 c 0
 325 240 325 220 325 24 c 2
 325 -193 l 1
 321 -196 l 1
 318 -199 l 1
 290 -199 l 2
 259 -199 258 -199 256 -193 c 1
 255 -192 255 -188 255 -175 c 0
 255 -149 256 -87 256 60 c 0
 256 197 253 312 252 316 c 0
 248 343 237 351 192 351 c 1
 174 351 l 1
 174 368 l 1
 174 384 l 1
 182 384 l 1
 216 384 244 408 251 437 c 0
 252 441 255 444 256 444 c 1
 261 449 l 1
EndSplineSet
Validated: 1
EndChar

StartChar: exclam
Encoding: 33 33 27
Width: 457
Flags: HW
VStem: 156 110<12 93 379 616>
LayerCount: 2
Fore
SplineSet
196 625 m 0
 201 626 206 627 211 627 c 0
 230 627 247 618 257 603 c 0
 262 595 266 586 266 578 c 0
 266 570 225 205 224 200 c 0
 223 195 218 193 210 193 c 0
 203 193 199 195 198 200 c 0
 197 205 156 570 156 578 c 0
 156 600 172 619 196 625 c 0
198 108 m 0
 203 109 207 109 212 109 c 0
 226 109 238 104 249 93 c 0
 260 83 266 69 266 55 c 0
 266 40 260 26 249 16 c 0
 238 5 225 0 211 0 c 0
 197 0 183 5 172 16 c 0
 161 26 156 40 156 55 c 0
 156 64 157 70 162 79 c 0
 168 92 183 105 198 108 c 0
EndSplineSet
Validated: 1
EndChar

StartChar: quotedbl
Encoding: 34 34 28
Width: 625
Flags: HW
LayerCount: 2
Fore
SplineSet
188 602 m 0
 193 603 197 604 202 604 c 0
 218 604 233 598 244 585 c 0
 251 578 259 563 263 551 c 0
 268 535 271 517 271 497 c 0
 271 476 268 454 263 432 c 0
 258 413 253 400 244 382 c 0
 230 353 216 335 196 312 c 0
 184 300 179 296 174 296 c 0
 171 296 169 297 166 300 c 1
 163 304 162 305 162 308 c 0
 162 312 163 314 173 324 c 0
 195 346 210 365 223 391 c 0
 234 414 241 437 245 463 c 0
 246 474 247 493 247 504 c 0
 247 506 247 509 247 510 c 2
 246 515 l 1
 240 510 l 2
 229 500 215 495 201 495 c 0
 192 495 182 497 174 502 c 0
 158 510 147 530 147 549 c 0
 147 575 163 597 188 602 c 0
386 602 m 0
 391 603 396 604 401 604 c 0
 417 604 432 598 443 585 c 0
 450 578 457 563 461 551 c 0
 466 535 469 517 469 497 c 0
 469 476 466 454 461 432 c 0
 456 413 452 400 443 382 c 0
 429 353 415 335 395 312 c 0
 383 300 378 296 373 296 c 0
 370 296 368 297 365 300 c 1
 362 304 361 305 361 308 c 0
 361 312 362 314 372 324 c 0
 394 346 408 365 421 391 c 0
 432 414 440 437 444 463 c 0
 445 474 446 493 446 504 c 0
 446 506 446 509 446 510 c 2
 445 515 l 1
 439 510 l 2
 428 500 413 495 399 495 c 0
 384 495 371 500 361 511 c 0
 351 521 345 535 345 549 c 0
 345 563 351 578 361 588 c 0
 367 595 377 600 386 602 c 0
EndSplineSet
Validated: 1
EndChar

StartChar: numbersign
Encoding: 35 35 29
Width: -18
Flags: HW
HStem: 136 41<56 225 284 460 520 764> 335 41<54 296 356 532 591 762> 584 20G<400 413 634 649>
LayerCount: 2
Fore
SplineSet
38 355 m 0
 38 359 40 367 52 376 c 1
 182 377 l 1
 312 377 l 1
 351 485 l 2
 392 599 392 604 408 604 c 0
 418 604 428 595 428 584 c 0
 428 580 393 480 392 478 c 2
 356 377 l 1
 356 377 360 376 368 376 c 0
 384 376 415 377 452 377 c 2
 547 377 l 1
 586 485 l 2
 626 595 626 604 644 604 c 0
 654 604 664 595 664 584 c 0
 664 577 633 493 627 478 c 2
 591 377 l 1
 591 376 628 376 676 376 c 2
 762 376 l 1
 777 368 778 359 778 355 c 0
 778 337 766 335 723 335 c 0
 709 335 691 335 669 335 c 2
 575 335 l 1
 573 326 569 318 545 249 c 2
 520 177 l 1
 641 177 l 2
 674 177 700 178 719 178 c 0
 767 178 778 175 778 157 c 0
 778 146 766 137 764 136 c 1
 634 136 l 1
 504 136 l 1
 465 28 l 2
 426 -83 426 -92 408 -92 c 0
 397 -92 388 -83 388 -71 c 1
 389 -68 400 -29 424 34 c 2
 460 136 l 1
 460 136 456 137 448 137 c 0
 432 137 401 136 364 136 c 2
 269 136 l 1
 230 28 l 2
 191 -83 190 -92 172 -92 c 0
 161 -92 152 -83 152 -71 c 1
 153 -68 165 -29 189 34 c 2
 225 136 l 1
 225 136 220 137 213 137 c 0
 199 137 172 136 140 136 c 2
 54 136 l 1
 40 143 39 151 39 155 c 0
 39 156 39 157 39 157 c 0
 39 173 50 175 56 177 c 1
 241 177 l 1
 243 186 247 194 271 263 c 2
 296 335 l 1
 175 335 l 1
 54 335 l 1
 46 338 38 344 38 355 c 0
477 177 m 1
 477 179 529 328 532 335 c 1
 339 335 l 1
 337 326 334 318 310 249 c 2
 284 177 l 1
 380 177 l 1
 477 177 l 1
EndSplineSet
Validated: 1
EndChar

StartChar: sterling
Encoding: 36 163 30
Width: 822
Flags: HW
HStem: 286 33<188 270 342 452> 406 95<530 583>
VStem: 270 72<112 286 318 531> 583 34<500 525> 620 27<78 127>
LayerCount: 2
Fore
SplineSet
425 616 m 0
 432 617 439 618 446 618 c 0
 520 618 586 573 609 505 c 0
 615 489 618 470 618 455 c 0
 618 451 618 446 617 443 c 0
 613 420 594 406 571 406 c 0
 543 406 523 427 523 452 c 0
 523 460 525 468 529 476 c 0
 536 492 553 501 571 501 c 0
 572 501 573 501 574 501 c 1
 579 500 583 500 583 500 c 1
 583 502 576 516 573 521 c 0
 553 557 518 582 477 591 c 0
 469 593 458 593 447 593 c 0
 438 593 430 593 425 592 c 0
 387 583 360 555 349 517 c 0
 343 493 342 481 342 393 c 2
 342 318 l 1
 395 318 l 2
 435 318 450 318 452 317 c 0
 456 315 457 311 457 302 c 0
 457 293 456 289 452 287 c 0
 450 286 435 286 395 286 c 2
 342 286 l 1
 342 209 l 2
 341 133 340 131 338 122 c 0
 332 97 329 94 329 91 c 0
 329 89 341 85 388 65 c 0
 436 46 464 37 498 35 c 0
 502 35 505 34 509 34 c 0
 549 34 585 50 605 75 c 0
 614 88 619 100 620 116 c 0
 620 123 621 125 623 127 c 0
 626 130 627 130 633 130 c 0
 640 130 641 130 644 127 c 0
 647 124 647 123 647 118 c 0
 647 90 633 60 613 37 c 0
 594 17 562 -2 532 -7 c 0
 520 -9 507 -11 494 -11 c 0
 475 -11 455 -8 433 -2 c 0
 407 4 385 12 330 36 c 2
 302 48 l 1
 290 38 l 2
 258 7 210 -11 163 -11 c 0
 156 -11 150 -11 143 -10 c 0
 104 -6 77 9 77 39 c 0
 77 61 89 83 108 96 c 0
 122 106 142 114 164 118 c 0
 173 120 181 120 199 120 c 0
 223 120 232 119 255 114 c 0
 261 113 267 112 267 112 c 1
 269 114 270 145 270 211 c 2
 270 286 l 1
 229 286 l 1
 188 286 l 1
 185 289 l 2
 182 292 182 292 182 302 c 0
 182 312 182 312 185 315 c 2
 188 318 l 1
 229 318 l 1
 270 318 l 1
 270 396 l 2
 271 471 271 474 273 483 c 0
 281 520 301 552 329 575 c 0
 356 598 391 612 425 616 c 0
214 73 m 0
 204 75 193 75 183 75 c 0
 163 75 147 72 135 66 c 0
 123 60 116 50 116 40 c 0
 116 33 119 27 126 22 c 0
 135 16 148 12 162 12 c 0
 180 12 201 18 217 28 c 0
 230 36 243 49 250 61 c 0
 251 63 252 63 252 64 c 0
 252 65 251 65 250 66 c 0
 245 68 224 72 214 73 c 0
EndSplineSet
Validated: 1
EndChar

StartChar: percent
Encoding: 37 37 31
Width: 85
Flags: HW
HStem: -164 24<717 782> 279 24<717 782> 302 24<262 327> 622 24<482 630> 744 24<263 327>
VStem: 142 65<412 659> 398 26<432 638> 597 65<-54 192> 853 26<-34 172>
LayerCount: 2
Fore
SplineSet
275 767 m 0
 278 767 284 768 289 768 c 0
 298 768 308 767 314 765 c 0
 322 763 336 757 344 751 c 0
 348 749 360 737 371 726 c 0
 393 704 408 692 428 680 c 0
 457 663 488 652 524 647 c 0
 531 646 544 645 557 645 c 0
 570 645 583 646 590 647 c 0
 659 657 715 695 753 753 c 0
 760 762 761 763 766 766 c 0
 770 768 772 768 776 768 c 0
 787 768 795 754 795 744 c 1
 794 739 783 723 528 292 c 0
 295 -104 263 -158 259 -160 c 1
 256 -163 252 -164 249 -164 c 0
 246 -164 242 -163 239 -161 c 0
 234 -159 232 -158 230 -153 c 0
 228 -149 227 -146 227 -143 c 0
 227 -140 228 -137 229 -134 c 1
 231 -132 338 49 467 267 c 0
 596 486 701 666 701 666 c 1
 701 666 698 664 694 662 c 0
 686 656 663 644 651 640 c 0
 629 631 601 622 575 622 c 0
 557 622 l 0
 507 622 456 636 412 663 c 0
 408 666 403 668 403 667 c 1
 408 656 l 2
 415 634 424 610 424 583 c 0
 424 573 425 554 425 536 c 0
 425 518 424 497 424 487 c 0
 424 447 409 415 394 383 c 0
 367 330 333 302 293 302 c 0
 277 302 260 307 244 315 c 0
 193 341 153 408 142 492 c 0
 142 495 142 498 142 503 c 0
 142 512 142 524 142 536 c 0
 142 553 142 570 142 580 c 0
 142 607 154 631 162 653 c 0
 187 716 228 758 275 767 c 0
305 744 m 0
 304 744 302 744 301 744 c 0
 299 744 297 744 294 744 c 0
 286 744 278 742 272 739 c 0
 242 725 218 678 211 622 c 0
 207 596 207 584 207 536 c 0
 207 487 207 474 211 449 c 0
 220 381 250 332 286 327 c 0
 289 327 291 326 294 326 c 0
 322 326 350 349 370 391 c 0
 384 420 398 449 398 489 c 0
 398 499 398 518 398 535 c 0
 398 553 398 571 398 581 c 0
 398 621 384 650 370 679 c 0
 353 715 329 739 305 744 c 0
730 302 m 0
 732 302 734 302 736 302 c 0
 739 302 744 302 747 302 c 0
 787 302 822 274 849 221 c 0
 864 189 879 157 879 117 c 0
 879 107 880 88 880 70 c 0
 880 52 879 33 879 22 c 0
 879 -18 864 -51 849 -83 c 0
 822 -136 788 -164 748 -164 c 0
 732 -164 714 -159 698 -151 c 0
 647 -125 608 -58 597 26 c 0
 597 29 597 32 597 37 c 0
 597 46 597 58 597 70 c 0
 597 81 597 93 597 102 c 0
 597 107 597 111 597 114 c 0
 606 176 630 229 665 264 c 0
 683 282 707 297 730 302 c 0
760 279 m 0
 759 279 757 279 756 279 c 0
 754 279 752 279 749 279 c 0
 741 279 733 276 727 273 c 0
 697 259 673 213 666 157 c 0
 662 131 662 118 662 70 c 0
 662 21 662 8 666 -17 c 0
 675 -85 704 -134 740 -139 c 0
 743 -139 746 -140 749 -140 c 0
 777 -140 804 -117 824 -75 c 0
 838 -46 853 -16 853 24 c 0
 853 34 853 52 853 70 c 0
 853 87 853 105 853 115 c 0
 853 155 838 184 824 213 c 0
 807 249 784 274 760 279 c 0
EndSplineSet
Validated: 1
EndChar

StartChar: ampersand
Encoding: 38 38 32
Width: 77
Flags: HW
HStem: -22 23<386 579> 248 86<549 624> 316 24<283 376> 338 68<230 256> 414 23<318 374> 475 94<387 427> 518 86<678 724> 603 24<276 390>
VStem: 134 85<124 316> 149 72<406 548> 191 66<353 393> 380 95<482 563> 391 27<353 394> 504 27<296 374> 674 84<545 561 561 578> 760 27<158 301>
LayerCount: 2
Fore
SplineSet
357 411 m 0
 351 413 340 414 331 414 c 0
 326 414 321 414 318 414 c 0
 298 409 281 398 265 381 c 0
 259 375 256 372 256 370 c 0
 256 368 258 365 263 362 c 0
 282 348 309 338 334 338 c 0
 335 338 337 338 338 338 c 0
 363 338 379 351 388 365 c 0
 390 369 391 371 391 377 c 0xa82f
 391 383 390 385 388 389 c 0
 382 399 371 407 357 411 c 0
306 626 m 0
 309 626 317 627 325 627 c 0
 333 627 341 626 347 626 c 0
 392 626 433 604 455 579 c 0
 466 565 473 546 475 528 c 1
 475 517 474 509 470 500 c 0
 462 485 445 475 428 475 c 0
 420 475 412 477 405 481 c 0
 390 488 380 505 380 522 c 0
 380 547 395 565 420 569 c 1
 427 571 l 1
 420 577 l 1
 397 593 361 603 325 603 c 0
 295 603 269 592 249 570 c 0
 237 558 229 543 225 525 c 1
 220 509 220 498 220 471 c 0
 220 451 220 443 222 434 c 0
 224 421 230 406 231 406 c 0
 232 406 235 408 238 410 c 0
 248 416 270 426 282 429 c 0
 298 434 309 436 324 436 c 0
 326 436 330 436 333 436 c 0
 349 436 352 436 362 434 c 0
 391 426 410 410 416 388 c 0
 417 384 418 381 418 377 c 0
 418 362 405 344 391 334 c 0
 383 329 372 322 362 319 c 0
 354 317 343 316 332 316 c 0
 304 316 272 323 246 335 c 0
 242 337 238 338 238 338 c 2
 237 338 235 332 233 326 c 0
 225 300 219 272 219 229 c 0
 219 224 219 220 219 215 c 0
 219 184 223 167 230 144 c 0
 239 114 257 86 279 68 c 1
 316 35 365 13 420 5 c 0
 437 3 458 0 478 0 c 0
 514 0 553 5 584 13 c 0
 662 32 716 76 742 143 c 0
 754 174 760 206 760 243 c 0
 760 255 761 261 761 266 c 0
 761 268 761 270 760 272 c 0
 757 284 751 295 744 306 c 0
 732 323 723 333 684 367 c 0
 675 375 662 388 654 395 c 1
 640 410 l 1
 633 407 l 2
 630 406 615 401 603 397 c 0
 565 387 556 383 545 375 c 0
 539 371 535 365 532 359 c 0
 531 355 531 352 531 342 c 0
 531 327 533 317 539 304 c 2
 543 296 l 1
 545 302 l 2
 548 314 555 324 565 329 c 0
 572 332 580 334 587 334 c 0
 602 334 618 325 625 310 c 0
 628 304 630 297 630 291 c 0
 630 285 628 277 625 271 c 0
 618 256 603 248 586 248 c 0
 583 248 579 248 575 248 c 0
 573 248 572 248 570 248 c 0
 545 254 526 271 514 296 c 0
 506 312 504 324 504 342 c 0
 504 345 504 348 504 350 c 0
 504 359 505 365 510 373 c 0
 519 391 538 402 576 414 c 0
 586 417 603 425 613 428 c 1
 698 479 l 1
 707 489 715 502 721 513 c 2
 724 518 l 1
 718 518 l 2
 717 518 717 518 716 518 c 0
 700 518 680 530 674 545 c 0
 674 546 674 548 674 550 c 0
 674 553 674 557 674 561 c 0
 674 565 674 569 674 573 c 0
 674 575 674 577 674 578 c 0
 680 594 700 603 717 603 c 0
 720 603 724 604 727 603 c 0
 740 599 751 590 756 578 c 0
 758 573 760 570 760 558 c 0
 760 521 742 484 710 453 c 0
 698 441 687 435 674 427 c 0
 669 424 666 422 666 422 c 1
 666 420 689 397 709 380 c 1
 747 345 763 328 773 306 c 1
 783 287 787 276 787 253 c 2
 787 244 l 2
 787 214 783 192 776 164 c 0
 767 132 750 100 732 77 c 0
 696 32 641 0 573 -13 c 0
 539 -20 518 -22 475 -22 c 0
 426 -22 396 -18 355 -8 c 0
 280 10 213 49 175 96 c 0
 156 121 140 148 134 177 c 0
 133 180 133 182 133 185 c 0
 133 190 134 197 134 210 c 0
 134 221 134 228 134 235 c 0
 134 238 134 242 134 245 c 0
 137 260 145 285 149 298 c 0
 157 320 173 346 185 362 c 0
 188 365 191 369 191 370 c 0
 192 371 190 373 186 378 c 0
 169 396 155 421 149 446 c 0
 149 448 148 451 148 454 c 0
 148 460 149 466 149 472 c 0
 149 478 148 484 148 490 c 0
 148 493 149 496 149 498 c 0
 152 511 157 522 164 536 c 0
 172 552 181 563 195 577 c 0
 211 593 228 604 251 612 c 1
 267 619 283 626 306 626 c 0
EndSplineSet
Validated: 1
EndChar

StartChar: quoteright
Encoding: 39 8217 33
Width: 344
Flags: HW
LayerCount: 2
Fore
SplineSet
188 602 m 0
 193 603 197 604 202 604 c 0
 218 604 233 598 244 585 c 0
 251 578 259 563 263 551 c 0
 268 535 271 517 271 497 c 0
 271 476 268 454 263 432 c 0
 258 413 253 400 244 382 c 0
 230 353 216 335 196 312 c 0
 184 300 179 296 174 296 c 0
 171 296 169 297 166 300 c 1
 163 304 162 305 162 308 c 0
 162 312 164 314 175 325 c 0
 182 332 190 341 194 346 c 0
 222 381 238 420 245 463 c 0
 246 474 248 493 248 504 c 0
 248 506 247 509 247 510 c 2
 246 515 l 1
 240 510 l 2
 229 500 216 495 202 495 c 0
 193 495 183 497 175 502 c 0
 159 510 147 530 147 549 c 0
 147 575 163 597 188 602 c 0
EndSplineSet
Validated: 1
EndChar

StartChar: parenleft
Encoding: 40 40 34
Width: 469
Flags: HW
VStem: 143 239
LayerCount: 2
Fore
SplineSet
356 762 m 0
 364 768 365 768 371 768 c 0
 375 768 377 768 379 765 c 0
 381 763 382 761 382 759 c 0
 382 755 381 753 366 737 c 0
 299 669 256 586 229 481 c 0
 212 413 204 335 204 256 c 0
 204 177 212 99 229 32 c 0
 256 -74 299 -157 366 -225 c 0
 381 -241 382 -243 382 -247 c 0
 382 -249 381 -251 379 -253 c 0
 377 -256 375 -256 371 -256 c 0
 365 -256 364 -256 356 -250 c 0
 323 -224 287 -185 261 -148 c 0
 184 -40 143 100 143 256 c 0
 143 412 184 552 261 660 c 0
 287 697 323 736 356 762 c 0
EndSplineSet
Validated: 1
EndChar

StartChar: parenright
Encoding: 41 41 35
Width: 530
Flags: HW
VStem: 72 239
LayerCount: 2
Fore
SplineSet
77 767 m 1
 78 767 83 768 85 768 c 0
 89 768 91 767 98 762 c 0
 131 736 167 697 193 660 c 0
 270 552 311 412 311 256 c 0
 311 100 270 -40 193 -148 c 0
 167 -185 131 -224 98 -250 c 0
 91 -255 89 -256 85 -256 c 0
 83 -256 79 -255 77 -255 c 1
 74 -253 72 -248 72 -244 c 1
 73 -243 81 -234 90 -225 c 0
 156 -157 199 -74 225 32 c 0
 242 99 250 177 250 256 c 0
 250 335 242 413 225 481 c 0
 199 586 156 669 90 737 c 0
 81 746 73 755 72 756 c 1
 72 760 74 765 77 767 c 1
EndSplineSet
Validated: 1
EndChar

StartChar: asterisk
Encoding: 42 42 36
Width: 729
Flags: HW
HStem: 523 48<333 344 369 380>
VStem: 328 56<330 523 571 767>
LayerCount: 2
Fore
SplineSet
349 767 m 1
 351 768 353 768 355 768 c 0
 363 768 372 764 377 759 c 1
 381 756 385 747 385 743 c 0
 385 741 376 702 376 656 c 0
 376 611 369 571 369 571 c 0
 370 571 384 580 437 620 c 0
 474 647 506 670 508 670 c 1
 511 671 514 672 517 672 c 0
 532 672 545 657 545 642 c 0
 545 640 545 637 544 635 c 0
 540 624 541 624 463 587 c 0
 424 569 391 552 387 551 c 1
 381 547 l 1
 457 511 l 2
 542 470 540 471 544 460 c 0
 545 458 545 455 545 453 c 0
 545 438 532 423 517 423 c 0
 514 423 511 424 508 425 c 1
 506 425 474 448 437 475 c 0
 384 515 370 523 369 523 c 0
 369 523 376 483 376 438 c 0
 376 392 385 353 385 351 c 0
 385 347 381 339 377 336 c 2
 376 334 372 332 370 330 c 1
 365 328 363 328 357 328 c 0
 350 328 348 328 344 330 c 0
 341 332 336 334 335 336 c 2
 331 339 328 347 328 351 c 0
 328 353 337 392 337 438 c 0
 337 483 344 523 344 523 c 0
 343 523 329 515 276 475 c 0
 239 448 207 425 205 425 c 1
 202 424 199 423 196 423 c 0
 181 423 168 438 168 453 c 0
 168 455 168 458 169 460 c 0
 173 471 171 470 256 511 c 2
 332 547 l 1
 328 551 l 1
 324 552 288 569 249 587 c 0
 171 624 173 624 169 635 c 0
 168 637 168 640 168 642 c 0
 168 657 181 672 196 672 c 0
 199 672 202 671 205 670 c 1
 207 670 239 647 276 620 c 0
 329 580 343 571 344 571 c 0
 344 571 337 611 337 656 c 0
 337 702 328 741 328 743 c 0
 328 747 331 756 335 759 c 2
 337 762 344 766 349 767 c 1
EndSplineSet
Validated: 1
EndChar

StartChar: plus
Encoding: 43 43 37
Width: 810
Flags: HW
HStem: 236 41<40 346 387 692>
VStem: 346 41<-70 236 276 582>
LayerCount: 2
Fore
SplineSet
357 595 m 1
 360 596 363 597 366 597 c 0
 373 597 381 593 385 586 c 2
 387 582 l 1
 387 429 l 1
 387 276 l 1
 539 276 l 1
 692 276 l 1
 696 274 l 2
 699 272 702 269 704 267 c 1
 706 263 707 262 707 256 c 0
 707 250 706 249 704 245 c 1
 702 243 699 240 696 238 c 2
 692 236 l 1
 539 236 l 1
 387 236 l 1
 387 83 l 1
 387 -70 l 1
 385 -74 l 2
 383 -77 380 -80 378 -81 c 0
 374 -84 372 -84 366 -84 c 0
 360 -84 359 -84 355 -81 c 0
 353 -80 350 -77 348 -74 c 2
 346 -70 l 1
 346 83 l 1
 346 236 l 1
 193 236 l 1
 40 236 l 1
 36 238 l 2
 33 240 29 243 28 245 c 0
 25 249 25 250 25 256 c 0
 25 262 25 263 28 267 c 0
 29 269 33 272 36 274 c 2
 40 276 l 1
 193 276 l 1
 346 276 l 1
 346 430 l 1
 347 584 l 1
 350 588 l 2
 351 590 355 593 357 595 c 1
EndSplineSet
Validated: 1
EndChar

StartChar: comma
Encoding: 44 44 38
Width: 470
Flags: HW
HStem: 2 105<166 254>
VStem: 157 119<18 89>
LayerCount: 2
Fore
SplineSet
198 108 m 0
 202 109 206 109 211 109 c 0
 216 109 221 109 225 108 c 0
 252 102 268 78 276 36 c 0
 277 29 277 16 277 2 c 0
 277 -12 277 -26 276 -34 c 0
 267 -93 242 -144 202 -186 c 0
 193 -195 189 -199 185 -199 c 0
 182 -199 179 -198 176 -195 c 1
 173 -191 172 -189 172 -186 c 0
 172 -182 174 -181 183 -171 c 0
 221 -132 244 -86 251 -33 c 0
 253 -23 255 4 255 14 c 0
 255 20 254 17 248 13 c 1
 240 5 227 0 213 0 c 0
 208 0 203 1 198 2 c 0
 173 7 157 28 157 54 c 0
 157 80 173 103 198 108 c 0
EndSplineSet
Validated: 1
EndChar

StartChar: hyphen
Encoding: 45 45 39
Width: 638
Flags: HW
HStem: 190 60<159 432>
VStem: 159 272<190 251>
LayerCount: 2
Fore
SplineSet
159 221 m 1
 159 251 l 1
 295 251 l 1
 432 251 l 1
 432 221 l 1
 432 190 l 1
 295 190 l 1
 159 190 l 1
 159 221 l 1
EndSplineSet
Validated: 1
EndChar

StartChar: period
Encoding: 46 46 40
Width: 445
Flags: HW
HStem: 2 105
VStem: 150 105<10 100>
LayerCount: 2
Fore
SplineSet
190 108 m 0
 195 109 200 109 204 109 c 0
 233 109 257 86 257 56 c 0
 257 52 257 47 256 42 c 0
 252 23 235 6 216 2 c 0
 211 1 207 0 202 0 c 0
 173 0 148 25 148 54 c 0
 148 59 149 63 150 68 c 0
 154 87 171 104 190 108 c 0
EndSplineSet
Validated: 1
EndChar

StartChar: slash
Encoding: 47 47 41
Width: 538
Flags: HW
LayerCount: 2
Fore
SplineSet
391 767 m 1
 392 768 396 768 399 768 c 0
 410 768 419 758 419 748 c 0
 419 744 366 599 239 250 c 0
 141 -20 58 -246 58 -246 c 0
 54 -252 48 -256 41 -256 c 0
 38 -256 35 -255 32 -254 c 1
 30 -252 25 -249 24 -247 c 0
 21 -243 21 -242 21 -237 c 0
 21 -231 35 -193 200 262 c 0
 298 532 381 758 381 758 c 0
 383 762 387 765 391 767 c 1
EndSplineSet
Validated: 1
EndChar

StartChar: zero
Encoding: 48 48 42
Width: 822
Flags: HW
HStem: -23 25<363 462> 658 24<365 461>
VStem: 197 87<139 517> 542 86<137 518>
LayerCount: 2
Fore
SplineSet
255 599 m 0
 291 651 350 682 412 682 c 0
 463 682 545 661 590 561 c 0
 617 502 628 433 628 328 c 0
 628 183 603 50 500 0 c 0
 471 -14 443 -23 413 -23 c 0
 371 -23 287 -8 241 85 c 0
 209 145 197 215 197 328 c 0
 197 448 211 528 255 599 c 0
491 625 m 0
 476 640 450 658 412 658 c 0
 389 658 338 648 309 591 c 0
 285 541 284 465 284 363 c 0
 284 355 284 347 284 339 c 0
 284 323 284 306 284 289 c 0
 284 159 291 0 413 0 c 0
 460 0 489 29 504 54 c 0
 539 105 542 194 542 339 c 0
 542 498 539 577 491 625 c 0
EndSplineSet
Validated: 1
EndChar

StartChar: one
Encoding: 49 49 43
Width: 636
Flags: HW
HStem: 0 33<176 271 415 509> 584 33<171 276>
VStem: 304 77<60 610>
LayerCount: 2
Fore
SplineSet
304 610 m 1
 270 596 234 584 182 584 c 2
 171 584 l 1
 171 616 l 1
 182 616 l 2
 230 616 300 630 348 673 c 2
 358 682 l 1
 366 682 l 2
 368 682 369 682 370 682 c 0
 374 682 374 682 381 676 c 1
 381 368 l 1
 381 60 l 1
 388 37 402 33 486 33 c 2
 509 33 l 1
 509 0 l 1
 498 0 l 1
 491 1 344 3 343 3 c 0
 342 3 194 1 187 0 c 1
 176 0 l 1
 176 33 l 1
 199 33 l 2
 289 33 293 37 304 60 c 1
 304 610 l 1
EndSplineSet
Validated: 1
EndChar

StartChar: two
Encoding: 50 50 44
Width: 793
Flags: HW
HStem: 0 80<267 546> 649 32<302 428>
VStem: 187 42<548 579> 569 27<113 179>
LayerCount: 2
Fore
SplineSet
360 681 m 0
 361 681 366 681 372 681 c 0
 386 681 407 681 413 680 c 0
 454 674 490 660 520 638 c 0
 531 629 552 609 560 597 c 0
 568 586 582 560 586 548 c 0
 590 535 594 517 595 504 c 0
 596 499 596 491 596 484 c 0
 596 472 595 460 594 452 c 0
 587 414 570 378 541 341 c 0
 522 316 490 288 436 240 c 0
 423 228 405 212 398 205 c 2
 281 92 l 1
 267 80 l 1
 386 80 l 2
 523 81 541 82 546 87 c 0
 552 93 559 121 565 155 c 0
 567 165 568 175 569 176 c 1
 569 179 l 1
 583 179 l 1
 596 179 l 1
 596 176 l 1
 595 175 589 136 582 90 c 0
 575 43 568 4 567 3 c 1
 567 0 l 1
 377 0 l 1
 187 0 l 1
 187 12 l 2
 187 22 187 26 189 29 c 0
 190 30 232 76 280 130 c 0
 329 183 373 234 379 240 c 0
 457 328 489 384 500 451 c 0
 501 458 501 470 501 482 c 0
 501 494 501 507 500 514 c 0
 494 556 480 587 456 612 c 0
 432 636 406 647 371 649 c 0
 369 649 367 649 365 649 c 0
 316 649 270 622 243 577 c 0
 238 569 229 551 229 548 c 1
 240 548 l 2
 256 548 271 543 281 532 c 0
 291 522 296 508 296 494 c 0
 296 480 292 467 282 456 c 0
 276 450 268 445 259 442 c 0
 254 440 248 440 242 440 c 0
 236 440 229 440 224 442 c 0
 199 450 187 469 187 497 c 0
 187 532 200 568 220 600 c 0
 230 615 253 638 268 648 c 0
 288 661 309 671 332 676 c 0
 340 679 345 679 360 681 c 0
EndSplineSet
Validated: 1
EndChar

StartChar: three
Encoding: 51 51 45
Width: 784
Flags: HW
HStem: 82 116<237 291> 344 24<321 409> 344 15<440 450> 488 104<258 312> 654 28<319 445>
VStem: 215 103<497 585> 489 96<458 608>
LayerCount: 2
Fore
SplineSet
370 681 m 0xde
 375 681 385 682 393 682 c 0
 440 682 485 670 521 646 c 0
 546 631 562 614 573 591 c 0
 581 573 585 559 585 541 c 0
 585 539 585 537 585 535 c 0
 581 459 530 394 451 364 c 0
 445 362 441 360 441 359 c 0
 442 359 l 1xbe
 466 354 482 349 501 339 c 0
 527 327 544 314 562 295 c 0
 595 260 612 219 612 175 c 0
 612 149 606 121 594 95 c 0
 563 33 502 -9 426 -20 c 0
 419 -21 406 -22 392 -22 c 0
 378 -22 364 -21 357 -20 c 0
 319 -14 285 -1 257 17 c 0
 231 34 214 54 201 80 c 0
 193 98 187 120 187 138 c 0
 187 163 199 182 218 191 c 0
 228 196 235 198 246 198 c 0
 256 198 262 196 272 191 c 0
 283 186 291 178 296 168 c 0
 301 159 303 149 303 139 c 0
 303 124 297 109 286 98 c 0
 276 88 261 82 246 82 c 0
 245 82 244 82 243 82 c 0
 240 82 237 82 237 82 c 1
 237 82 240 78 243 73 c 0
 268 40 311 17 361 9 c 0
 369 8 380 8 390 8 c 0
 400 8 410 8 415 9 c 0
 458 21 489 58 500 109 c 0
 504 128 506 151 506 175 c 0
 506 201 503 228 498 248 c 0
 486 299 450 336 408 343 c 0
 404 344 384 344 361 344 c 2
 321 344 l 1
 318 347 l 2
 315 349 314 351 314 356 c 0
 314 360 315 363 318 365 c 0
 320 367 322 368 323 368 c 0
 329 368 388 373 393 374 c 0
 450 385 489 452 489 541 c 0
 489 564 487 576 483 590 c 0
 475 616 459 635 434 647 c 0
 422 652 407 655 391 655 c 0
 386 655 381 654 375 654 c 0
 334 650 300 636 275 613 c 0
 269 606 258 595 258 594 c 1
 258 594 262 593 268 593 c 0
 279 593 289 591 298 585 c 0
 312 576 320 560 320 542 c 0
 320 537 320 532 319 527 c 0
 314 503 294 488 268 488 c 0
 236 488 215 510 215 543 c 0
 215 573 227 602 250 627 c 0
 278 656 324 676 370 681 c 0xde
EndSplineSet
Validated: 1
EndChar

StartChar: four
Encoding: 52 52 46
Width: 783
Flags: HW
HStem: 0 33<350 429 550 629> 169 33<207 450 530 631> 673 20G<509 518>
VStem: 456 74<53 114 114 169 202 581>
LayerCount: 2
Fore
SplineSet
500 691 m 0
 503 693 504 693 513 693 c 0
 522 693 523 692 526 690 c 2
 530 687 l 1
 530 444 l 1
 530 202 l 1
 581 202 l 1
 631 202 l 1
 631 185 l 1
 631 169 l 1
 580 169 l 1
 530 169 l 1
 530 114 l 2
 530 59 531 57 533 53 c 0
 537 42 543 38 558 36 c 0
 567 34 593 33 611 33 c 2
 629 33 l 1
 629 16 l 1
 629 0 l 1
 620 0 l 1
 615 1 583 1 550 2 c 0
 526 3 508 3 490 3 c 0
 472 3 453 3 429 2 c 0
 396 1 365 1 360 0 c 1
 350 0 l 1
 350 16 l 1
 350 33 l 1
 368 33 l 2
 386 33 412 34 422 36 c 0
 436 38 443 42 447 53 c 0
 449 57 450 59 450 114 c 2
 450 169 l 1
 313 169 l 1
 177 169 l 1
 177 185 l 1
 177 202 l 1
 337 445 l 2
 448 613 498 689 500 691 c 0
456 202 m 1
 456 391 l 1
 456 581 l 1
 331 391 l 1
 207 203 l 1
 331 202 l 1
 456 202 l 1
EndSplineSet
Validated: 1
EndChar

StartChar: five
Encoding: 53 53 47
Width: 763
Flags: HW
HStem: -22 30<305 430> 407 24<342 443> 563 86<277 461>
VStem: 190 102<127 193> 241 33<378 573> 506 91<105 312>
LayerCount: 2
Fore
SplineSet
246 680 m 2xec
 248 681 249 682 250 682 c 0
 253 682 256 680 262 678 c 0
 285 668 314 658 338 654 c 0
 358 651 380 649 400 649 c 0
 436 649 471 655 506 667 c 0
 516 670 530 675 535 677 c 0
 542 680 546 682 549 682 c 0
 552 682 553 681 555 679 c 0
 558 677 558 675 558 671 c 0
 558 666 558 664 553 658 c 0
 545 647 531 633 519 623 c 0
 491 598 457 580 421 571 c 0
 402 566 381 563 361 563 c 0
 334 563 306 569 276 577 c 1
 274 577 l 1
 274 477 l 1
 274 378 l 1xec
 284 386 l 2
 312 411 344 425 383 429 c 0
 390 430 397 430 404 430 c 0
 451 430 496 411 532 376 c 0
 566 341 588 295 596 242 c 0
 597 234 597 220 597 207 c 0
 597 193 597 180 596 172 c 0
 591 145 585 124 574 102 c 0
 562 77 550 62 532 43 c 0
 507 19 482 3 451 -8 c 0
 424 -18 405 -22 375 -22 c 0
 361 -22 355 -22 349 -22 c 0
 346 -22 343 -23 339 -22 c 0
 310 -16 285 -1 263 16 c 0
 252 24 235 41 227 52 c 0
 203 84 190 127 190 167 c 0xf4
 190 177 192 186 196 194 c 0
 204 210 223 219 241 219 c 0xec
 250 219 258 217 266 213 c 0
 273 209 283 200 287 193 c 1
 289 186 292 174 292 169 c 0xf4
 292 163 289 151 287 144 c 1
 281 133 266 122 252 119 c 0
 250 119 245 118 241 118 c 0
 235 118 228 119 225 120 c 1
 223 120 l 1
 226 113 l 2
 239 75 268 41 305 23 c 0
 315 19 334 11 346 9 c 0
 352 8 363 8 372 8 c 0
 382 8 390 8 395 9 c 0
 445 20 483 58 497 113 c 0
 503 138 506 167 506 212 c 0
 506 289 497 328 477 360 c 0
 457 391 433 407 404 407 c 0
 371 407 339 397 313 381 c 0
 302 373 281 352 272 339 c 0
 268 333 264 328 263 327 c 1
 261 326 258 326 255 326 c 0
 252 326 249 326 247 327 c 1
 241 331 241 319 241 504 c 0
 241 585 240 633 240 657 c 0
 240 669 241 675 241 676 c 0
 242 678 244 680 246 680 c 2xec
EndSplineSet
Validated: 1
EndChar

StartChar: six
Encoding: 54 54 48
Width: 802
Flags: HW
HStem: -23 31<356 465> 414 24<366 459> 654 28<404 455 455 461 461 527>
VStem: 194 95<147 339 242 470> 498 95<528 607> 525 93<102 314>
LayerCount: 2
Fore
SplineSet
440 681 m 0xf4
 444 682 450 682 456 682 c 0
 470 682 490 680 498 679 c 0
 552 669 584 636 592 588 c 0
 593 583 593 576 593 572 c 0
 593 548 584 533 566 525 c 0
 559 522 558 522 546 522 c 0
 533 522 532 522 525 525 c 0
 516 529 507 537 504 545 c 0
 500 553 498 561 498 568 c 0xf8
 498 585 507 602 522 610 c 0
 530 614 536 615 545 615 c 0
 550 615 553 616 553 616 c 1
 553 618 533 637 528 640 c 0
 519 645 505 652 494 654 c 0
 491 655 487 655 484 655 c 0
 477 655 470 654 462 654 c 0
 456 654 450 655 445 655 c 0
 443 655 440 654 438 654 c 0
 372 640 320 579 300 494 c 0
 292 459 287 423 287 369 c 0
 287 354 287 345 287 342 c 0
 287 340 287 339 287 339 c 0
 288 339 l 1
 289 340 291 346 294 351 c 0
 310 387 336 414 366 427 c 0
 381 434 397 437 416 437 c 0
 418 437 421 437 424 437 c 0
 474 437 511 419 548 382 c 0
 587 342 609 301 617 251 c 0
 618 242 619 224 619 208 c 0
 619 199 618 189 618 183 c 0
 618 123 592 81 548 36 c 0
 530 19 516 9 498 0 c 0
 470 -14 440 -23 408 -23 c 0
 406 -23 402 -23 400 -23 c 0
 342 -23 289 11 254 62 c 0
 242 81 224 118 216 145 c 0
 208 170 202 204 199 234 c 0
 196 261 194 292 194 321 c 0
 194 348 196 372 198 390 c 0
 212 500 264 593 341 643 c 0
 371 663 406 677 440 681 c 0xf4
430 414 m 0
 428 414 426 414 424 414 c 0
 421 414 417 414 413 414 c 0
 379 414 351 399 329 370 c 0
 302 334 289 282 289 222 c 0
 289 217 289 211 289 205 c 0
 289 154 297 116 304 92 c 0
 318 51 349 19 384 10 c 0
 390 8 400 8 410 8 c 0
 418 8 426 8 432 9 c 0
 452 14 466 22 481 37 c 0
 505 61 517 86 522 127 c 0
 524 145 525 178 525 225 c 0xf4
 525 274 523 290 519 312 c 0
 514 341 500 367 482 385 c 0
 467 400 450 411 430 414 c 0
EndSplineSet
Validated: 1
EndChar

StartChar: seven
Encoding: 55 55 49
Width: 697
Flags: HW
HStem: 579 81<209 509> 672 20G<180 207>
VStem: 146 27<480 544> 180 27<688 692> 270 93<-16 14 14 195>
LayerCount: 2
Fore
SplineSet
180 689 m 1
 180 692 l 1
 194 692 l 1
 207 692 l 1
 207 688 l 2
 208 679 216 672 229 668 c 0
 236 666 254 663 276 662 c 0
 285 661 345 660 439 659 c 2
 587 659 l 1
 587 646 l 1
 587 634 l 1
 512 529 l 2
 470 471 434 420 430 414 c 0
 398 362 379 295 371 209 c 0
 367 168 365 116 365 55 c 0
 365 33 364 16 363 13 c 0
 360 1 351 -10 341 -16 c 0
 333 -20 325 -22 317 -22 c 0
 295 -22 274 -8 270 14 c 0
 269 17 269 24 269 33 c 0
 269 48 270 68 271 83 c 0
 277 145 292 207 316 267 c 0
 338 321 368 380 402 429 c 0
 406 435 432 471 460 509 c 2
 509 579 l 1
 509 579 503 579 493 579 c 0
 473 579 437 579 398 579 c 0
 359 579 318 579 290 579 c 0
 276 579 264 579 258 579 c 0
 222 578 203 576 200 574 c 0
 198 573 191 561 188 552 c 0
 184 542 180 522 177 502 c 0
 175 493 174 484 173 483 c 1
 173 480 l 1
 160 480 l 1
 146 480 l 1
 146 483 l 1
 147 484 155 531 164 586 c 0
 172 641 179 687 180 689 c 1
EndSplineSet
Validated: 1
EndChar

StartChar: eight
Encoding: 56 56 50
Width: 791
Flags: HW
LayerCount: 2
Fore
SplineSet
436 281 m 0
 397 307 366 327 365 327 c 0
 364 327 349 318 339 312 c 0
 289 278 256 232 247 183 c 0
 246 176 245 167 245 157 c 0
 245 145 246 134 248 126 c 0
 253 99 267 75 287 56 c 0
 318 24 360 7 406 7 c 0
 412 7 419 7 425 8 c 0
 508 17 566 71 566 135 c 0
 566 144 564 153 562 162 c 0
 555 187 538 213 515 229 c 0
 511 232 475 256 436 281 c 0
432 653 m 0
 425 654 409 655 397 655 c 0
 392 655 388 654 385 654 c 0
 314 645 266 603 266 550 c 0
 266 539 269 526 275 514 c 0
 284 497 296 482 315 469 c 2
 385 424 l 1
 442 387 l 1
 446 388 l 2
 448 389 454 394 461 398 c 0
 515 433 544 480 544 529 c 0
 544 531 544 535 544 537 c 0
 542 567 531 590 508 613 c 0
 488 633 462 647 432 653 c 0
383 681 m 0
 390 682 398 682 405 682 c 0
 447 682 490 670 524 647 c 0
 544 633 566 610 576 590 c 0
 586 571 590 550 590 530 c 0
 590 500 579 470 560 444 c 0
 543 420 511 395 478 378 c 1
 473 374 468 372 468 371 c 2
 503 348 l 2
 521 336 541 323 546 319 c 0
 589 283 615 233 618 180 c 0
 618 178 618 176 618 174 c 0
 618 145 611 118 598 91 c 0
 578 50 547 20 504 0 c 0
 482 -10 462 -16 436 -20 c 0
 429 -21 416 -22 403 -22 c 0
 390 -22 377 -21 370 -20 c 0
 344 -16 319 -8 296 2 c 1
 242 29 207 71 196 124 c 0
 194 132 193 143 193 154 c 0
 193 165 194 177 196 185 c 0
 204 228 228 266 268 299 c 0
 281 309 307 326 324 335 c 0
 332 339 339 343 339 343 c 1
 339 343 327 351 314 359 c 0
 280 381 267 394 252 414 c 0
 245 424 233 445 229 458 c 0
 223 475 220 493 220 511 c 0
 220 565 248 617 297 649 c 0
 321 665 354 678 383 681 c 0
EndSplineSet
Validated: 1
EndChar

StartChar: nine
Encoding: 57 57 51
Width: 808
Flags: HW
HStem: -23 30<286 414> 223 24<348 443> 655 26<354 452>
VStem: 191 95<345 451 451 557> 216 43<26 42> 216 95<51 132> 522 91<179 289 289 326 326 342 397 438 459 521>
LayerCount: 2
Fore
SplineSet
383 681 m 0xea
 387 681 392 681 397 681 c 0
 412 681 431 680 440 679 c 0
 472 672 502 657 526 633 c 0
 545 615 556 600 570 573 c 0
 594 525 613 475 613 404 c 0
 613 391 614 367 614 342 c 0
 614 317 613 295 613 285 c 0
 613 243 600 204 588 169 c 0
 581 151 563 115 553 99 c 0
 505 22 434 -23 359 -23 c 0
 303 -23 257 -3 235 29 c 0
 224 45 216 63 216 85 c 0
 216 91 216 95 216 98 c 0
 216 100 216 101 216 103 c 0
 220 117 230 128 243 134 c 0
 250 137 251 138 264 138 c 0
 276 138 278 137 285 134 c 0
 302 126 311 110 311 91 c 0xe6
 311 72 302 56 286 48 c 0xf2
 279 45 270 44 264 44 c 0
 263 44 262 44 261 44 c 0
 258 44 258 44 259 42 c 1xea
 259 41 262 38 265 36 c 0
 284 19 311 7 351 7 c 0
 353 7 355 7 358 7 c 0
 376 7 394 11 410 18 c 0
 434 29 458 52 475 80 c 0
 497 113 511 155 517 206 c 0
 520 232 522 249 522 289 c 1
 522 326 l 1
 518 314 l 2
 501 275 475 246 443 233 c 0
 428 226 412 223 393 223 c 0
 391 223 388 223 385 223 c 0
 353 223 328 232 303 246 c 0
 290 254 278 262 264 275 c 0
 212 326 191 380 191 453 c 0
 191 456 191 458 191 461 c 0xf2
 191 485 194 498 198 516 c 0
 207 554 226 586 259 618 c 0
 279 640 295 652 315 662 c 0
 335 672 358 681 383 681 c 0xea
423 655 m 0
 422 655 420 655 419 655 c 0
 416 655 412 655 409 655 c 0
 398 655 386 654 377 651 c 0
 351 645 329 630 312 604 c 0
 297 581 286 561 286 525 c 0
 286 514 285 482 285 450 c 0
 285 418 286 385 286 374 c 0xf2
 286 346 294 325 302 310 c 0
 312 291 329 271 343 261 c 0
 357 252 377 247 396 247 c 0
 402 247 409 247 414 248 c 0
 437 252 454 262 471 280 c 0
 503 315 522 370 522 438 c 0
 522 444 522 452 522 459 c 0
 522 541 507 574 488 604 c 0
 470 631 449 650 423 655 c 0
EndSplineSet
Validated: 1
EndChar

StartChar: colon
Encoding: 58 58 52
Width: 348
Flags: HW
VStem: 153 105<10 100 341 432>
LayerCount: 2
Fore
SplineSet
193 439 m 0
 198 440 203 441 207 441 c 0
 236 441 260 417 260 387 c 0
 260 383 260 379 259 374 c 0
 255 355 238 338 219 334 c 0
 214 333 210 332 205 332 c 0
 176 332 151 357 151 386 c 0
 151 391 152 394 153 399 c 0
 157 418 174 435 193 439 c 0
193 108 m 0
 198 109 203 109 207 109 c 0
 236 109 260 86 260 56 c 0
 260 52 260 47 259 42 c 0
 255 23 238 6 219 2 c 0
 214 1 210 0 205 0 c 0
 176 0 151 25 151 54 c 0
 151 59 152 63 153 68 c 0
 157 87 174 104 193 108 c 0
EndSplineSet
Validated: 1
EndChar

StartChar: semicolon
Encoding: 59 59 53
Width: 72
Flags: HW
HStem: -199 22G<185 188> 0 109<175 247> 332 108<201 258>
VStem: 160 109<34 96 343 386 386 430> 248 23<-73 10>
LayerCount: 2
Fore
SplineSet
201 439 m 0xf0
 205 440 210 441 214 441 c 0
 244 441 269 417 269 387 c 0
 269 383 268 378 267 374 c 0
 262 349 239 332 214 332 c 0
 182 332 160 356 160 386 c 0
 160 389 160 392 160 395 c 0
 160 396 160 398 160 399 c 0
 164 418 182 435 201 439 c 0xf0
200 108 m 0
 203 109 208 109 213 109 c 0
 217 109 222 109 226 108 c 0
 251 102 265 79 270 39 c 0
 271 32 271 14 271 0 c 0
 271 -14 271 -28 270 -35 c 0
 265 -71 255 -99 239 -130 c 0
 228 -153 216 -171 200 -188 c 0
 194 -195 190 -199 187 -199 c 0
 184 -199 181 -198 178 -195 c 0
 175 -192 174 -189 174 -187 c 0
 174 -184 178 -180 185 -171 c 0
 218 -132 245 -86 245 -37 c 0
 245 -26 248 -6 248 4 c 0xe8
 248 8 249 10 248 10 c 2
 248 10 244 8 240 6 c 0
 232 2 222 0 214 0 c 0
 199 0 184 5 174 16 c 0
 165 26 160 41 160 54 c 0
 160 80 175 103 200 108 c 0
EndSplineSet
Validated: 1
EndChar

StartChar: less
Encoding: 60 60 54
Width: 657
Flags: HW
LayerCount: 2
Fore
SplineSet
252 414 m 0
 508 535 547 553 556 553 c 0
 558 553 558 552 560 551 c 0
 567 547 572 539 572 532 c 0
 572 526 569 521 564 517 c 0
 562 515 439 457 288 385 c 2
 16 256 l 1
 288 127 l 2
 439 55 562 -3 564 -5 c 0
 569 -9 572 -14 572 -20 c 0
 572 -27 567 -35 560 -39 c 0
 558 -40 558 -41 556 -41 c 0
 547 -41 508 -23 252 98 c 0
 89 175 -45 239 -47 241 c 0
 -51 244 -54 250 -54 256 c 0
 -54 262 -51 269 -46 272 c 0
 -44 273 90 337 252 414 c 0
EndSplineSet
Validated: 1
EndChar

StartChar: equal
Encoding: 61 61 55
Width: 896
Flags: HW
HStem: 136 41<174 824> 335 41<174 824>
LayerCount: 2
Fore
SplineSet
168 374 m 2
 172 376 l 1
 497 376 l 1
 824 376 l 1
 828 374 l 2
 831 372 834 369 836 367 c 1
 838 363 839 361 839 355 c 0
 839 349 838 348 836 344 c 1
 834 342 831 339 829 338 c 2
 825 336 l 1
 499 335 l 1
 174 335 l 1
 168 337 l 1
 161 341 157 346 157 355 c 0
 157 361 157 363 160 367 c 0
 161 369 165 372 168 374 c 2
168 175 m 1
 174 177 l 1
 499 177 l 1
 825 177 l 1
 829 174 l 2
 831 173 834 170 836 168 c 1
 838 164 839 163 839 157 c 0
 839 151 838 149 836 145 c 1
 834 143 831 140 828 138 c 2
 824 136 l 1
 497 136 l 1
 172 136 l 1
 168 138 l 2
 165 140 161 143 160 145 c 0
 157 149 157 151 157 157 c 0
 157 166 161 171 168 175 c 1
EndSplineSet
Validated: 1
EndChar

StartChar: greater
Encoding: 62 62 56
Width: 853
Flags: HW
LayerCount: 2
Fore
SplineSet
153 551 m 0
 155 552 156 553 158 553 c 0
 167 553 205 535 461 414 c 0
 624 337 758 273 760 271 c 0
 764 268 768 262 768 256 c 0
 768 250 764 244 760 241 c 0
 758 239 624 175 461 98 c 2
 167 -41 l 1
 160 -41 l 2
 149 -40 142 -31 142 -21 c 0
 142 -17 143 -13 145 -9 c 0
 149 -4 120 -18 444 135 c 2
 698 256 l 1
 444 377 l 2
 119 531 149 516 145 521 c 1
 143 525 143 526 143 532 c 0
 143 538 143 540 146 544 c 0
 147 546 150 549 153 551 c 0
EndSplineSet
Validated: 1
EndChar

StartChar: question
Encoding: 63 63 57
Width: 650
Flags: HW
HStem: 193 24<270 345>
VStem: 215 44<240 287> 246 110<12 93> 373 27<240 279> 428 42<461 555>
LayerCount: 2
Fore
SplineSet
273 626 m 0xd8
 282 627 291 627 299 627 c 0
 332 627 362 620 389 607 c 0
 406 598 418 590 432 577 c 0
 450 558 461 540 468 515 c 0
 470 507 470 503 470 488 c 0
 470 472 470 469 468 461 c 0
 464 447 453 426 445 415 c 0
 441 410 434 402 430 397 c 1
 424 393 391 369 346 335 c 0
 305 305 269 279 267 276 c 0
 261 269 259 264 259 254 c 0
 259 247 259 245 261 240 c 0
 269 225 283 216 303 216 c 0
 304 216 305 216 306 216 c 0
 330 218 350 228 362 244 c 0
 368 252 372 259 373 269 c 0
 373 275 374 278 376 280 c 0
 379 283 380 283 386 283 c 0
 393 283 393 283 396 280 c 0
 399 277 399 276 399 268 c 0
 398 253 391 236 381 224 c 0
 364 206 332 193 301 193 c 0
 252 193 215 232 215 276 c 0
 215 298 224 320 241 335 c 0
 244 338 279 364 319 394 c 0
 364 426 397 450 401 455 c 2
 410 463 419 475 423 484 c 0
 426 490 428 503 428 511 c 0
 428 525 422 542 412 555 c 0
 395 578 365 595 331 601 c 0
 324 602 311 603 298 603 c 0
 285 603 272 602 264 601 c 0
 220 595 189 582 162 560 c 0
 156 555 142 540 142 538 c 0
 142 537 145 537 148 537 c 0
 176 537 196 515 196 490 c 0
 196 482 194 474 190 466 c 0
 182 450 166 441 149 441 c 0
 132 441 114 450 106 466 c 0
 102 475 101 484 101 496 c 0
 103 523 115 548 133 567 c 0
 162 599 214 621 273 626 c 0xd8
288 108 m 0
 293 109 297 109 302 109 c 0
 316 109 328 104 339 93 c 0
 350 83 355 69 355 55 c 0
 355 40 350 26 339 16 c 0
 328 5 314 0 300 0 c 0
 286 0 273 5 262 16 c 0
 251 26 246 40 246 55 c 0xb8
 246 64 247 70 252 79 c 0
 258 92 273 105 288 108 c 0
EndSplineSet
Validated: 1
EndChar

StartChar: at
Encoding: 64 64 58
Width: 843
Flags: HW
HStem: -9 24<352 584> 470 25<394 503> 591 24<355 534>
VStem: 577 72<214 390>
LayerCount: 2
Fore
SplineSet
422 614 m 0
 424 614 429 615 436 615 c 0
 453 615 478 614 485 613 c 0
 531 608 570 595 611 575 c 0
 676 542 725 493 756 432 c 0
 766 409 771 398 776 379 c 0
 783 352 787 329 787 300 c 0
 787 296 786 292 786 288 c 0
 783 186 754 126 703 113 c 0
 697 111 687 110 677 110 c 0
 672 110 666 110 662 111 c 0
 634 114 612 123 597 138 c 0
 589 146 581 157 579 166 c 2
 578 171 l 1
 570 163 l 2
 560 153 547 142 537 136 c 0
 521 126 497 117 480 114 c 0
 468 112 456 110 443 110 c 0
 403 110 362 121 329 143 c 0
 281 175 250 225 242 280 c 0
 241 287 240 294 240 301 c 0
 240 351 261 400 299 437 c 0
 314 451 329 462 348 471 c 0
 376 485 405 494 437 495 c 0
 460 495 479 492 499 485 c 0
 532 475 561 455 583 427 c 2
 589 420 l 1
 616 420 l 1
 643 420 l 1
 646 418 l 1
 649 415 l 1
 649 292 l 1
 650 169 l 1
 652 162 l 2
 653 158 655 153 656 151 c 0
 660 145 667 138 671 136 c 0
 675 134 679 133 684 133 c 0
 692 133 702 135 710 139 c 0
 717 142 730 156 735 164 c 0
 748 187 756 218 759 265 c 0
 760 275 760 286 760 295 c 0
 760 344 751 382 731 423 c 0
 697 491 633 546 557 572 c 0
 519 585 487 591 445 591 c 0
 402 591 371 585 333 572 c 0
 230 536 152 450 134 350 c 0
 131 333 130 318 130 302 c 0
 130 286 131 271 134 254 c 0
 144 199 172 147 213 105 c 0
 265 54 330 23 408 14 c 0
 417 13 430 13 446 13 c 0
 472 13 504 14 528 17 c 0
 595 24 665 41 720 63 c 2
 733 69 l 1
 757 70 l 1
 780 70 l 1
 783 67 l 2
 785 65 786 62 786 60 c 0
 786 58 785 55 784 54 c 0
 781 51 768 46 735 35 c 0
 668 13 598 -1 528 -7 c 0
 502 -9 472 -11 446 -11 c 0
 429 -11 415 -10 405 -9 c 0
 358 -4 319 9 278 29 c 0
 213 62 165 111 134 173 c 0
 124 195 119 206 114 225 c 0
 107 251 104 276 104 302 c 0
 104 328 107 353 114 379 c 0
 119 398 124 409 134 432 c 0
 165 493 213 542 278 575 c 0
 320 597 362 609 406 613 c 0
 412 614 419 614 422 614 c 0
465 470 m 0
 459 471 453 471 447 471 c 0
 424 471 404 465 385 453 c 0
 348 428 323 386 314 335 c 0
 313 327 313 314 313 302 c 0
 313 290 313 278 314 270 c 0
 320 232 334 201 356 176 c 0
 382 148 412 133 446 133 c 0
 457 133 470 135 482 138 c 0
 517 147 548 171 571 204 c 2
 577 214 l 1
 577 302 l 1
 577 390 l 1
 571 400 l 2
 544 439 508 463 465 470 c 0
EndSplineSet
Validated: 1
EndChar

StartChar: A
Encoding: 65 65 59
Width: 1022
Flags: HW
HStem: -12 75<517 596> 608 20G<619 628>
LayerCount: 2
Fore
SplineSet
578 519 m 0
 575 528 572 536 572 536 c 1
 571 536 565 529 560 521 c 2
 554 514 508 453 456 385 c 2
 363 263 l 1
 372 246 l 2
 431 131 477 80 532 66 c 0
 539 64 551 62 562 62 c 0
 568 62 574 62 579 63 c 0
 614 69 645 89 681 128 c 2
 744 200 l 1
 747 204 l 1
 732 227 l 2
 657 354 613 439 578 519 c 0
606 627 m 0
 610 628 615 629 623 629 c 0
 634 629 639 627 643 622 c 0
 647 617 898 11 898 7 c 0
 898 2 894 0 884 0 c 0
 867 0 863 2 851 24 c 0
 843 38 766 175 763 175 c 0
 761 175 743 155 714 122 c 0
 661 60 638 36 608 17 c 0
 589 4 566 -8 544 -12 c 0
 542 -12 540 -13 537 -13 c 0
 531 -13 524 -12 517 -12 c 0
 511 -12 505 -13 499 -13 c 0
 496 -13 494 -12 492 -12 c 0
 459 -5 432 12 402 42 c 0
 374 71 351 107 319 168 c 0
 313 178 308 187 307 187 c 0
 306 187 283 157 255 121 c 0
 227 84 202 52 200 50 c 0
 195 46 187 44 178 44 c 0
 169 44 166 46 166 51 c 0
 166 54 220 126 380 336 c 0
 497 490 595 618 597 621 c 1
 600 623 604 626 606 627 c 0
EndSplineSet
Validated: 1
EndChar

StartChar: B
Encoding: 66 66 60
Width: 970
Flags: HW
HStem: -11 24<434 554> 582 25<455 578> 703 33<105 175>
VStem: 211 92<210 413 469 675> 684 106<180 422>
LayerCount: 2
Fore
SplineSet
217 802 m 0
 222 805 223 805 234 805 c 0
 252 805 266 798 279 785 c 0
 289 773 299 753 302 735 c 0
 303 729 303 685 303 598 c 2
 303 469 l 1
 311 480 l 2
 330 510 354 535 380 554 c 0
 407 576 440 592 472 599 c 0
 489 604 508 604 526 604 c 0
 579 604 632 587 677 551 c 0
 725 512 762 454 779 389 c 0
 786 359 790 329 790 300 c 0
 790 238 774 178 741 126 c 0
 721 93 688 61 657 39 c 0
 614 10 570 -11 520 -11 c 0
 514 -11 505 -11 497 -11 c 0
 482 -11 465 -10 453 -8 c 0
 357 5 277 60 237 139 c 0
 225 163 219 183 214 210 c 2
 211 223 l 1
 211 445 l 1
 211 689 211 671 204 683 c 0
 200 692 190 696 174 699 c 0
 163 701 140 703 121 703 c 2
 105 703 l 1
 105 720 l 1
 105 736 l 1
 117 736 l 1
 166 736 204 761 211 792 c 0
 213 798 211 798 217 802 c 0
549 582 m 1
 547 582 543 582 540 582 c 0
 533 582 525 582 517 582 c 0
 512 582 508 582 505 582 c 0
 456 576 411 553 371 514 c 0
 346 488 325 460 309 426 c 2
 303 413 l 1
 303 313 l 1
 303 205 304 205 310 174 c 0
 321 116 349 72 396 42 c 0
 426 24 461 12 495 12 c 0
 511 12 528 15 542 19 c 0
 590 33 634 76 657 130 c 0
 676 173 684 224 684 302 c 0
 684 317 l 0
 684 365 681 391 675 420 c 0
 663 485 634 533 592 561 c 0
 578 571 564 578 549 582 c 1
EndSplineSet
Validated: 1
EndChar

StartChar: C
Encoding: 67 67 61
Width: 933
Flags: HW
HStem: 585 27<424 566>
LayerCount: 2
Fore
SplineSet
457 611 m 0
 463 611 475 612 489 612 c 0
 509 612 532 611 543 610 c 0
 596 605 633 593 670 568 c 0
 690 555 703 544 728 519 c 0
 748 500 751 497 751 494 c 0
 751 493 751 489 750 489 c 1
 749 486 674 424 671 423 c 0
 670 423 669 423 669 423 c 0
 666 423 663 424 661 426 c 1
 661 427 657 435 654 445 c 0
 630 521 603 559 557 575 c 0
 537 582 519 585 490 585 c 0
 466 585 457 584 440 579 c 0
 390 563 346 517 321 461 c 0
 303 416 294 362 294 297 c 0
 294 293 294 290 294 286 c 0
 296 232 302 191 317 153 c 0
 344 81 400 28 460 17 c 0
 467 16 478 16 491 16 c 0
 511 16 534 17 553 19 c 0
 624 27 669 55 725 125 c 0
 730 130 734 135 735 136 c 1
 736 137 738 137 740 137 c 0
 743 137 746 136 749 134 c 1
 754 130 756 126 756 123 c 0
 756 121 755 119 753 116 c 0
 747 107 724 82 712 69 c 0
 670 28 631 6 577 -4 c 0
 555 -8 522 -11 492 -11 c 0
 474 -11 456 -10 444 -8 c 0
 320 10 224 103 195 228 c 0
 190 250 187 272 187 295 c 0
 187 326 192 358 201 389 c 0
 208 416 226 453 241 477 c 0
 291 553 369 601 457 611 c 0
EndSplineSet
Validated: 1
EndChar

StartChar: D
Encoding: 68 68 62
Width: 1048
Flags: HW
HStem: -33 25<511 629> 603 24<513 627>
VStem: 272 105<172 424> 762 106<173 423>
LayerCount: 2
Fore
SplineSet
192 626 m 0
 195 628 200 629 201 629 c 0
 203 629 208 627 213 625 c 0
 244 611 279 603 320 603 c 0
 342 603 l 0
 372 603 390 607 459 616 c 0
 511 624 535 627 567 627 c 0
 599 627 620 623 647 615 c 0
 722 592 785 541 824 469 c 0
 847 429 860 386 866 336 c 0
 867 329 868 313 868 297 c 0
 868 282 867 266 866 259 c 0
 860 209 847 166 824 126 c 0
 802 86 773 52 737 25 c 0
 705 0 663 -19 626 -27 c 0
 608 -31 588 -33 570 -33 c 0
 543 -33 517 -28 492 -20 c 0
 417 3 354 54 315 126 c 0
 292 166 278 209 272 259 c 0
 272 261 272 265 272 269 c 0
 272 277 272 287 272 297 c 0
 272 308 272 318 272 326 c 0
 272 330 272 334 272 336 c 0
 279 395 298 445 328 492 c 0
 353 528 387 563 421 583 c 0
 425 586 429 589 428 589 c 0
 426 589 401 585 392 582 c 0
 362 574 340 561 282 523 c 0
 238 494 214 481 187 470 c 0
 181 468 177 466 174 466 c 0
 169 466 166 470 162 478 c 0
 160 482 158 484 158 487 c 0
 158 491 160 496 164 505 c 0
 176 535 185 568 185 603 c 0
 185 610 186 619 186 620 c 1
 187 622 189 624 192 626 c 0
594 603 m 0
 589 603 581 603 573 603 c 0
 566 603 559 604 553 604 c 0
 550 604 548 603 546 603 c 0
 507 597 470 573 441 539 c 0
 396 485 378 414 378 298 c 0
 378 181 396 110 441 56 c 0
 470 22 508 0 546 -7 c 0
 552 -8 561 -8 569 -8 c 0
 578 -8 588 -8 594 -7 c 0
 632 0 669 22 698 56 c 0
 743 110 762 181 762 298 c 0
 762 414 743 485 698 539 c 0
 669 573 632 596 594 603 c 0
EndSplineSet
Validated: 1
EndChar

StartChar: E
Encoding: 69 69 63
Width: 948
Flags: HW
HStem: -10 26<419 527 527 563> 300 33<295 639 728 785> 589 23<414 522>
VStem: 188 106<180 292 292 300 333 421> 639 89<333 452> 701 26<125 153>
LayerCount: 2
Fore
SplineSet
448 611 m 0xf4
 452 611 461 612 470 612 c 0
 478 612 489 611 494 611 c 0
 519 611 544 603 564 595 c 0
 577 591 601 580 612 573 c 0
 677 533 726 459 726 362 c 0
 726 344 728 344 728 339 c 0xf8
 728 333 729 333 744 333 c 0
 748 333 753 333 758 333 c 2
 785 333 l 1
 785 316 l 1
 785 300 l 1
 541 300 l 1
 295 300 l 1
 295 288 l 2
 295 259 298 222 302 197 c 0
 314 125 346 72 397 40 c 0
 422 24 449 15 482 15 c 0
 496 15 511 16 527 19 c 0
 594 30 648 64 681 113 c 0
 689 124 698 143 701 153 c 0
 704 162 707 164 716 164 c 0
 723 164 723 164 726 161 c 0
 728 159 729 157 729 155 c 0
 729 153 728 150 727 146 c 0
 724 136 713 113 707 104 c 0
 672 48 606 7 527 -6 c 0
 505 -10 495 -10 469 -10 c 0
 441 -10 432 -9 409 -4 c 0
 383 2 353 16 331 29 c 0
 297 51 266 82 244 115 c 0
 209 168 188 226 188 292 c 0
 188 294 188 298 188 300 c 0
 188 355 199 406 225 456 c 0
 240 487 259 511 284 536 c 0
 312 563 342 581 378 595 c 0
 397 602 426 611 448 611 c 0xf4
487 589 m 0
 485 589 483 589 481 589 c 0
 478 589 474 589 470 589 c 0
 447 589 426 583 407 574 c 0
 390 565 365 545 352 528 c 0
 316 484 296 428 296 341 c 1
 295 333 l 1
 467 333 l 1
 639 333 l 1
 639 349 l 1
 639 442 607 515 563 552 c 0
 538 572 516 584 487 589 c 0
EndSplineSet
Validated: 1
EndChar

StartChar: F
Encoding: 70 70 64
Width: 1007
Flags: HW
HStem: -199 22G<276 338> 111 73<342 748> 505 33<144 214> 582 25<531 654>
VStem: 250 92<-193 111 183 437 459 474> 729 109<461 522>
LayerCount: 2
Fore
SplineSet
256 603 m 0
 261 606 262 606 270 606 c 0
 286 606 299 601 309 592 c 0
 320 582 328 568 333 549 c 0
 335 540 335 539 336 499 c 2
 336 459 l 1
 341 464 l 2
 438 550 501 590 558 603 c 0
 568 605 573 605 596 606 c 0
 601 606 606 606 611 606 c 0
 656 606 698 602 728 594 c 0
 752 589 778 577 792 568 c 0
 818 551 836 522 838 492 c 0
 838 486 838 482 837 480 c 0
 836 477 746 402 742 400 c 0
 741 400 740 399 739 399 c 0
 735 399 731 402 729 406 c 1
 729 408 728 418 728 428 c 0
 727 451 725 467 721 484 c 0
 706 544 670 576 604 582 c 0
 597 583 591 583 585 583 c 0
 567 583 550 579 531 572 c 0
 487 556 441 523 365 457 c 2
 342 437 l 1
 342 310 l 1
 342 183 l 1
 545 183 l 1
 748 183 l 1
 748 147 l 1
 748 111 l 1
 545 111 l 1
 342 111 l 1
 342 -41 l 1
 342 -193 l 1
 338 -196 l 1
 335 -199 l 1
 297 -199 l 2
 256 -199 255 -199 252 -194 c 0
 251 -192 250 -126 250 139 c 0
 250 438 249 469 248 474 c 0
 244 486 237 494 226 498 c 0
 215 502 190 505 160 505 c 2
 144 505 l 1
 144 521 l 1
 144 538 l 1
 155 538 l 2
 205 541 241 562 248 593 c 0
 250 599 250 599 256 603 c 0
EndSplineSet
Validated: 1
EndChar

StartChar: G
Encoding: 71 71 65
Width: 947
Flags: HW
HStem: -221 33<418 601> 522 73<149 431 532 792>
VStem: 241 67<286 400> 253 27<-46 28> 690 67<-101 21>
LayerCount: 2
Fore
SplineSet
149 559 m 1xe8
 149 595 l 1
 471 595 l 1
 792 595 l 1
 792 559 l 1
 792 522 l 1
 661 522 l 1
 532 522 l 1
 517 518 l 2
 486 510 452 497 423 485 c 0
 368 459 330 430 315 398 c 0
 310 386 307 372 307 358 c 0xe8
 307 330 318 300 337 275 c 0
 359 249 389 229 422 220 c 0
 426 219 465 211 508 202 c 0
 551 193 591 184 597 182 c 0
 625 174 654 158 678 141 c 0
 686 135 706 116 713 108 c 0
 730 86 745 59 751 33 c 0
 755 17 757 1 757 -14 c 0
 757 -42 750 -69 737 -96 c 0
 726 -120 714 -136 695 -155 c 0
 659 -189 613 -213 560 -221 c 0
 557 -221 554 -222 550 -222 c 0
 542 -222 531 -221 521 -221 c 0
 505 -221 489 -221 479 -221 c 0
 449 -221 424 -208 399 -199 c 0
 358 -183 333 -176 298 -171 c 0
 267 -166 254 -165 215 -165 c 0
 186 -165 178 -164 177 -163 c 1
 175 -162 169 -146 169 -143 c 0
 169 -139 171 -136 180 -130 c 0
 221 -96 253 -49 253 4 c 0
 253 10 253 16 253 19 c 0
 253 22 253 26 253 28 c 1
 255 31 261 33 266 33 c 0
 268 33 270 33 272 32 c 1
 278 29 280 26 280 17 c 0xd8
 280 -10 286 -42 296 -66 c 0
 321 -123 373 -164 443 -179 c 0
 469 -185 498 -188 523 -188 c 0
 535 -188 547 -187 556 -186 c 0
 576 -182 598 -175 614 -166 c 0
 661 -139 690 -95 690 -48 c 0
 690 -45 690 -42 690 -39 c 0
 690 -37 690 -36 690 -34 c 0
 685 10 653 49 608 72 c 0
 590 80 579 84 543 91 c 0
 525 95 488 104 459 109 c 0
 401 122 389 125 365 136 c 0
 317 160 281 195 261 239 c 0
 248 267 241 295 241 323 c 0
 241 337 243 352 247 365 c 0
 260 411 298 451 359 487 c 0
 374 496 403 510 419 517 c 2
 431 522 l 1
 291 522 l 1
 149 522 l 1
 149 559 l 1xe8
EndSplineSet
Validated: 1
EndChar

StartChar: H
Encoding: 72 72 66
Width: 963
Flags: HW
HStem: 0 22G<242 303 673 757> 582 24<477 617> 715 33<109 179>
VStem: 669 92<6 507>
LayerCount: 2
Fore
SplineSet
221 813 m 0
 226 816 227 816 235 816 c 0
 251 816 264 811 274 802 c 0
 285 792 293 778 298 759 c 2
 300 750 l 1
 301 604 l 1
 301 460 l 1
 323 481 l 2
 360 516 387 539 413 557 c 0
 448 582 480 598 510 604 c 0
 517 605 523 605 554 605 c 0
 601 605 628 603 657 596 c 0
 680 590 705 580 718 571 c 0
 737 558 752 538 758 515 c 2
 761 507 l 1
 761 256 l 1
 761 6 l 1
 757 3 l 1
 754 0 l 1
 715 0 l 1
 676 0 l 1
 673 3 l 1
 670 6 l 1
 669 257 l 1
 668 509 l 1
 665 517 l 2
 659 540 647 555 627 566 c 0
 610 574 590 580 562 582 c 0
 552 583 544 583 536 583 c 0
 509 583 492 578 467 565 c 0
 429 547 388 515 327 456 c 2
 307 437 l 1
 307 221 l 1
 307 6 l 1
 303 3 l 1
 300 0 l 1
 262 0 l 2
 221 0 220 0 217 5 c 0
 216 7 215 74 215 343 c 0
 215 648 214 679 213 684 c 0
 209 696 202 704 191 708 c 0
 180 712 155 715 125 715 c 2
 109 715 l 1
 109 731 l 1
 109 748 l 1
 120 748 l 2
 170 751 206 772 213 803 c 0
 215 809 215 809 221 813 c 0
EndSplineSet
Validated: 1
EndChar

StartChar: I
Encoding: 73 73 67
Width: 544
Flags: HW
HStem: 0 22G<276 338> 494 33<145 215> 574 20G<268 283>
VStem: 252 90<6 445>
LayerCount: 2
Fore
SplineSet
256 592 m 0
 261 595 262 595 273 595 c 0
 291 594 305 588 318 575 c 0
 329 563 339 542 341 524 c 0
 342 518 342 441 342 261 c 2
 342 6 l 1
 338 3 l 1
 335 0 l 1
 297 0 l 2
 256 0 255 0 252 5 c 0
 251 7 250 52 250 232 c 0
 249 480 250 461 243 473 c 0
 239 482 229 486 213 489 c 0
 202 491 179 494 161 494 c 2
 145 494 l 1
 145 510 l 1
 145 526 l 1
 157 526 l 2
 205 529 241 551 248 582 c 0
 250 588 250 588 256 592 c 0
EndSplineSet
Validated: 1
EndChar

StartChar: uni1E0A
Encoding: 74 7690 68
Width: 1048
Flags: HW
HStem: -33 25<511 629> 603 24<513 627> 696 110<526 614>
VStem: 272 105<172 424> 515 110<708 795> 762 106<173 423>
LayerCount: 2
Fore
SplineSet
557 804 m 0
 562 805 566 806 571 806 c 0
 584 806 598 800 608 790 c 0
 619 780 625 766 625 752 c 0
 625 742 623 736 618 727 c 0
 612 713 598 699 583 696 c 0
 581 696 580 696 578 696 c 0
 568 696 l 0
 555 696 541 703 531 713 c 0
 520 723 515 737 515 752 c 0
 515 761 516 766 521 775 c 0
 527 788 542 801 557 804 c 0
192 626 m 0
 195 628 200 629 201 629 c 0
 203 629 208 627 213 625 c 0
 244 611 279 603 320 603 c 0
 342 603 l 0
 372 603 390 607 459 616 c 0
 511 624 535 627 567 627 c 0
 599 627 620 623 647 615 c 0
 722 592 785 541 824 469 c 0
 847 429 860 386 866 336 c 0
 867 329 868 313 868 297 c 0
 868 282 867 266 866 259 c 0
 860 209 847 166 824 126 c 0
 802 86 773 52 737 25 c 0
 705 0 663 -19 626 -27 c 0
 608 -31 588 -33 570 -33 c 0
 543 -33 518 -28 493 -20 c 0
 418 3 354 54 315 126 c 0
 292 166 278 209 272 259 c 0
 272 261 272 265 272 269 c 0
 272 277 272 287 272 297 c 0
 272 308 272 318 272 326 c 0
 272 330 272 334 272 336 c 0
 279 395 298 445 328 492 c 0
 353 528 387 563 421 583 c 0
 425 586 429 589 428 589 c 0
 426 589 401 585 392 582 c 0
 362 574 340 561 282 523 c 0
 238 494 214 481 187 470 c 0
 181 468 177 466 174 466 c 0
 169 466 166 470 162 478 c 0
 160 482 158 484 158 487 c 0
 158 491 160 496 164 505 c 0
 176 535 185 568 185 603 c 0
 185 610 186 619 186 620 c 1
 187 622 189 624 192 626 c 0
594 603 m 0
 589 603 581 603 573 603 c 0
 566 603 559 604 553 604 c 0
 550 604 548 603 546 603 c 0
 507 597 470 573 441 539 c 0
 396 485 378 414 378 298 c 0
 378 181 396 110 441 56 c 0
 470 22 508 0 546 -7 c 0
 552 -8 561 -8 569 -8 c 0
 578 -8 588 -8 594 -7 c 0
 632 0 669 22 698 56 c 0
 743 110 762 181 762 298 c 0
 762 414 743 485 698 539 c 0
 669 573 632 596 594 603 c 0
EndSplineSet
Validated: 1
EndChar

StartChar: Cdotaccent
Encoding: 75 266 69
Width: 933
Flags: HW
HStem: -11 27<427 597> 585 28<424 566> 696 110<442 529>
VStem: 187 106<183 414>
LayerCount: 2
Fore
SplineSet
473 805 m 0
 476 806 480 806 484 806 c 0
 493 806 503 804 512 799 c 0
 524 793 537 777 540 764 c 0
 540 763 540 762 540 760 c 0
 540 758 540 754 540 751 c 0
 540 748 540 744 540 742 c 0
 540 740 540 739 540 738 c 0
 536 720 518 700 499 696 c 0
 497 696 496 696 494 696 c 0
 484 696 l 0
 462 696 443 710 434 733 c 0
 432 739 432 742 432 752 c 0
 432 761 432 763 434 769 c 0
 441 787 456 800 473 805 c 0
457 611 m 0
 462 611 475 612 488 612 c 0
 508 612 532 610 543 610 c 0
 596 610 633 593 670 568 c 0
 690 555 703 544 728 519 c 0
 748 500 751 497 751 494 c 0
 751 493 750 489 749 489 c 1
 748 486 674 424 671 423 c 0
 670 423 669 423 668 423 c 0
 666 423 662 424 660 426 c 1
 660 427 657 435 654 445 c 0
 630 521 603 559 557 575 c 0
 537 582 518 585 489 585 c 0
 465 585 457 584 440 579 c 0
 390 563 345 517 320 461 c 0
 302 417 294 362 294 297 c 0
 294 293 294 290 294 286 c 0
 294 232 302 191 317 153 c 0
 344 81 400 28 460 17 c 0
 467 16 478 15 490 15 c 0
 509 15 534 17 553 19 c 0
 624 27 669 55 725 125 c 0
 730 130 734 135 735 136 c 1
 736 137 738 137 739 137 c 0
 742 137 745 136 748 134 c 1
 753 130 756 127 756 123 c 0
 756 121 755 119 753 116 c 0
 747 107 724 82 712 69 c 0
 670 28 630 6 576 -4 c 0
 553 -8 521 -11 491 -11 c 0
 473 -11 456 -10 444 -8 c 0
 320 10 223 103 194 228 c 0
 189 250 187 272 187 296 c 0
 187 327 192 358 201 389 c 0
 208 416 226 453 241 477 c 0
 291 553 369 601 457 611 c 0
EndSplineSet
Validated: 1
EndChar

StartChar: L
Encoding: 76 76 70
Width: 738
Flags: HW
HStem: 703 33<132 183>
VStem: 214 91<98 648> 572 27<73 133>
LayerCount: 2
Fore
SplineSet
219 801 m 1
 224 805 l 1
 235 805 l 2
 244 804 249 804 255 802 c 0
 278 794 293 775 301 744 c 2
 303 737 l 1
 304 421 l 1
 305 104 l 1
 307 94 l 2
 312 69 322 51 337 38 c 0
 353 22 373 12 402 7 c 0
 411 5 424 5 436 5 c 0
 448 5 460 5 468 7 c 0
 487 11 505 19 520 29 c 0
 530 36 547 53 554 63 c 0
 565 80 572 103 572 122 c 0
 572 126 572 128 575 130 c 0
 578 133 579 133 586 133 c 0
 593 133 593 133 596 130 c 0
 599 127 599 126 599 121 c 0
 599 113 597 97 594 87 c 0
 591 76 579 54 572 44 c 0
 558 25 541 10 516 -2 c 0
 487 -16 467 -22 434 -23 c 0
 430 -23 427 -23 423 -23 c 0
 348 -23 286 -3 250 32 c 0
 232 50 221 69 214 98 c 0
 213 104 213 130 212 388 c 0
 211 701 212 676 205 687 c 0
 198 698 179 703 144 703 c 2
 132 703 l 1
 132 720 l 1
 132 736 l 1
 136 736 l 2
 142 736 153 738 160 740 c 0
 186 748 204 767 210 790 c 0
 211 794 212 797 213 797 c 1
 219 801 l 1
EndSplineSet
Validated: 1
EndChar

StartChar: M
Encoding: 77 77 71
Width: 1223
Flags: HW
HStem: 0 22G<275 335 616 676 957 1017> 505 33<144 214> 583 23<470 513 513 522 517 557 811 853 853 863 858 898>
VStem: 252 87<6 438 471 496> 593 87<6 438 471 525> 934 87<6 511>
CounterMasks: 1 1c
LayerCount: 2
Fore
SplineSet
256 603 m 0
 261 606 262 606 273 606 c 0
 290 605 300 601 311 591 c 0
 320 583 329 569 334 555 c 0
 338 542 339 532 339 501 c 2
 339 471 l 1
 352 487 l 2
 409 558 450 592 489 603 c 0
 496 605 498 605 523 605 c 0
 558 605 582 602 605 594 c 0
 635 584 656 569 667 546 c 0
 676 529 680 511 680 486 c 2
 680 471 l 1
 693 487 l 2
 750 558 791 592 830 603 c 0
 837 605 839 605 864 605 c 0
 891 605 904 604 924 600 c 0
 947 596 969 586 984 575 c 0
 997 564 1010 546 1015 528 c 0
 1021 509 1021 524 1021 254 c 2
 1021 6 l 1
 1017 3 l 1
 1014 0 l 1
 977 0 l 2
 938 0 937 0 934 5 c 0
 933 7 932 58 932 262 c 2
 931 516 l 1
 929 525 l 2
 926 537 924 545 918 553 c 0
 906 572 886 581 854 583 c 0
 843 583 840 583 833 581 c 0
 799 573 758 537 698 462 c 2
 680 438 l 1
 680 222 l 1
 680 6 l 1
 676 3 l 1
 673 0 l 1
 636 0 l 2
 597 0 596 0 593 5 c 0
 592 7 591 58 591 262 c 2
 590 516 l 1
 588 525 l 2
 585 537 583 545 577 553 c 0
 565 572 545 581 513 583 c 0
 502 583 499 583 492 581 c 0
 458 573 417 537 357 462 c 2
 339 438 l 1
 339 222 l 1
 339 6 l 1
 335 3 l 1
 332 0 l 1
 295 0 l 2
 256 0 255 0 252 5 c 0
 251 7 250 54 250 239 c 0
 249 492 250 472 243 484 c 0
 239 493 229 498 213 501 c 0
 202 503 179 505 160 505 c 2
 144 505 l 1
 144 521 l 1
 144 538 l 1
 155 538 l 2
 205 541 241 562 248 593 c 0
 250 599 250 599 256 603 c 0
EndSplineSet
Validated: 1
EndChar

StartChar: N
Encoding: 78 78 72
Width: 998
Flags: HW
HStem: 0 22G<276 338 708 792> 505 33<144 214> 582 24<512 652>
VStem: 250 92<6 437 460 497> 703 92<6 507>
LayerCount: 2
Fore
SplineSet
256 603 m 0
 261 606 262 606 270 606 c 0
 286 606 299 601 309 592 c 0
 320 582 328 568 333 549 c 0
 335 540 335 539 336 500 c 2
 336 460 l 1
 358 481 l 2
 395 516 421 539 447 557 c 0
 482 582 515 598 545 604 c 0
 552 605 558 605 589 605 c 0
 636 605 663 603 692 596 c 0
 715 590 740 580 753 571 c 0
 772 558 787 538 793 515 c 2
 796 507 l 1
 796 256 l 1
 796 6 l 1
 792 3 l 1
 788 0 l 1
 750 0 l 1
 711 0 l 1
 708 3 l 1
 705 6 l 1
 703 257 l 1
 702 509 l 1
 700 517 l 2
 694 540 682 555 662 566 c 0
 645 574 625 580 597 582 c 0
 587 583 579 583 571 583 c 0
 544 583 527 578 502 565 c 0
 464 547 422 515 361 456 c 2
 342 437 l 1
 342 221 l 1
 342 6 l 1
 338 3 l 1
 335 0 l 1
 297 0 l 2
 256 0 255 0 252 5 c 0
 251 7 250 54 250 239 c 0
 249 492 250 472 243 484 c 0
 239 493 229 498 213 501 c 0
 202 503 179 505 160 505 c 2
 144 505 l 1
 144 521 l 1
 144 538 l 1
 155 538 l 2
 205 541 241 562 248 593 c 0
 250 599 250 599 256 603 c 0
EndSplineSet
Validated: 1
EndChar

StartChar: O
Encoding: 79 79 73
Width: 990
Flags: HW
HStem: -22 27<438 563>
VStem: 189 104<173 419> 707 104<176 419>
LayerCount: 2
Fore
SplineSet
473 616 m 0
 478 616 490 617 499 617 c 0
 500 617 500 617 501 617 c 0
 617 617 724 550 778 442 c 0
 795 407 805 376 811 336 c 0
 812 326 813 310 813 295 c 0
 813 280 812 264 811 255 c 0
 807 226 801 202 791 178 c 0
 753 80 667 8 567 -15 c 0
 542 -20 530 -22 501 -22 c 0
 471 -22 458 -20 434 -15 c 0
 375 -2 321 28 278 72 c 0
 230 122 199 183 189 255 c 0
 188 264 188 280 188 295 c 0
 188 310 188 326 189 336 c 0
 195 376 205 407 222 442 c 0
 271 540 367 606 473 616 c 0
518 590 m 0
 512 591 506 591 500 591 c 0
 453 591 406 571 369 535 c 0
 320 485 294 408 294 309 c 0
 294 221 310 152 343 100 c 0
 380 41 440 5 501 5 c 0
 554 5 609 34 645 82 c 0
 687 138 707 211 707 309 c 0
 707 408 681 485 632 535 c 0
 600 566 561 585 518 590 c 0
EndSplineSet
Validated: 1
EndChar

StartChar: P
Encoding: 80 80 74
Width: 1035
Flags: HW
HStem: -199 22G<278 339> -13 24<549 638> 494 33<145 215> 580 27<472 598>
VStem: 251 89<-190 388> 469 27<112 177> 752 106<172 409>
LayerCount: 2
Fore
SplineSet
525 604 m 0
 526 604 528 605 530 605 c 0
 534 605 540 604 546 604 c 0
 554 604 563 604 569 604 c 0
 595 604 622 597 646 589 c 0
 679 578 713 560 740 538 c 0
 755 526 784 497 795 482 c 0
 824 444 842 402 851 358 c 0
 855 336 858 315 858 292 c 0
 858 249 849 204 833 163 c 0
 824 138 803 106 786 84 c 0
 777 72 754 50 743 41 c 0
 699 6 645 -13 595 -13 c 0
 593 -13 590 -13 588 -13 c 0
 563 -13 544 -6 524 8 c 0
 499 24 481 31 453 31 c 0
 438 31 427 30 412 24 c 0
 406 22 401 20 398 20 c 0
 393 20 391 25 387 36 c 0
 385 43 385 43 387 46 c 1
 388 49 391 51 399 54 c 1
 429 70 453 96 463 128 c 0
 466 138 469 154 469 162 c 0
 469 174 472 177 483 177 c 0
 488 177 490 177 493 174 c 0
 495 172 496 170 496 167 c 0
 496 164 497 154 497 145 c 0
 497 90 512 56 534 34 c 0
 547 21 561 14 579 11 c 0
 583 10 588 10 592 10 c 0
 621 10 646 22 670 46 c 0
 700 76 725 125 738 179 c 0
 746 214 752 253 752 292 c 0
 752 312 750 332 748 351 c 0
 733 457 668 545 587 571 c 0
 571 576 553 580 536 580 c 0
 503 580 470 569 442 551 c 0
 392 518 356 461 344 395 c 0
 343 389 343 379 343 365 c 0
 343 348 343 342 341 340 c 1
 341 339 340 333 340 310 c 0
 340 277 342 212 342 75 c 0
 342 -68 343 -188 343 -190 c 1
 342 -192 341 -195 339 -196 c 1
 336 -199 l 1
 298 -199 l 2
 257 -199 254 -199 251 -194 c 0
 251 -193 250 -185 250 -166 c 0
 250 -127 251 -41 251 133 c 0
 251 330 251 409 251 441 c 0
 251 457 251 461 251 463 c 0
 247 475 238 482 227 486 c 0
 216 490 191 494 161 494 c 2
 145 494 l 1
 145 510 l 1
 145 526 l 1
 156 526 l 1
 206 526 242 549 249 580 c 0
 251 586 251 588 258 592 c 0
 263 595 263 595 274 595 c 0
 291 595 301 590 312 580 c 0
 325 569 335 548 338 529 c 2
 340 521 l 1
 340 534 l 2
 340 536 340 536 340 536 c 0
 340 536 341 526 341 509 c 2
 341 471 l 1
 348 483 l 2
 377 535 419 573 469 592 c 0
 482 597 501 602 514 604 c 0
 515 604 517 604 518 604 c 0
 521 604 524 604 525 604 c 0
EndSplineSet
Validated: 1
EndChar

StartChar: uni1E1E
Encoding: 81 7710 75
Width: 1006
Flags: HW
HStem: -199 22G<276 338> 111 73<342 747> 505 33<144 214> 582 25<530 653>
VStem: 250 92<-193 111 183 437 459 474> 729 109<461 522>
LayerCount: 2
Fore
SplineSet
576 804 m 0
 579 805 584 806 589 806 c 0
 596 806 603 805 608 803 c 0
 627 796 641 778 644 759 c 0
 644 756 644 754 644 751 c 0
 644 728 629 706 607 699 c 0
 602 697 596 697 589 697 c 0
 582 697 576 697 572 699 c 0
 555 705 543 717 537 734 c 0
 535 738 535 745 535 751 c 0
 535 757 535 763 537 767 c 0
 543 786 557 799 576 804 c 0
256 603 m 0
 261 606 262 606 270 606 c 0
 286 606 299 601 309 592 c 0
 320 582 328 568 333 549 c 0
 335 540 335 539 336 499 c 2
 336 459 l 1
 341 464 l 2
 438 550 501 590 558 603 c 0
 568 605 573 605 596 606 c 0
 601 606 606 606 611 606 c 0
 656 606 698 602 728 594 c 0
 752 589 777 577 791 568 c 0
 817 551 835 522 837 492 c 0
 837 486 837 482 836 480 c 0
 835 477 746 402 742 400 c 0
 741 400 740 399 739 399 c 0
 735 399 731 402 729 406 c 1
 729 408 728 418 728 428 c 0
 727 451 725 467 721 484 c 0
 706 544 670 576 604 582 c 0
 597 583 591 583 585 583 c 0
 567 583 550 579 531 572 c 0
 487 556 440 523 364 457 c 2
 342 437 l 1
 342 310 l 1
 342 183 l 1
 545 183 l 1
 747 183 l 1
 747 147 l 1
 747 111 l 1
 545 111 l 1
 342 111 l 1
 342 -41 l 1
 342 -193 l 1
 338 -196 l 1
 335 -199 l 1
 297 -199 l 2
 256 -199 255 -199 252 -194 c 0
 251 -192 250 -126 250 139 c 0
 250 438 249 469 248 474 c 0
 244 486 237 494 226 498 c 0
 215 502 189 505 159 505 c 2
 144 505 l 1
 144 521 l 1
 144 538 l 1
 154 538 l 2
 204 541 241 562 248 593 c 0
 250 599 250 599 256 603 c 0
EndSplineSet
Validated: 1
EndChar

StartChar: R
Encoding: 82 82 76
Width: 999
Flags: HW
HStem: -23 24<784 833> 273 25<438 526> 494 33<144 214> 579 28<405 550>
VStem: 252 87<6 485> 637 106<50 197 395 522> 847 27<13 50>
LayerCount: 2
Fore
SplineSet
451 604 m 0
 453 604 455 605 457 605 c 0
 462 605 468 604 474 604 c 0
 488 604 503 606 518 606 c 0
 526 606 534 605 541 604 c 0
 635 593 714 550 736 502 c 0
 741 491 743 481 743 467 c 0
 743 445 739 429 727 406 c 0
 719 390 709 376 695 361 c 0
 666 333 630 312 584 296 c 0
 576 293 572 292 572 291 c 0
 572 290 577 290 585 288 c 0
 620 282 649 270 673 255 c 0
 680 251 687 245 695 237 c 0
 708 224 716 213 722 198 c 0
 726 188 727 186 745 117 c 0
 758 69 766 48 772 34 c 0
 779 16 790 2 798 0 c 0
 799 0 800 0 800 0 c 0
 810 0 826 6 834 12 c 0
 841 18 847 30 847 38 c 0
 847 45 852 50 860 50 c 0
 868 50 873 46 873 37 c 0
 873 29 869 9 854 -3 c 0
 841 -15 820 -23 798 -23 c 0
 768 -23 739 -16 715 -5 c 0
 682 9 659 35 649 69 c 0
 644 82 640 91 640 134 c 0
 640 180 636 187 632 197 c 0
 625 219 607 237 580 250 c 0
 551 263 510 273 464 273 c 0
 451 273 444 273 441 273 c 0
 439 273 439 273 438 273 c 0
 435 275 433 280 433 285 c 0
 433 287 433 289 434 291 c 0
 436 297 440 298 458 298 c 0
 511 298 555 316 589 345 c 0
 620 372 637 415 637 465 c 0
 637 480 635 491 630 501 c 0
 614 534 574 561 526 572 c 0
 506 577 492 579 468 579 c 0
 456 579 451 579 445 579 c 0
 442 579 439 580 436 579 c 0
 418 575 402 566 386 555 c 0
 374 547 354 527 346 515 c 2
 340 506 l 1
 340 256 l 1
 340 6 l 1
 335 3 l 1
 332 0 l 1
 295 0 l 2
 256 0 255 0 252 5 c 0
 252 6 251 11 251 25 c 0
 251 52 252 112 252 232 c 0
 252 480 250 461 243 473 c 0
 239 482 229 486 213 489 c 0
 202 491 179 494 160 494 c 2
 144 494 l 1
 144 510 l 1
 144 526 l 1
 155 526 l 1
 205 526 241 551 248 582 c 0
 250 588 250 588 257 592 c 0
 262 595 262 595 273 595 c 0
 290 595 300 589 311 579 c 0
 324 568 334 549 337 529 c 2
 339 521 l 1
 339 535 l 1
 339 548 l 1
 348 557 l 2
 361 569 375 579 391 587 c 0
 410 596 431 601 451 604 c 0
EndSplineSet
Validated: 1
EndChar

StartChar: S
Encoding: 83 83 77
Width: 887
Flags: HW
HStem: -23 33<377 530> 588 29<364 508>
VStem: 192 108<427 528> 249 27<105 177> 597 105<73 221> 620 27<421 479>
LayerCount: 2
Fore
SplineSet
389 616 m 0xe8
 393 616 401 616 409 616 c 0
 427 616 451 615 461 615 c 0
 493 615 516 603 546 588 c 0
 580 571 595 565 626 565 c 0
 642 565 646 565 657 567 c 0
 664 568 674 570 679 572 c 1
 684 573 687 574 690 574 c 0
 692 574 694 573 695 572 c 1
 697 571 704 556 704 553 c 0
 704 550 700 546 696 542 c 0
 686 533 671 512 663 497 c 0
 653 478 646 452 646 430 c 0
 646 425 646 424 643 421 c 0
 640 418 640 418 633 418 c 0
 627 418 626 418 623 421 c 0
 621 423 620 425 620 430 c 1xe4
 616 458 605 488 591 510 c 0
 557 559 505 588 430 588 c 0
 413 588 401 587 389 584 c 0
 349 574 315 540 304 500 c 0
 299 485 299 478 299 462 c 0
 299 443 300 432 305 418 c 0
 318 381 347 352 383 341 c 0
 387 339 425 331 467 322 c 0
 549 306 561 302 578 296 c 0
 612 284 637 267 659 247 c 0
 681 227 693 204 700 176 c 0
 702 167 703 162 703 148 c 0
 703 144 703 141 703 138 c 0
 703 127 701 119 696 106 c 0
 677 44 610 -4 526 -18 c 0
 511 -21 493 -23 475 -23 c 0
 452 -23 430 -20 410 -16 c 0
 384 -11 367 -5 341 7 c 0
 331 12 318 17 313 19 c 0
 297 25 278 29 260 29 c 0
 256 29 253 28 249 28 c 0
 238 28 230 26 211 22 c 0
 209 22 207 21 205 21 c 0
 199 21 196 24 192 34 c 0
 191 38 192 40 192 42 c 0xe8
 192 46 194 49 200 53 c 0
 212 65 228 87 235 102 c 0
 243 120 249 146 249 164 c 0
 249 174 253 177 263 177 c 0
 268 177 270 177 272 174 c 1
 275 172 276 171 276 159 c 0xd0
 276 136 282 117 289 100 c 0
 316 45 377 10 463 10 c 0
 480 10 492 11 504 14 c 0
 533 21 560 43 578 73 c 0
 591 95 597 120 597 147 c 0
 597 165 594 185 588 202 c 0
 574 238 545 268 511 279 c 0
 508 280 468 288 424 298 c 0
 324 318 315 321 284 336 c 0
 252 351 228 370 213 393 c 0
 208 401 199 419 197 427 c 0
 194 438 192 450 192 461 c 0
 192 490 202 517 224 542 c 0
 258 582 321 616 389 616 c 0xe8
EndSplineSet
Validated: 1
EndChar

StartChar: T
Encoding: 84 84 78
Width: 980
Flags: HW
HStem: 522 73<161 391 436 831>
VStem: 219 104<161 377>
LayerCount: 2
Fore
SplineSet
161 559 m 1
 161 595 l 1
 497 595 l 1
 831 595 l 1
 831 559 l 1
 831 522 l 1
 672 522 l 2
 567 522 510 522 503 521 c 0
 447 515 398 484 365 435 c 0
 339 396 326 347 324 282 c 0
 324 277 323 272 323 268 c 0
 323 205 336 152 362 111 c 0
 392 62 440 27 493 17 c 0
 501 16 512 16 524 16 c 0
 553 16 588 19 611 25 c 0
 645 33 668 47 694 73 c 0
 709 88 720 101 736 125 c 0
 742 133 748 141 749 142 c 1
 750 143 752 143 753 143 c 0
 756 143 759 142 762 140 c 0
 767 136 769 135 769 131 c 0
 769 127 766 121 758 110 c 0
 712 41 670 10 609 -3 c 0
 586 -8 556 -11 527 -11 c 0
 506 -11 486 -10 469 -7 c 0
 407 3 351 30 306 71 c 0
 280 95 260 121 245 154 c 0
 232 180 224 204 219 233 c 0
 218 241 218 255 218 269 c 0
 218 283 218 296 219 305 c 0
 224 333 232 358 245 385 c 0
 264 425 292 457 329 485 c 0
 344 497 355 504 375 514 c 2
 391 522 l 1
 275 522 l 1
 161 522 l 1
 161 559 l 1
EndSplineSet
Validated: 1
EndChar

StartChar: U
Encoding: 85 85 79
Width: 994
Flags: HW
HStem: -10 23<426 565> 505 33<140 210 594 664> 586 20G<264 279 717 733>
VStem: 251 91<92 158 158 356> 697 94<-5 145 145 215 215 472>
LayerCount: 2
Fore
SplineSet
252 603 m 0
 257 606 258 606 269 606 c 0
 287 605 301 600 314 587 c 0
 324 575 334 555 337 537 c 0
 338 531 338 474 338 356 c 0
 338 184 338 162 342 137 c 0
 347 96 359 69 379 50 c 0
 405 26 442 14 493 12 c 0
 495 12 497 12 499 12 c 0
 538 12 569 21 600 41 c 0
 653 77 687 138 697 215 c 0
 698 222 699 285 699 346 c 0
 699 407 698 468 697 472 c 0
 695 480 690 490 686 493 c 0
 675 501 649 505 609 505 c 2
 594 505 l 1
 594 521 l 1
 594 538 l 1
 604 538 l 2
 654 541 690 562 697 593 c 0
 699 599 700 599 707 603 c 0
 712 606 712 606 723 606 c 0
 742 605 755 600 768 587 c 0
 779 575 789 554 791 536 c 0
 792 530 792 448 792 261 c 2
 792 -5 l 1
 787 -8 l 1
 784 -11 l 1
 746 -11 l 1
 710 -11 l 1
 707 -8 l 1
 703 -5 l 1
 702 70 l 1
 702 145 l 1
 697 133 l 2
 683 98 664 70 639 45 c 0
 622 29 609 19 587 8 c 0
 558 -6 532 -11 494 -11 c 0
 485 -11 475 -11 464 -10 c 0
 397 -6 348 11 311 43 c 0
 280 69 259 110 251 158 c 0
 247 183 247 181 246 328 c 0
 245 483 246 472 239 484 c 0
 235 493 225 498 209 501 c 0
 198 503 175 505 156 505 c 2
 140 505 l 1
 140 521 l 1
 140 538 l 1
 151 538 l 2
 201 541 237 562 244 593 c 0
 246 599 246 599 252 603 c 0
EndSplineSet
Validated: 1
EndChar

StartChar: uni1E02
Encoding: 86 7682 80
Width: 969
Flags: HW
HStem: -11 24<434 553> 582 25<459 575> 696 110<482 569> 703 33<105 175>
VStem: 211 92<210 413 469 670> 471 110<708 795> 684 106<181 423>
LayerCount: 2
Fore
SplineSet
471 752 m 0xee
 471 783 496 806 526 806 c 0
 559 806 580 778 580 752 c 0
 580 726 559 696 525 696 c 0
 498 696 471 717 471 752 c 0xee
790 300 m 0
 790 116 648 -11 497 -11 c 0
 362 -11 241 72 214 210 c 2
 211 223 l 1
 211 445 l 1
 211 511 211 559 211 594 c 0
 211 691 207 693 174 699 c 0
 163 701 139 703 120 703 c 2
 105 703 l 1
 105 736 l 1
 116 736 l 1xde
 165 736 204 761 211 792 c 0
 215 805 223 805 231 805 c 0
 232 805 233 805 234 805 c 0
 278 805 297 768 302 735 c 0
 303 729 303 685 303 598 c 2
 303 469 l 1
 311 480 l 2
 360 555 440 604 526 604 c 0
 662 604 790 477 790 300 c 0
684 302 m 0
 684 407 667 550 549 582 c 1
 547 582 543 582 540 582 c 0
 533 582 525 582 517 582 c 0
 481 582 375 560 309 426 c 2
 303 413 l 1
 303 313 l 1
 303 299 303 286 303 271 c 0
 303 190 309 97 396 42 c 0
 426 24 461 12 495 12 c 0
 592 12 643 95 657 130 c 0
 676 173 684 224 684 302 c 0
EndSplineSet
Validated: 1
EndChar

StartChar: uni1E40
Encoding: 87 7744 81
Width: 1222
Flags: HW
HStem: 0 22G<274 338 615 679 956 1020> 505 33<143 213> 583 23<468 554 809 896> 696 110<591 677>
VStem: 251 87<6 438 471 496> 579 110<707 794> 592 87<6 438 471 559> 933 87<6 511>
LayerCount: 2
Fore
SplineSet
579 752 m 0xfd
 579 782 605 806 636 806 c 0
 660 806 689 786 689 752 c 0
 689 719 662 696 636 696 c 0
 606 696 579 719 579 752 c 0xfd
338 6 m 1
 331 0 l 1
 294 0 l 2
 255 0 254 0 251 5 c 0
 251 6 250 11 250 25 c 0
 250 53 251 115 251 239 c 0
 251 300 251 345 251 380 c 0
 251 493 247 495 212 501 c 0
 201 503 177 505 158 505 c 2
 143 505 l 1
 143 538 l 1
 153 538 l 1
 203 538 240 564 247 595 c 0
 250 603 255 605 261 605 c 0
 265 605 269 604 272 604 c 0
 298 604 320 592 333 555 c 0
 337 542 338 532 338 501 c 2
 338 471 l 1
 351 487 l 2
 445 603 483 604 520 604 c 0
 522 604 l 0
 606 604 679 581 679 486 c 2
 679 471 l 1
 692 487 l 2
 786 603 824 604 861 604 c 0
 863 604 l 0
 919 604 996 595 1014 528 c 0
 1020 509 1020 524 1020 254 c 2
 1020 6 l 1
 1012 0 l 1
 976 0 l 2
 937 0 936 0 933 5 c 0
 932 7 930 58 930 262 c 2
 930 516 l 1
 923 548 914 583 853 583 c 0
 850 583 l 0
 827 583 793 581 697 462 c 2
 679 438 l 1
 679 6 l 1
 672 0 l 1
 635 0 l 2
 596 0 595 0 592 5 c 0xfb
 591 7 589 58 589 262 c 2
 589 516 l 1
 582 548 573 583 512 583 c 0
 509 583 l 0
 486 583 452 581 356 462 c 2
 338 438 l 1
 338 6 l 1
EndSplineSet
Validated: 1
EndChar

StartChar: uni1E6A
Encoding: 88 7786 82
Width: 981
Flags: HW
HStem: 522 73<161 392 436 832>
VStem: 220 104<161 377>
LayerCount: 2
Fore
SplineSet
509 804 m 0
 513 805 519 806 523 806 c 0
 546 800 l 0
 558 794 568 783 574 769 c 0
 576 763 576 761 576 752 c 0
 576 742 576 739 574 733 c 0
 570 724 563 715 557 710 c 0
 547 701 535 696 522 696 c 0
 508 696 495 702 485 712 c 0
 473 723 467 736 467 752 c 0
 467 759 468 763 469 767 c 0
 475 785 491 800 509 804 c 0
161 559 m 1
 161 595 l 1
 497 595 l 1
 832 595 l 1
 832 559 l 1
 832 522 l 1
 672 522 l 2
 567 522 510 522 503 521 c 0
 447 515 398 484 365 435 c 0
 339 396 326 347 324 282 c 0
 324 277 324 272 324 268 c 0
 324 205 337 152 363 111 c 0
 393 62 440 27 493 17 c 0
 501 16 512 16 524 16 c 0
 553 16 589 19 612 25 c 0
 646 33 669 47 695 73 c 0
 710 88 721 101 737 125 c 0
 743 133 748 141 749 142 c 1
 750 143 752 143 753 143 c 0
 756 143 759 142 762 140 c 0
 767 136 770 135 770 131 c 0
 770 127 766 121 758 110 c 0
 712 41 671 10 610 -3 c 0
 587 -8 556 -11 527 -11 c 0
 506 -11 486 -10 469 -7 c 0
 407 3 352 30 307 71 c 0
 281 95 260 121 245 154 c 0
 232 180 225 204 220 233 c 0
 219 241 218 255 218 269 c 0
 218 283 219 296 220 305 c 0
 225 333 232 358 245 385 c 0
 264 425 292 457 329 485 c 0
 344 497 355 504 375 514 c 2
 392 522 l 1
 276 522 l 1
 161 522 l 1
 161 559 l 1
EndSplineSet
Validated: 1
EndChar

StartChar: Gdotaccent
Encoding: 89 288 83
Width: 946
Flags: HW
HStem: -221 33<418 601> 522 73<149 431 532 791> 696 110<427 514>
VStem: 240 67<286 400> 253 27<-46 28> 415 110<708 795> 690 67<-101 21>
LayerCount: 2
Fore
SplineSet
457 804 m 0xe6
 462 805 467 806 472 806 c 0
 485 806 499 800 509 790 c 0
 520 780 525 766 525 752 c 0
 525 737 520 723 509 713 c 0
 499 703 485 696 472 696 c 0
 469 696 465 696 462 696 c 0
 457 696 l 0
 442 699 428 713 422 727 c 0
 417 736 415 742 415 752 c 0
 415 761 417 766 422 775 c 0
 428 788 442 801 457 804 c 0xe6
149 559 m 1
 149 595 l 1
 471 595 l 1
 791 595 l 1
 791 559 l 1
 791 522 l 1
 661 522 l 1
 532 522 l 1
 517 518 l 2
 486 510 452 497 423 485 c 0
 368 459 330 430 315 398 c 0
 310 386 307 372 307 358 c 0xf6
 307 330 318 300 337 275 c 0
 359 249 389 229 422 220 c 0
 426 219 465 211 508 202 c 0
 551 193 591 184 597 182 c 0
 625 174 654 158 678 141 c 0
 686 135 705 116 712 108 c 0
 729 86 744 59 750 33 c 0
 754 17 756 1 756 -14 c 0
 756 -42 750 -69 737 -96 c 0
 726 -120 714 -136 695 -155 c 0
 659 -189 613 -213 560 -221 c 0
 557 -221 554 -222 550 -222 c 0
 542 -222 531 -221 521 -221 c 0
 505 -221 489 -221 479 -221 c 0
 449 -221 424 -208 399 -199 c 0
 358 -183 333 -176 298 -171 c 0
 267 -166 254 -165 215 -165 c 0
 186 -165 178 -164 177 -163 c 1
 175 -162 169 -146 169 -143 c 0
 169 -139 171 -136 180 -130 c 0
 221 -96 253 -49 253 4 c 0
 253 10 253 16 253 19 c 0
 253 22 253 26 253 28 c 1
 255 31 260 33 265 33 c 0
 267 33 270 33 272 32 c 1
 278 29 279 26 279 17 c 0xee
 279 -10 286 -42 296 -66 c 0
 321 -123 373 -164 443 -179 c 0
 469 -185 498 -188 523 -188 c 0
 535 -188 547 -187 556 -186 c 0
 576 -182 598 -175 614 -166 c 0
 661 -139 690 -95 690 -48 c 0
 690 -45 690 -42 690 -39 c 0
 690 -37 690 -36 690 -34 c 0
 685 10 653 49 608 72 c 0
 590 80 578 84 542 91 c 0
 524 95 487 104 458 109 c 0
 400 122 388 125 364 136 c 0
 316 160 281 195 261 239 c 0
 248 267 240 295 240 323 c 0xf6
 240 337 242 352 246 365 c 0
 259 411 298 451 359 487 c 0
 374 496 403 510 419 517 c 2
 431 522 l 1
 291 522 l 1
 149 522 l 1
 149 559 l 1
EndSplineSet
Validated: 1
EndChar

StartChar: uni1E60
Encoding: 90 7776 84
Width: 888
Flags: HW
HStem: -23 33<378 531> 588 29<365 508>
VStem: 192 108<427 528> 250 27<105 177> 598 105<73 221> 620 27<421 479>
LayerCount: 2
Fore
SplineSet
407 804 m 0xc0
 411 805 417 806 421 806 c 0
 444 800 l 0
 456 794 466 783 472 769 c 0
 474 763 474 761 474 752 c 0
 474 742 474 739 472 733 c 0
 463 709 443 696 421 696 c 0
 412 696 402 698 394 703 c 0
 382 709 369 725 366 738 c 0
 366 739 366 740 366 742 c 0
 366 744 366 748 366 751 c 0
 366 754 366 758 366 760 c 0
 366 762 366 763 366 764 c 0
 370 782 388 800 407 804 c 0xc0
390 616 m 0
 394 616 401 616 409 616 c 0
 427 616 452 615 462 615 c 0
 494 615 517 603 547 588 c 0
 581 571 595 565 626 565 c 0
 642 565 647 565 658 567 c 0
 665 568 675 570 680 572 c 1
 685 573 688 574 691 574 c 0
 693 574 695 573 696 572 c 1
 698 571 704 556 704 553 c 0
 704 550 701 546 697 542 c 0
 687 533 671 512 663 497 c 0
 653 478 647 452 647 430 c 0
 647 425 647 424 644 421 c 0
 641 418 641 418 634 418 c 0
 628 418 626 418 623 421 c 0
 621 423 620 425 620 430 c 1xe4
 616 458 606 488 592 510 c 0
 558 559 506 588 431 588 c 0
 414 588 402 587 390 584 c 0
 350 574 316 540 305 500 c 0
 300 485 300 478 300 462 c 0
 300 443 301 432 306 418 c 0
 319 381 348 352 384 341 c 0
 388 339 426 331 468 322 c 0
 550 306 561 302 578 296 c 0
 612 284 637 267 659 247 c 0
 681 227 694 204 701 176 c 0
 703 167 703 162 703 148 c 0
 703 144 703 141 703 138 c 0
 703 127 702 119 697 106 c 0
 678 44 611 -4 527 -18 c 0
 512 -21 494 -23 476 -23 c 0
 453 -23 430 -20 410 -16 c 0
 384 -11 368 -5 342 7 c 0
 332 12 319 17 314 19 c 0
 298 25 279 29 261 29 c 0
 257 29 254 28 250 28 c 0
 239 28 231 26 212 22 c 0
 210 22 207 21 205 21 c 0
 199 21 196 24 192 34 c 0
 191 38 192 40 192 42 c 0xe8
 192 46 195 49 201 53 c 0
 213 65 228 87 235 102 c 0
 243 120 250 146 250 164 c 0
 250 174 254 177 264 177 c 0
 269 177 271 177 273 174 c 1
 276 172 276 171 276 159 c 0xd0
 276 136 283 117 290 100 c 0
 317 45 378 10 464 10 c 0
 481 10 493 11 505 14 c 0
 534 21 560 43 578 73 c 0
 591 95 598 120 598 147 c 0
 598 165 595 185 589 202 c 0
 575 238 546 268 512 279 c 0
 509 280 469 288 425 298 c 0
 325 318 315 321 284 336 c 0
 252 351 229 370 214 393 c 0
 209 401 199 419 197 427 c 0
 194 438 192 450 192 461 c 0xe8
 192 490 203 517 225 542 c 0
 259 582 322 616 390 616 c 0
EndSplineSet
Validated: 1
EndChar

StartChar: bracketleft
Encoding: 91 91 85
Width: 340
Flags: HW
HStem: -256 41<218 317> 727 41<218 317>
VStem: 177 140<-256 -215 727 768> 177 41<-215 727>
LayerCount: 2
Fore
SplineSet
177 256 m 1xd0
 177 768 l 1
 247 768 l 1
 317 768 l 1
 317 748 l 1
 317 727 l 1xe0
 268 727 l 1
 218 727 l 1
 218 256 l 1
 218 -215 l 1xd0
 268 -215 l 1
 317 -215 l 1
 317 -236 l 1
 317 -256 l 1
 247 -256 l 1
 177 -256 l 1xe0
 177 256 l 1xd0
EndSplineSet
Validated: 1
EndChar

StartChar: backslash
Encoding: 92 92 86
Width: 17
Flags: HW
LayerCount: 2
Fore
SplineSet
444 -255 m 1
 440 -253 436 -250 434 -246 c 0
 434 -246 351 -20 253 250 c 0
 88 705 74 743 74 749 c 0
 74 754 74 755 77 759 c 0
 78 761 83 764 85 766 c 1
 88 767 91 768 94 768 c 0
 101 768 107 764 111 758 c 0
 111 758 194 532 292 262 c 0
 419 -87 472 -232 472 -236 c 0
 472 -246 463 -256 452 -256 c 0
 449 -256 445 -256 444 -255 c 1
EndSplineSet
Validated: 1
EndChar

StartChar: bracketright
Encoding: 93 93 87
Width: 359
Flags: HW
HStem: -256 41<98 197> 727 41<98 197>
VStem: 98 140<-256 -215 727 768> 197 41<-215 727>
LayerCount: 2
Fore
SplineSet
98 748 m 1xe0
 98 768 l 1
 168 768 l 1
 238 768 l 1xe0
 238 256 l 1xd0
 238 -256 l 1
 168 -256 l 1
 98 -256 l 1
 98 -236 l 1
 98 -215 l 1xe0
 148 -215 l 1
 197 -215 l 1
 197 256 l 1
 197 727 l 1xd0
 148 727 l 1
 98 727 l 1
 98 748 l 1xe0
EndSplineSet
Validated: 1
EndChar

StartChar: asciicircum
Encoding: 94 94 88
Width: -38
Flags: HW
HStem: 499 104
VStem: 84 266
LayerCount: 2
Fore
SplineSet
151 563 m 0
 186 585 217 604 218 604 c 0
 221 603 350 522 350 521 c 0
 350 518 341 501 339 499 c 1
 337 499 309 509 278 523 c 1
 244 537 218 549 217 549 c 0
 215 548 189 536 156 523 c 1
 126 509 98 499 96 499 c 0
 94 500 84 520 84 521 c 1
 85 521 114 539 151 563 c 0
EndSplineSet
Validated: 1
EndChar

StartChar: underscore
Encoding: 95 95 89
Width: 852
Flags: HW
HStem: -239 41<156 751>
LayerCount: 2
Fore
SplineSet
152 -200 m 2
 156 -198 l 1
 453 -198 l 1
 751 -198 l 1
 755 -200 l 2
 758 -202 762 -205 764 -207 c 1
 766 -211 767 -212 767 -218 c 0
 767 -224 766 -225 764 -229 c 1
 762 -231 758 -235 755 -237 c 2
 751 -239 l 1
 453 -239 l 1
 156 -239 l 1
 152 -237 l 2
 149 -235 146 -231 145 -229 c 0
 142 -225 142 -224 142 -218 c 0
 142 -212 142 -211 145 -207 c 0
 146 -205 149 -202 152 -200 c 2
EndSplineSet
Validated: 1
EndChar

StartChar: quoteleft
Encoding: 96 8216 90
Width: 346
Flags: HW
LayerCount: 2
Fore
SplineSet
226 602 m 0
 228 603 229 604 231 604 c 0
 233 604 236 603 239 600 c 1
 242 596 243 595 243 592 c 0
 243 588 242 586 231 575 c 0
 224 568 216 559 212 554 c 0
 184 519 167 480 160 437 c 0
 159 426 158 407 158 396 c 0
 158 394 158 391 158 390 c 2
 159 385 l 1
 165 390 l 2
 176 400 191 405 205 405 c 0
 220 405 233 400 243 389 c 0
 253 378 258 364 258 350 c 0
 258 331 249 312 231 303 c 0
 222 298 212 296 203 296 c 0
 188 296 173 302 161 315 c 0
 154 322 147 337 143 350 c 0
 138 365 135 383 135 403 c 0
 135 424 138 446 143 468 c 0
 148 487 152 500 161 519 c 0
 170 536 178 549 189 563 c 0
 197 574 221 599 226 602 c 0
EndSplineSet
Validated: 1
EndChar

StartChar: a
Encoding: 97 97 91
Width: 767
Flags: HW
HStem: -12 61<358 448>
LayerCount: 2
Fore
SplineSet
434 356 m 0
 431 363 427 375 425 381 c 2
 420 392 l 1
 418 389 l 2
 412 380 290 187 290 187 c 1
 296 171 l 2
 324 108 346 76 374 59 c 0
 385 52 399 49 412 49 c 0
 427 49 443 53 456 61 c 0
 473 71 486 85 510 114 c 0
 517 124 527 135 531 139 c 1
 537 147 l 1
 523 171 l 2
 482 248 453 307 434 356 c 0
449 474 m 0
 451 474 455 475 460 475 c 0
 467 474 470 473 474 468 c 0
 476 466 548 267 639 11 c 0
 640 10 640 9 640 8 c 0
 640 5 638 1 635 0 c 0
 633 -1 630 -2 627 -2 c 0
 624 -2 621 -1 618 0 c 0
 616 1 612 5 611 7 c 0
 609 9 603 21 597 32 c 1
 592 44 577 70 567 89 c 2
 549 125 l 1
 545 121 l 2
 543 118 529 102 516 85 c 0
 503 68 487 48 481 41 c 0
 449 5 419 -12 386 -12 c 0
 383 -12 380 -12 377 -12 c 0
 376 -12 374 -12 373 -12 c 0
 326 -6 292 32 258 112 c 0
 254 119 252 126 251 126 c 0
 250 126 237 106 221 81 c 0
 205 56 191 34 190 33 c 0
 187 29 180 26 175 25 c 0
 174 25 173 24 172 24 c 0
 166 24 162 28 162 32 c 0
 162 36 436 466 441 470 c 0
 443 471 447 473 449 474 c 0
EndSplineSet
Validated: 1
EndChar

StartChar: b
Encoding: 98 98 92
Width: 818
Flags: HW
HStem: 503 33<153 204> 584 20G<240 260>
VStem: 232 72<118 329 378 479>
LayerCount: 2
Fore
SplineSet
240 600 m 1
 245 604 l 1
 255 604 l 2
 264 603 266 603 271 601 c 0
 287 593 300 572 303 540 c 0
 304 534 304 502 304 454 c 2
 304 378 l 1
 311 387 l 2
 347 429 394 453 445 453 c 0
 451 453 457 453 463 452 c 0
 513 447 559 424 595 386 c 0
 629 351 650 307 658 256 c 0
 659 248 660 235 660 221 c 0
 660 207 659 193 658 185 c 0
 648 125 619 72 575 37 c 0
 543 10 504 -6 464 -10 c 0
 458 -11 451 -11 445 -11 c 0
 400 -11 353 5 317 35 c 0
 307 43 289 63 281 74 c 0
 257 105 241 142 234 184 c 0
 233 193 233 210 232 333 c 0
 231 485 232 475 225 486 c 0
 218 497 200 503 164 503 c 2
 153 503 l 1
 153 519 l 1
 153 536 l 1
 161 536 l 2
 195 539 223 560 230 589 c 0
 231 593 232 596 233 596 c 1
 240 600 l 1
467 426 m 0
 460 428 452 429 443 429 c 0
 432 429 420 427 410 425 c 0
 371 415 335 383 310 340 c 2
 304 329 l 1
 304 266 l 2
 304 203 305 185 308 162 c 0
 313 122 327 88 346 63 c 0
 366 37 391 21 420 14 c 0
 425 13 433 13 441 13 c 0
 451 13 461 13 467 15 c 0
 495 22 519 38 537 63 c 0
 564 99 574 145 574 221 c 0
 574 296 564 342 537 378 c 0
 527 391 516 402 502 411 c 0
 491 418 480 423 467 426 c 0
EndSplineSet
Validated: 1
EndChar

StartChar: c
Encoding: 99 99 93
Width: 772
Flags: HW
HStem: -9 26<366 502> 431 26<366 496>
LayerCount: 2
Fore
SplineSet
393 457 m 0
 402 458 415 458 429 458 c 0
 450 458 474 457 490 455 c 0
 514 452 539 443 567 432 c 0
 590 423 597 419 598 417 c 0
 600 414 600 410 599 408 c 1
 599 405 561 374 558 373 c 2
 557 372 554 372 553 372 c 1
 551 373 543 380 534 389 c 0
 504 419 486 428 448 431 c 0
 440 432 433 432 426 432 c 0
 395 432 372 425 348 409 c 0
 308 381 283 334 276 275 c 0
 273 256 271 237 271 219 c 0
 271 184 277 152 286 124 c 0
 303 75 340 36 383 22 c 0
 394 18 401 16 414 16 c 0
 418 16 423 16 428 16 c 0
 508 16 547 42 576 115 c 0
 583 131 583 132 586 133 c 0
 587 134 589 134 590 134 c 0
 592 134 595 133 598 131 c 0
 603 127 605 124 605 120 c 0
 605 115 590 80 581 65 c 0
 554 20 518 -2 461 -9 c 0
 453 -10 438 -11 423 -11 c 0
 408 -11 394 -10 387 -9 c 0
 361 -5 339 3 317 13 c 0
 261 41 216 90 198 148 c 0
 190 173 185 198 185 223 c 0
 185 242 188 261 193 280 c 0
 206 330 235 376 276 408 c 0
 309 435 351 452 393 457 c 0
EndSplineSet
Validated: 1
EndChar

StartChar: d
Encoding: 100 100 94
Width: 895
Flags: HW
HStem: -20 25<439 552> 427 20<331 359> 444 24<442 548>
VStem: 255 85<120 327> 650 85<121 328>
LayerCount: 2
Fore
SplineSet
478 468 m 0xb8
 484 468 491 468 496 468 c 0xb8
 514 468 528 467 545 463 c 0
 596 453 645 423 679 382 c 0
 704 353 722 314 730 276 c 0
 735 257 735 248 735 224 c 0
 735 211 735 198 734 193 c 0
 730 165 722 139 710 114 c 0
 697 86 682 65 660 45 c 0
 623 10 577 -12 525 -20 c 0
 523 -20 520 -21 517 -21 c 0
 511 -21 503 -20 495 -20 c 0
 487 -20 479 -21 473 -21 c 0
 470 -21 467 -20 465 -20 c 0
 404 -11 349 20 311 66 c 0
 282 100 261 146 255 193 c 0
 255 195 255 198 255 201 c 0
 255 207 255 215 255 224 c 0
 255 232 255 241 255 248 c 0
 255 251 255 254 255 256 c 0
 261 302 282 348 311 382 c 0
 321 394 339 411 350 420 c 1
 355 423 359 427 359 427 c 1
 358 427 340 421 329 416 c 0
 316 410 304 403 270 384 c 0
 230 360 194 344 185 344 c 0
 183 344 180 344 179 346 c 1
 176 349 169 362 169 366 c 0
 169 367 171 371 174 375 c 0
 186 395 197 420 197 444 c 0
 197 457 198 457 204 461 c 0
 208 463 210 464 212 464 c 0
 214 464 217 463 220 462 c 0
 243 452 269 447 298 447 c 0
 304 447 309 447 315 447 c 0xd8
 337 447 353 451 392 457 c 0
 408 460 424 462 428 463 c 0
 444 466 463 468 478 468 c 0xb8
518 444 m 0
 516 444 514 445 512 445 c 0
 507 445 501 444 495 444 c 0
 490 444 483 445 478 445 c 0
 476 445 474 444 472 444 c 0
 428 437 389 403 366 359 c 0
 349 326 340 281 340 224 c 0
 340 176 346 137 357 106 c 0
 376 53 422 13 472 5 c 0
 478 4 487 4 495 4 c 0
 504 4 512 4 518 5 c 0
 568 13 614 53 633 106 c 0
 644 137 650 176 650 224 c 0
 650 271 644 310 633 341 c 0
 614 394 568 436 518 444 c 0
EndSplineSet
Validated: 1
EndChar

StartChar: e
Encoding: 101 101 95
Width: 785
Flags: HW
HStem: -11 27<353 467> 237 23<275 516 585 641> 434 25<349 446>
VStem: 187 86<118 237 259 332> 516 69<259 363>
LayerCount: 2
Fore
SplineSet
374 458 m 0
 379 459 386 459 393 459 c 0
 408 459 426 456 441 453 c 0
 476 446 506 433 530 409 c 0
 563 375 585 329 585 269 c 1
 585 259 l 1
 613 259 l 1
 641 259 l 1
 641 248 l 1
 641 237 l 1
 458 237 l 1
 274 237 l 1
 274 220 l 2
 274 131 293 74 334 41 c 0
 356 24 378 15 404 15 c 0
 415 15 426 16 438 19 c 0
 494 31 541 71 557 120 c 0
 560 131 563 134 571 134 c 0
 576 134 578 134 581 131 c 0
 583 129 585 127 585 124 c 0
 585 121 583 117 581 110 c 0
 566 67 534 32 490 10 c 0
 461 -3 425 -11 393 -11 c 0
 389 -11 385 -12 381 -12 c 0
 375 -11 l 0
 331 -6 293 13 260 45 c 0
 247 58 238 68 228 84 c 0
 208 116 193 149 187 191 c 0
 187 193 187 197 187 201 c 0
 187 208 187 217 187 226 c 0
 187 235 187 246 187 253 c 0
 187 257 187 260 187 262 c 0
 199 342 247 408 314 440 c 0
 332 449 352 455 374 458 c 0
420 434 m 0
 418 434 415 434 412 434 c 0
 390 434 l 0
 387 434 383 434 381 434 c 0
 342 428 306 393 290 346 c 0
 285 334 282 319 280 306 c 0
 278 295 275 270 275 264 c 2
 275 259 l 1
 395 259 l 1
 516 259 l 1
 516 273 l 1
 516 336 494 385 463 411 c 0
 451 421 436 430 420 434 c 0
EndSplineSet
Validated: 1
EndChar

StartChar: f
Encoding: 102 102 96
Width: 854
Flags: HW
HStem: -199 22G<275 322> 61 57<326 637> 351 33<174 225> 429 23<438 567>
VStem: 256 70<-193 61 119 345>
LayerCount: 2
Fore
SplineSet
261 449 m 1
 265 453 266 453 274 453 c 0
 278 453 285 452 288 451 c 0
 302 447 312 431 317 404 c 0
 318 398 318 386 319 368 c 2
 319 340 l 1
 325 349 l 2
 354 405 414 445 485 452 c 0
 487 452 490 452 494 452 c 0
 501 452 510 452 519 452 c 0
 528 452 538 452 546 452 c 0
 550 452 554 452 557 452 c 0
 633 447 677 424 687 382 c 0
 688 377 689 372 689 368 c 0
 689 365 689 363 688 361 c 0
 686 358 632 313 629 313 c 2
 628 312 625 312 624 313 c 1
 619 315 617 319 616 334 c 0
 614 370 605 391 587 407 c 0
 571 420 547 427 513 429 c 0
 510 429 508 429 505 429 c 0
 452 429 404 410 369 375 c 0
 347 352 335 330 329 302 c 0
 327 292 327 290 326 205 c 2
 326 119 l 1
 481 119 l 1
 637 119 l 1
 637 90 l 1
 637 61 l 1
 481 61 l 1
 326 61 l 1
 326 -66 l 1
 326 -193 l 1
 322 -196 l 1
 318 -199 l 1
 291 -199 l 2
 260 -199 258 -199 256 -193 c 1
 254 -190 254 -161 254 60 c 0
 254 197 254 312 253 316 c 0
 249 343 238 349 193 351 c 2
 174 351 l 1
 174 368 l 1
 174 384 l 1
 178 384 l 2
 184 384 195 386 202 388 c 0
 228 396 246 414 252 437 c 0
 253 441 254 444 255 444 c 1
 261 449 l 1
EndSplineSet
Validated: 1
EndChar

StartChar: g
Encoding: 103 103 97
Width: 873
Flags: HW
HStem: -210 24<378 529> 384 57<177 369 441 706>
VStem: 241 49<192 302> 251 29<-71 15> 621 49<-123 -12>
LayerCount: 2
Fore
SplineSet
177 413 m 1
 177 441 l 1
 441 441 l 1
 706 441 l 1
 706 413 l 1
 706 384 l 1
 580 384 l 1
 454 384 l 1
 441 381 l 2
 415 375 379 361 362 352 c 0
 330 335 305 310 296 286 c 0
 292 276 290 263 290 252 c 0
 290 240 292 227 297 216 c 0
 310 185 343 157 382 144 c 0
 388 142 408 138 427 134 c 0
 504 120 513 118 526 114 c 0
 596 94 648 51 664 0 c 0
 668 -12 670 -21 670 -34 c 2
 670 -43 l 2
 670 -58 670 -64 668 -73 c 0
 660 -110 641 -142 614 -162 c 0
 582 -187 541 -202 492 -207 c 0
 479 -209 456 -210 440 -210 c 0
 433 -210 428 -210 424 -210 c 0
 422 -210 420 -210 418 -210 c 0
 389 -207 374 -200 343 -185 c 0
 311 -170 294 -162 265 -162 c 0
 260 -162 255 -161 251 -161 c 0
 243 -161 234 -162 222 -164 c 0
 218 -165 215 -165 212 -165 c 0
 207 -165 205 -164 203 -161 c 0
 200 -156 197 -144 197 -141 c 1
 198 -140 201 -134 205 -129 c 0
 231 -95 246 -57 251 -15 c 0
 251 -8 251 1 251 5 c 0
 251 9 251 14 251 15 c 0
 253 19 259 22 265 22 c 0
 271 22 276 19 278 15 c 0
 278 14 280 4 280 -6 c 0
 280 -29 283 -42 287 -58 c 0
 303 -129 347 -173 408 -184 c 0
 416 -185 427 -186 439 -186 c 0
 457 -186 479 -184 495 -182 c 0
 553 -174 592 -152 610 -114 c 1
 617 -102 621 -86 621 -71 c 0
 621 -63 619 -54 617 -47 c 0
 609 -13 574 18 526 34 c 0
 509 40 503 41 445 52 c 0
 374 65 366 69 342 79 c 1
 289 105 252 148 241 200 c 0
 241 202 240 204 240 207 c 0
 240 213 241 219 241 225 c 0
 241 232 240 239 240 245 c 0
 240 248 241 250 241 252 c 0
 247 281 262 306 286 329 c 1
 308 352 324 365 368 384 c 1
 362 384 l 2
 352 384 327 384 274 384 c 2
 177 384 l 1
 177 413 l 1
EndSplineSet
Validated: 1
EndChar

StartChar: h
Encoding: 104 104 98
Width: 793
Flags: HW
HStem: 0 22G<258 304 552 615> 503 33<157 208> 584 20G<244 263>
VStem: 239 70<6 351 351 497> 549 71<6 399>
LayerCount: 2
Fore
SplineSet
244 600 m 1
 249 604 l 1
 259 604 l 2
 267 603 270 603 275 601 c 0
 285 596 294 584 298 569 c 0
 304 551 304 552 305 447 c 2
 305 351 l 1
 310 360 l 2
 319 376 327 386 341 401 c 0
 352 411 359 418 367 423 c 0
 387 436 408 446 432 450 c 0
 442 452 455 452 469 452 c 0
 486 452 503 450 518 447 c 0
 549 441 575 428 591 409 c 0
 598 400 609 378 612 366 c 0
 619 342 620 353 620 171 c 2
 620 6 l 1
 615 3 l 1
 612 0 l 1
 584 0 l 1
 555 0 l 1
 552 3 l 1
 549 6 l 1
 548 174 l 2
 547 327 547 343 546 353 c 0
 538 397 518 420 482 427 c 0
 477 428 468 429 459 429 c 0
 450 429 439 428 433 427 c 0
 414 423 392 413 376 402 c 0
 371 398 361 391 354 385 c 0
 335 366 321 342 314 316 c 0
 308 296 309 305 308 150 c 2
 308 6 l 1
 304 3 l 1
 301 0 l 1
 273 0 l 2
 242 0 241 0 239 6 c 1
 237 9 237 35 237 236 c 0
 237 360 237 464 236 468 c 0
 232 495 220 501 175 503 c 2
 157 503 l 1
 157 519 l 1
 157 536 l 1
 165 536 l 2
 199 539 228 560 235 589 c 0
 236 593 237 596 238 596 c 1
 244 600 l 1
EndSplineSet
Validated: 1
EndChar

StartChar: i
Encoding: 105 105 99
Width: 497
Flags: HW
HStem: 0 22G<277 316> 351 33<173 224> 432 20G<259 281>
VStem: 252 69<6 160 160 327>
LayerCount: 2
Fore
SplineSet
259 449 m 1
 264 453 l 1
 274 453 l 2
 286 452 293 449 300 442 c 0
 309 433 314 420 318 400 c 0
 319 390 321 379 321 198 c 2
 321 6 l 1
 316 3 l 1
 313 0 l 1
 287 0 l 2
 267 0 260 0 258 2 c 1
 252 5 252 -6 252 160 c 0
 252 242 252 312 251 316 c 0
 247 343 236 349 193 351 c 2
 173 351 l 1
 173 368 l 1
 173 384 l 1
 180 384 l 2
 215 387 243 408 250 437 c 0
 251 441 252 444 253 444 c 1
 259 449 l 1
EndSplineSet
Validated: 1
EndChar

StartChar: uni1E0B
Encoding: 106 7691 100
Width: 895
Flags: HW
HStem: -20 25<439 551> 427 20<331 359> 444 24<442 548> 575 110<451 538>
VStem: 255 85<120 327> 440 110<587 674> 650 85<121 328>
CounterMasks: 1 0e
LayerCount: 2
Fore
SplineSet
482 683 m 0x9e
 487 684 491 685 496 685 c 0
 509 685 523 679 533 669 c 0
 544 659 550 645 550 631 c 0
 550 621 548 613 543 604 c 0
 537 590 523 578 508 575 c 0
 506 575 505 575 503 575 c 0
 493 575 l 0
 480 575 466 582 456 592 c 0
 445 602 440 616 440 631 c 0
 440 640 441 645 446 654 c 0
 452 667 467 680 482 683 c 0x9e
478 468 m 0xbe
 484 468 490 468 495 468 c 0xbe
 513 468 527 467 544 463 c 0
 595 453 645 423 679 382 c 0
 704 353 722 314 730 276 c 0
 735 257 735 248 735 224 c 0
 735 211 735 198 734 193 c 0
 730 165 721 139 709 114 c 0
 696 86 682 65 660 45 c 0
 623 10 577 -12 525 -20 c 0
 523 -20 520 -21 517 -21 c 0
 511 -21 502 -20 494 -20 c 0
 486 -20 479 -21 473 -21 c 0
 470 -21 467 -20 465 -20 c 0
 404 -11 349 20 311 66 c 0
 282 100 261 146 255 193 c 0
 255 195 254 198 254 201 c 0
 254 207 255 215 255 224 c 0
 255 232 254 241 254 248 c 0
 254 251 255 254 255 256 c 0
 261 302 282 348 311 382 c 0
 321 394 339 411 350 420 c 1
 355 423 359 427 359 427 c 1
 358 427 339 421 328 416 c 0
 315 410 304 403 270 384 c 0
 230 360 194 344 185 344 c 0
 183 344 180 344 179 346 c 1
 176 349 169 362 169 366 c 0
 169 367 171 371 174 375 c 0
 186 395 196 420 196 444 c 0
 196 457 197 457 203 461 c 0
 207 463 210 464 212 464 c 0
 214 464 217 463 220 462 c 0
 243 452 269 447 298 447 c 0
 304 447 309 447 315 447 c 0xde
 337 447 353 451 392 457 c 0
 408 460 424 462 428 463 c 0
 444 466 463 468 478 468 c 0xbe
518 444 m 0
 516 444 514 445 512 445 c 0
 507 445 500 444 494 444 c 0
 489 444 483 445 478 445 c 0
 476 445 474 444 472 444 c 0
 428 437 388 403 365 359 c 0
 348 326 340 281 340 224 c 0
 340 176 346 137 357 106 c 0
 376 53 422 13 472 5 c 0
 478 4 486 4 494 4 c 0
 503 4 512 4 518 5 c 0
 568 13 614 53 633 106 c 0
 644 137 650 176 650 224 c 0
 650 271 644 310 633 341 c 0
 614 394 568 436 518 444 c 0
EndSplineSet
Validated: 1
EndChar

StartChar: cdotaccent
Encoding: 107 267 101
Width: 773
Flags: HW
HStem: -9 26<366 503> 431 26<366 496> 575 109<410 465>
LayerCount: 2
Fore
SplineSet
410 684 m 0
 414 685 417 685 421 685 c 0
 442 685 460 673 470 654 c 0
 474 646 477 638 477 630 c 0
 477 622 474 614 470 606 c 0
 461 588 441 575 422 575 c 0
 398 575 377 590 369 613 c 1
 368 618 367 623 367 631 c 0
 367 647 372 659 384 670 c 0
 390 676 402 682 410 684 c 0
394 457 m 0
 403 458 415 458 429 458 c 0
 450 458 474 457 490 455 c 0
 514 452 540 443 568 432 c 0
 591 423 597 419 598 417 c 0
 600 414 600 410 599 408 c 1
 599 405 562 374 559 373 c 2
 558 372 554 372 553 372 c 1
 551 373 543 380 534 389 c 0
 504 419 486 428 448 431 c 0
 440 432 433 432 426 432 c 0
 395 432 373 425 349 409 c 0
 309 381 283 334 276 275 c 0
 273 256 272 237 272 219 c 0
 272 184 277 152 286 124 c 0
 303 75 340 36 383 22 c 0
 394 18 402 16 415 16 c 0
 419 16 423 16 428 16 c 0
 508 16 547 42 576 115 c 0
 583 131 583 132 586 133 c 0
 587 134 589 134 590 134 c 0
 592 134 595 133 598 131 c 0
 603 127 606 124 606 120 c 0
 606 115 590 80 581 65 c 0
 554 20 518 -2 461 -9 c 0
 453 -10 438 -11 423 -11 c 0
 408 -11 395 -10 388 -9 c 0
 362 -5 339 3 317 13 c 0
 261 41 216 90 198 148 c 0
 190 173 186 198 186 223 c 0
 186 242 188 261 193 280 c 0
 206 330 235 376 276 408 c 0
 309 435 352 452 394 457 c 0
EndSplineSet
Validated: 1
EndChar

StartChar: l
Encoding: 108 108 102
Width: 640
Flags: HW
HStem: 503 33<156 207> 584 20G<242 263>
VStem: 236 68<92 473> 471 27<66 117 117 127>
LayerCount: 2
Fore
SplineSet
242 600 m 1
 247 604 l 1
 257 604 l 2
 269 603 276 601 283 594 c 0
 291 586 297 572 301 553 c 0
 302 545 302 526 303 322 c 0
 304 83 303 97 308 77 c 0
 315 50 332 30 355 22 c 0
 365 18 376 16 386 16 c 0
 405 16 422 22 436 35 c 0
 456 55 469 83 471 117 c 0
 471 127 472 128 474 130 c 0
 477 133 478 133 484 133 c 0
 491 133 492 133 495 130 c 2
 498 127 l 1
 498 116 l 2
 496 75 477 36 449 13 c 0
 439 4 419 -5 407 -8 c 0
 399 -10 388 -11 377 -11 c 0
 357 -11 334 -8 317 -1 c 0
 307 2 291 10 284 16 c 0
 259 33 246 57 238 92 c 2
 236 102 l 1
 235 287 l 2
 234 490 234 475 227 486 c 0
 221 497 202 503 167 503 c 2
 156 503 l 1
 156 519 l 1
 156 536 l 1
 163 536 l 2
 174 537 183 540 194 544 c 0
 214 554 227 570 232 589 c 0
 233 593 235 596 236 596 c 1
 242 600 l 1
EndSplineSet
Validated: 1
EndChar

StartChar: m
Encoding: 109 109 103
Width: 1065
Flags: HW
HStem: 0 22G<279 321 562 604 846 888> 351 33<173 225> 429 23<412 502 696 785>
VStem: 253 72<6 344> 537 72<6 306 356 394> 820 72<6 178 178 403>
CounterMasks: 1 1c
LayerCount: 2
Fore
SplineSet
260 449 m 2
 264 453 265 453 273 453 c 0
 287 453 297 448 305 436 c 0
 313 424 317 405 318 371 c 1
 318 347 l 1
 325 359 l 1
 334 377 344 393 358 407 c 0
 381 430 405 443 437 450 c 0
 445 452 451 452 470 452 c 0
 487 452 496 452 504 451 c 0
 557 442 590 414 602 367 c 0
 603 362 604 356 605 355 c 1
 605 355 607 360 610 365 c 0
 619 381 628 393 642 407 c 0
 665 430 689 443 721 450 c 0
 729 452 735 452 754 452 c 0
 779 452 789 450 807 445 c 0
 820 442 841 432 851 424 c 0
 874 405 888 375 891 335 c 0
 892 327 892 270 892 165 c 2
 892 6 l 1
 888 3 l 1
 885 0 l 1
 857 0 l 2
 834 0 828 0 826 2 c 0
 820 5 821 -7 820 178 c 0
 819 331 819 348 818 357 c 0
 810 404 789 426 751 429 c 0
 749 429 748 429 746 429 c 0
 726 429 703 423 685 413 c 0
 651 394 624 357 614 316 c 1
 608 296 609 305 608 150 c 1
 608 6 l 1
 604 3 l 1
 601 0 l 1
 573 0 l 2
 550 0 545 0 543 2 c 0
 537 5 538 -7 537 178 c 0
 536 331 536 348 535 357 c 0
 527 404 505 426 467 429 c 0
 465 429 464 429 462 429 c 0
 442 429 419 423 401 413 c 0
 367 394 341 357 331 316 c 1
 325 296 326 305 325 150 c 1
 325 6 l 1
 321 3 l 1
 317 0 l 1
 290 0 l 2
 267 0 261 0 259 2 c 0
 253 5 253 -6 253 160 c 0
 253 242 253 312 252 316 c 0
 248 343 237 349 192 351 c 1
 173 351 l 1
 173 368 l 1
 173 384 l 1
 181 384 l 1
 215 387 244 408 251 437 c 0
 252 441 253 444 254 444 c 2
 260 449 l 2
EndSplineSet
Validated: 1
EndChar

StartChar: n
Encoding: 110 110 104
Width: 809
Flags: W
HStem: 0 21G<278.5 321 568 632> 351 33<173 224.955> 429 23<421.791 524.202>
VStem: 253 72<6 345.812> 565 71<6 398.833>
LayerCount: 2
Fore
SplineSet
260 449 m 1
 264 453 265 453 273 453 c 0
 287 453 297 448 305 436 c 0
 313 423 317 405 318 370 c 2
 318 345 l 1
 325 356 l 2
 334 374 342 385 357 401 c 0
 368 411 375 418 383 423 c 0
 403 436 425 446 449 450 c 0
 459 452 471 452 485 452 c 0
 502 452 520 450 535 447 c 0
 566 441 591 428 607 409 c 0
 614 400 626 378 629 366 c 0
 636 342 636 353 636 171 c 2
 636 6 l 1
 632 3 l 1
 629 0 l 1
 600 0 l 1
 571 0 l 1
 568 3 l 1
 565 6 l 1
 564 174 l 2
 563 327 563 343 562 353 c 0
 554 397 535 420 499 427 c 0
 494 428 484 429 475 429 c 0
 466 429 456 428 450 427 c 0
 431 423 408 413 392 402 c 0
 387 398 378 391 371 385 c 0
 352 366 338 342 331 316 c 0
 325 296 326 305 325 150 c 2
 325 6 l 1
 321 3 l 1
 317 0 l 1
 290 0 l 2
 267 0 261 0 259 2 c 1
 253 5 253 -6 253 160 c 0
 253 242 253 312 252 316 c 0
 248 343 237 349 192 351 c 2
 173 351 l 1
 173 368 l 1
 173 384 l 1
 181 384 l 2
 215 387 244 408 251 437 c 0
 252 441 253 444 254 444 c 1
 260 449 l 1
EndSplineSet
Validated: 1
EndChar

StartChar: o
Encoding: 111 111 105
Width: 798
Flags: HW
VStem: 186 87<121 320>
LayerCount: 2
Fore
SplineSet
388 457 m 0
 396 458 405 458 414 458 c 0
 470 458 526 435 568 393 c 0
 574 387 584 378 587 373 c 0
 622 329 640 274 640 220 c 0
 640 204 638 188 635 172 c 0
 619 86 553 18 467 -4 c 0
 448 -9 437 -10 414 -10 c 0
 390 -10 378 -9 359 -4 c 0
 257 22 186 113 186 219 c 0
 186 265 200 315 226 353 c 0
 264 411 321 449 388 457 c 0
432 434 m 0
 426 435 421 435 415 435 c 0
 390 435 364 428 342 414 c 0
 302 389 281 348 275 288 c 0
 274 278 273 252 273 228 c 0
 273 211 273 194 273 185 c 0
 277 120 292 81 324 51 c 0
 349 27 381 15 413 15 c 0
 445 15 478 27 503 51 c 0
 535 81 549 120 553 185 c 0
 553 194 554 211 554 228 c 0
 554 252 553 278 552 288 c 0
 549 317 542 342 532 361 c 0
 513 401 476 427 432 434 c 0
EndSplineSet
Validated: 1
EndChar

StartChar: p
Encoding: 112 112 106
Width: 868
Flags: HW
HStem: -199 22G<275 322> -10 24<480 561> 351 33<174 226> 426 26<418 523>
VStem: 256 70<-193 262> 407 27<77 117 117 125> 623 86<110 319>
LayerCount: 2
Fore
SplineSet
261 449 m 1
 266 453 l 1
 276 453 l 1
 288 453 295 449 302 442 c 0
 315 429 323 409 323 372 c 1
 323 351 l 1
 329 361 l 2
 351 396 374 421 407 436 c 0
 420 442 432 447 447 450 c 0
 455 452 469 453 482 453 c 0
 490 453 498 453 504 453 c 0
 507 453 510 453 512 453 c 0
 551 446 587 429 617 406 c 0
 627 399 648 378 656 368 c 0
 666 356 677 339 685 324 c 0
 700 291 709 263 709 228 c 0
 709 219 l 0
 709 162 691 106 660 62 c 0
 651 49 626 24 614 16 c 0
 596 4 574 -6 555 -10 c 0
 553 -10 551 -11 548 -11 c 0
 542 -11 535 -10 529 -10 c 0
 522 -10 516 -11 510 -11 c 0
 507 -11 505 -10 503 -10 c 0
 491 -7 479 -3 469 3 c 0
 449 12 429 17 407 17 c 0
 397 17 385 16 375 14 c 0
 371 13 367 13 365 13 c 0
 359 13 357 16 354 24 c 0
 352 29 352 32 352 35 c 0
 352 39 353 41 357 43 c 0
 364 47 374 54 380 60 c 0
 396 75 407 94 407 117 c 0
 407 124 408 126 410 128 c 0
 412 131 414 131 419 131 c 0
 426 131 430 129 432 125 c 1
 432 124 433 118 433 112 c 0
 433 61 462 25 504 15 c 0
 511 14 519 13 526 13 c 0
 533 13 542 14 546 15 c 0
 579 27 609 89 618 162 c 0
 621 180 623 199 623 217 c 0
 623 241 620 264 615 282 c 0
 600 351 558 405 506 421 c 0
 495 424 483 426 472 426 c 0
 445 426 419 416 397 401 c 0
 355 370 324 320 324 259 c 0
 324 251 323 248 323 246 c 0
 323 245 324 245 324 244 c 0
 326 240 326 220 326 24 c 2
 326 -193 l 1
 322 -196 l 1
 318 -199 l 1
 291 -199 l 2
 260 -199 258 -199 256 -193 c 1
 255 -192 255 -188 255 -175 c 0
 255 -149 256 -87 256 60 c 0
 256 197 254 312 253 316 c 0
 249 343 237 351 192 351 c 1
 174 351 l 1
 174 368 l 1
 174 384 l 1
 182 384 l 1
 216 384 245 408 252 437 c 0
 253 441 255 444 256 444 c 1
 261 449 l 1
EndSplineSet
Validated: 1
EndChar

StartChar: uni1E1F
Encoding: 113 7711 107
Width: 854
Flags: HW
HStem: -199 22G<275 321> 61 57<325 637> 351 33<174 225> 429 23<438 567>
VStem: 256 70<-193 61 119 345> 452 108<592 654>
LayerCount: 2
Fore
SplineSet
494 683 m 0
 499 684 503 685 508 685 c 0
 522 685 534 680 545 669 c 0
 556 658 562 644 562 631 c 0
 562 626 561 621 560 617 c 0
 556 598 538 582 520 578 c 0
 515 577 511 576 506 576 c 0
 492 576 480 581 469 592 c 0
 458 602 452 616 452 631 c 0
 452 640 453 645 458 654 c 0
 464 667 479 680 494 683 c 0
261 449 m 1
 265 453 266 453 274 453 c 0
 278 453 284 452 287 451 c 0
 301 447 312 431 317 404 c 0
 318 398 318 386 319 368 c 2
 319 340 l 1
 324 349 l 2
 353 405 414 445 485 452 c 0
 487 452 490 452 494 452 c 0
 500 452 509 452 518 452 c 0
 527 452 537 452 546 452 c 0
 550 452 554 452 557 452 c 0
 633 447 677 424 687 382 c 0
 688 377 689 372 689 368 c 0
 689 365 689 363 688 361 c 0
 686 358 631 313 628 313 c 2
 627 312 624 312 623 313 c 1
 618 315 617 319 616 334 c 0
 614 370 604 391 586 407 c 0
 570 420 547 427 513 429 c 0
 510 429 508 429 505 429 c 0
 452 429 403 410 368 375 c 0
 346 352 334 330 328 302 c 0
 326 292 326 290 325 205 c 2
 325 119 l 1
 481 119 l 1
 637 119 l 1
 637 90 l 1
 637 61 l 1
 481 61 l 1
 325 61 l 1
 325 -66 l 1
 325 -193 l 1
 321 -196 l 1
 318 -199 l 1
 291 -199 l 2
 260 -199 258 -199 256 -193 c 1
 254 -190 254 -161 254 60 c 0
 254 197 254 312 253 316 c 0
 249 343 237 349 192 351 c 2
 174 351 l 1
 174 368 l 1
 174 384 l 1
 178 384 l 2
 184 384 194 386 201 388 c 0
 227 396 246 414 252 437 c 0
 253 441 254 444 255 444 c 1
 261 449 l 1
EndSplineSet
Validated: 1
EndChar

StartChar: r
Encoding: 114 114 108
Width: 748
Flags: HW
HStem: -199 22G<275 322> 351 33<174 226> 432 20G<270 276 545 546>
VStem: 256 70<-193 244 264 344> 487 63<157 381>
LayerCount: 2
Fore
SplineSet
261 449 m 1
 265 453 266 453 274 453 c 0
 277 453 281 453 284 453 c 0
 286 453 287 453 288 453 c 0
 302 449 312 431 317 404 c 0
 318 397 319 385 319 330 c 1
 319 264 l 1
 428 356 l 2
 487 406 538 452 539 453 c 1
 541 454 544 453 546 453 c 0
 547 453 548 454 550 453 c 0
 554 451 554 447 554 440 c 0
 554 437 554 434 554 429 c 0
 554 422 552 399 552 381 c 0
 552 369 551 356 551 343 c 0
 551 238 566 126 595 22 c 0
 598 9 599 3 599 0 c 0
 599 -3 599 -5 597 -7 c 0
 595 -8 593 -9 591 -9 c 0
 588 -9 585 -8 584 -7 c 0
 579 -3 557 34 545 60 c 0
 512 129 487 199 487 276 c 0
 487 285 487 299 487 313 c 0
 487 333 487 357 487 368 c 0
 487 375 491 381 491 381 c 1
 409 312 l 1
 326 244 l 1
 326 26 l 1
 326 -193 l 1
 322 -196 l 1
 318 -199 l 1
 291 -199 l 2
 260 -199 258 -199 256 -193 c 1
 255 -192 255 -188 255 -175 c 0
 255 -149 256 -87 256 60 c 0
 256 197 254 312 253 316 c 0
 249 343 237 351 192 351 c 1
 174 351 l 1
 174 368 l 1
 174 384 l 1
 182 384 l 1
 216 384 245 408 252 437 c 0
 253 441 255 444 256 444 c 1
 261 449 l 1
EndSplineSet
Validated: 1
EndChar

StartChar: s
Encoding: 115 115 109
Width: 844
Flags: HW
HStem: -199 22G<275 322> 351 33<174 225> 429 23<438 567>
VStem: 256 70<-193 302>
LayerCount: 2
Fore
SplineSet
261 449 m 1
 265 453 266 453 274 453 c 0
 278 453 285 452 288 451 c 0
 302 447 312 431 317 404 c 0
 318 398 318 386 319 368 c 2
 319 340 l 1
 325 349 l 2
 354 405 414 445 485 452 c 0
 487 452 490 452 494 452 c 0
 501 452 510 452 519 452 c 0
 528 452 538 452 546 452 c 0
 550 452 554 452 557 452 c 0
 633 447 677 424 687 382 c 0
 688 377 689 372 689 368 c 0
 689 365 689 363 688 361 c 0
 686 358 632 313 629 313 c 2
 628 312 625 312 624 313 c 1
 619 315 617 319 616 334 c 0
 614 370 605 391 587 407 c 0
 571 420 547 427 513 429 c 0
 510 429 508 429 505 429 c 0
 452 429 404 410 369 375 c 0
 347 352 335 330 329 302 c 2
 327 292 l 1
 326 49 l 1
 326 -193 l 1
 322 -196 l 1
 318 -199 l 1
 291 -199 l 2
 260 -199 258 -199 256 -193 c 1
 254 -190 254 -161 254 60 c 0
 254 197 254 312 253 316 c 0
 249 343 238 349 193 351 c 2
 174 351 l 1
 174 368 l 1
 174 384 l 1
 178 384 l 2
 184 384 195 386 202 388 c 0
 228 396 246 414 252 437 c 0
 253 441 254 444 255 444 c 1
 261 449 l 1
EndSplineSet
Validated: 1
EndChar

StartChar: t
Encoding: 116 116 110
Width: 838
Flags: HW
HStem: -10 28<397 530> 384 57<172 346 384 672>
LayerCount: 2
Fore
SplineSet
172 413 m 1
 172 441 l 1
 422 441 l 1
 672 441 l 1
 672 413 l 1
 672 384 l 1
 552 384 l 2
 432 383 431 383 424 381 c 0
 393 373 367 353 350 322 c 0
 334 293 326 251 326 200 c 0
 326 197 326 193 326 190 c 0
 327 156 331 134 338 111 c 0
 354 60 390 24 432 17 c 0
 439 16 447 16 455 16 c 0
 481 16 512 22 530 31 c 0
 561 46 581 71 599 119 c 0
 603 131 605 134 610 134 c 0
 617 134 626 126 626 120 c 0
 626 116 618 96 609 78 c 0
 583 26 548 0 490 -9 c 0
 481 -10 464 -11 450 -11 c 0
 441 -11 433 -11 428 -10 c 0
 365 -3 309 30 275 82 c 0
 257 109 245 144 241 178 c 0
 240 185 239 193 239 200 c 0
 239 258 264 315 306 354 c 0
 315 362 331 375 340 380 c 2
 346 384 l 1
 259 384 l 1
 172 384 l 1
 172 413 l 1
EndSplineSet
Validated: 1
EndChar

StartChar: u
Encoding: 117 117 111
Width: 811
Flags: HW
HStem: 351 33<172 224 483 535> 432 20G<259 279 570 590>
VStem: 252 72<44 211 211 326> 562 73<-5 114 114 328>
LayerCount: 2
Fore
SplineSet
259 449 m 1
 264 453 l 1
 274 453 l 2
 283 452 286 452 291 450 c 0
 307 442 320 420 323 388 c 0
 324 381 324 334 324 239 c 0
 324 96 324 84 328 68 c 0
 335 38 355 20 393 14 c 0
 401 13 412 13 424 13 c 0
 436 13 447 13 453 14 c 0
 471 19 486 28 501 41 c 0
 536 76 557 135 562 215 c 0
 563 225 563 248 563 270 c 0
 563 292 563 311 562 316 c 0
 558 343 547 349 502 351 c 2
 483 351 l 1
 483 368 l 1
 483 384 l 1
 492 384 l 2
 526 387 554 408 561 437 c 0
 562 441 563 445 564 445 c 1
 564 445 567 447 570 449 c 2
 575 453 l 1
 586 453 l 2
 595 452 598 452 602 450 c 0
 619 442 631 419 634 387 c 0
 635 379 635 322 635 185 c 2
 635 -5 l 1
 631 -8 l 1
 628 -11 l 1
 600 -11 l 1
 573 -11 l 1
 570 -8 l 1
 567 -5 l 1
 566 55 l 2
 566 88 565 114 565 114 c 1
 565 110 553 83 550 75 c 0
 527 29 495 0 453 -9 c 0
 446 -10 439 -10 419 -10 c 0
 392 -10 376 -9 360 -6 c 0
 327 1 305 12 287 30 c 0
 272 44 264 57 258 80 c 0
 252 99 252 105 252 211 c 0
 252 265 252 312 251 316 c 0
 247 343 235 349 190 351 c 2
 172 351 l 1
 172 368 l 1
 172 384 l 1
 180 384 l 2
 214 387 243 408 250 437 c 0
 251 441 252 444 253 444 c 1
 259 449 l 1
EndSplineSet
Validated: 1
EndChar

StartChar: uni1E03
Encoding: 118 7683 112
Width: 815
Flags: HW
HStem: 583 33<149 200> 583 101<426 477>
VStem: 228 72<118 329 378 558> 384 110<592 668>
LayerCount: 2
Fore
SplineSet
426 683 m 0x30
 431 684 435 685 440 685 c 0
 454 685 466 680 477 669 c 0
 488 659 494 645 494 631 c 0
 494 616 488 602 477 592 c 0
 466 581 454 576 440 576 c 0
 435 576 431 577 426 578 c 0
 411 581 396 592 390 606 c 0
 385 615 384 621 384 631 c 0
 384 640 385 645 390 654 c 0
 396 667 411 680 426 683 c 0x30
236 680 m 1
 241 684 l 1
 251 684 l 2x70
 260 683 262 683 267 681 c 0
 283 673 296 652 299 620 c 0
 300 613 300 572 300 494 c 2
 300 378 l 1
 307 387 l 2
 343 429 390 453 441 453 c 0
 447 453 453 453 459 452 c 0
 509 447 555 424 591 386 c 0
 625 351 646 307 654 256 c 0
 655 248 656 235 656 221 c 0
 656 207 655 193 654 185 c 0
 644 125 616 72 572 37 c 0
 540 10 500 -6 460 -10 c 0
 454 -11 447 -11 441 -11 c 0
 396 -11 349 5 313 35 c 0
 303 43 285 63 277 74 c 0
 253 105 238 142 231 184 c 0
 230 193 229 212 228 373 c 0
 227 569 228 555 221 566 c 0
 214 577 196 583 160 583 c 2
 149 583 l 1
 149 599 l 1
 149 615 l 1
 157 615 l 2xb0
 191 618 219 640 226 669 c 0
 227 673 229 676 230 676 c 1
 236 680 l 1
463 426 m 0
 456 428 448 429 439 429 c 0
 428 429 416 427 406 425 c 0
 367 415 331 383 306 340 c 2
 300 329 l 1
 300 266 l 2
 300 203 301 185 304 162 c 0
 309 122 323 88 342 63 c 0
 362 37 387 21 416 14 c 0
 421 13 429 13 437 13 c 0
 447 13 457 13 463 15 c 0
 491 22 515 38 533 63 c 0
 560 99 571 145 571 221 c 0
 571 296 560 342 533 378 c 0
 523 391 512 402 498 411 c 0
 487 418 476 423 463 426 c 0
EndSplineSet
Validated: 1
EndChar

StartChar: uni1E41
Encoding: 119 7745 113
Width: 1065
Flags: HW
HStem: 0 22G<278 320 562 604 846 888> 351 33<173 224> 429 23<412 501 695 785>
VStem: 253 72<6 344> 518 109<586 674> 536 72<6 306 356 394> 820 72<6 178 178 403>
LayerCount: 2
Fore
SplineSet
559 684 m 0xfa
 562 685 566 685 570 685 c 0
 577 685 586 684 591 682 c 0
 613 674 626 654 626 631 c 0
 626 613 618 596 604 586 c 0
 594 579 585 577 572 577 c 0
 559 577 550 579 540 586 c 0
 526 596 518 612 518 631 c 0
 518 644 521 654 529 665 c 0
 536 673 547 680 559 684 c 0xfa
260 449 m 2
 264 453 265 453 273 453 c 0
 287 453 297 448 305 436 c 0
 313 424 317 405 318 371 c 1
 318 347 l 1
 324 359 l 2
 333 377 344 393 358 407 c 0
 381 430 405 443 437 450 c 0
 445 452 451 452 470 452 c 0
 487 452 496 452 504 451 c 0
 557 442 590 414 602 367 c 0
 603 362 604 356 605 355 c 1
 605 355 607 360 610 365 c 0
 619 381 628 393 642 407 c 0
 665 430 689 443 721 450 c 0
 729 452 734 452 753 452 c 0
 778 452 789 450 807 445 c 0
 820 442 841 432 851 424 c 0
 874 405 888 375 891 335 c 0
 892 327 892 270 892 165 c 2
 892 6 l 1
 888 3 l 1
 884 0 l 1
 857 0 l 2
 834 0 828 0 826 2 c 0
 820 5 821 -7 820 178 c 0
 819 331 819 348 818 357 c 0
 810 404 788 426 750 429 c 0
 748 429 748 429 746 429 c 0
 726 429 703 423 685 413 c 0
 651 394 624 357 614 316 c 1
 608 296 609 305 608 150 c 1
 608 6 l 1
 604 3 l 1
 601 0 l 1
 573 0 l 2
 550 0 544 0 542 2 c 0
 536 5 537 -7 536 178 c 0
 535 331 535 348 534 357 c 0
 526 404 505 426 467 429 c 0
 465 429 464 429 462 429 c 0
 442 429 419 423 401 413 c 0
 367 394 340 357 330 316 c 1
 324 296 325 305 324 150 c 1
 324 6 l 1
 320 3 l 1
 317 0 l 1
 290 0 l 2
 267 0 261 0 259 2 c 0
 253 5 253 -6 253 160 c 0
 253 242 253 312 252 316 c 0
 248 343 236 349 191 351 c 1
 173 351 l 1
 173 368 l 1
 173 384 l 1
 181 384 l 1
 215 387 244 408 251 437 c 0
 252 441 253 444 254 444 c 2
 260 449 l 2
EndSplineSet
Validated: 1
EndChar

StartChar: uni1E6B
Encoding: 120 7787 114
Width: 838
Flags: HW
HStem: -10 28<397 530> 384 57<172 346 385 672>
LayerCount: 2
Fore
SplineSet
434 683 m 0
 439 684 443 685 448 685 c 0
 477 685 502 661 502 631 c 0
 502 600 477 576 447 576 c 0
 443 576 438 577 434 578 c 0
 417 582 402 594 395 612 c 0
 393 618 393 621 393 631 c 0
 393 640 393 642 395 648 c 0
 402 666 417 679 434 683 c 0
172 413 m 1
 172 441 l 1
 422 441 l 1
 672 441 l 1
 672 413 l 1
 672 384 l 1
 552 384 l 2
 432 383 431 383 424 381 c 0
 393 373 367 353 350 322 c 0
 334 293 326 251 326 200 c 0
 326 197 326 193 326 190 c 0
 327 156 331 134 338 111 c 0
 354 60 390 24 432 17 c 0
 439 16 447 16 455 16 c 0
 481 16 513 22 531 31 c 0
 562 46 581 71 599 119 c 0
 603 131 605 134 610 134 c 0
 617 134 626 126 626 120 c 0
 626 116 618 96 609 78 c 0
 583 26 549 0 491 -9 c 0
 482 -10 464 -11 450 -11 c 0
 441 -11 433 -11 428 -10 c 0
 365 -3 310 30 276 82 c 0
 258 109 245 144 241 178 c 0
 240 185 240 193 240 200 c 0
 240 258 264 315 306 354 c 0
 315 362 331 375 340 380 c 2
 346 384 l 1
 259 384 l 1
 172 384 l 1
 172 413 l 1
EndSplineSet
Validated: 1
EndChar

StartChar: gdotaccent
Encoding: 121 289 115
Width: 873
Flags: HW
HStem: -210 24<378 529> 384 57<177 369 441 706>
VStem: 241 49<192 302> 251 29<-71 15> 387 109<586 674> 621 49<-123 -12>
LayerCount: 2
Fore
SplineSet
428 684 m 0xcc
 431 685 435 685 439 685 c 0
 446 685 455 684 460 682 c 0
 482 674 496 654 496 631 c 0
 496 607 482 586 459 579 c 0
 454 578 447 577 441 577 c 0
 435 577 429 578 424 579 c 0
 401 586 387 607 387 631 c 0
 387 648 396 665 410 675 c 0
 416 679 420 681 428 684 c 0xcc
177 413 m 1
 177 441 l 1
 441 441 l 1
 706 441 l 1
 706 413 l 1
 706 384 l 1
 580 384 l 1
 454 384 l 1
 441 381 l 2
 415 375 380 361 363 352 c 0
 331 335 305 310 296 286 c 0
 292 276 290 263 290 252 c 0
 290 240 292 227 297 216 c 0
 310 185 343 157 382 144 c 0
 388 142 408 138 427 134 c 0
 504 120 513 118 526 114 c 0
 596 94 648 51 664 0 c 0
 668 -12 670 -21 670 -34 c 2
 670 -43 l 2
 670 -58 670 -64 668 -73 c 0
 660 -110 641 -142 614 -162 c 0
 582 -187 541 -202 492 -207 c 0
 479 -209 456 -210 440 -210 c 0
 433 -210 428 -210 424 -210 c 0
 422 -210 420 -210 418 -210 c 0
 389 -207 374 -200 343 -185 c 0
 311 -170 294 -162 265 -162 c 0
 260 -162 255 -161 251 -161 c 0
 243 -161 234 -162 222 -164 c 0
 218 -165 215 -165 212 -165 c 0
 207 -165 205 -164 203 -161 c 0
 200 -156 197 -144 197 -141 c 1
 198 -140 201 -134 205 -129 c 0
 231 -95 246 -57 251 -15 c 0
 251 -8 251 1 251 5 c 0
 251 9 251 14 251 15 c 0
 253 19 259 22 265 22 c 0
 271 22 276 19 278 15 c 0
 278 14 280 4 280 -6 c 0
 280 -29 283 -42 287 -58 c 0
 303 -129 347 -173 408 -184 c 0
 416 -185 427 -186 439 -186 c 0
 457 -186 479 -184 495 -182 c 0
 553 -174 592 -152 610 -114 c 1
 617 -102 621 -86 621 -71 c 0
 621 -63 620 -54 618 -47 c 0
 610 -13 574 18 526 34 c 0
 509 40 503 41 445 52 c 0
 374 65 366 69 342 79 c 1
 289 105 252 148 241 200 c 0
 241 202 240 204 240 207 c 0
 240 213 241 219 241 225 c 0
 241 232 240 239 240 245 c 0
 240 248 241 250 241 252 c 0
 247 281 262 306 286 329 c 1
 308 352 324 365 368 384 c 1
 362 384 l 2
 352 384 327 384 274 384 c 2
 177 384 l 1
 177 413 l 1
EndSplineSet
Validated: 1
EndChar

StartChar: uni1E61
Encoding: 122 7777 116
Width: 844
Flags: HW
HStem: -199 22G<275 321> 351 33<174 225> 429 23<438 567>
VStem: 256 70<-193 302> 452 108<592 654>
LayerCount: 2
Fore
SplineSet
494 683 m 0
 499 684 503 685 508 685 c 0
 522 685 534 680 545 669 c 0
 556 658 562 644 562 631 c 0
 562 626 561 621 560 617 c 0
 556 598 538 582 520 578 c 0
 515 577 511 576 506 576 c 0
 492 576 480 581 469 592 c 0
 458 602 452 616 452 631 c 0
 452 640 453 645 458 654 c 0
 464 667 479 680 494 683 c 0
261 449 m 1
 265 453 266 453 274 453 c 0
 278 453 284 452 287 451 c 0
 301 447 312 431 317 404 c 0
 318 398 318 386 319 368 c 2
 319 340 l 1
 324 349 l 2
 353 405 414 445 485 452 c 0
 487 452 490 452 494 452 c 0
 500 452 509 452 518 452 c 0
 527 452 537 452 546 452 c 0
 550 452 554 452 557 452 c 0
 633 447 677 424 687 382 c 0
 688 377 689 372 689 368 c 0
 689 365 689 363 688 361 c 0
 686 358 631 313 628 313 c 2
 627 312 624 312 623 313 c 1
 618 315 617 319 616 334 c 0
 614 370 604 391 586 407 c 0
 570 420 547 427 513 429 c 0
 510 429 508 429 505 429 c 0
 452 429 403 410 368 375 c 0
 346 352 334 330 328 302 c 2
 326 292 l 1
 325 49 l 1
 325 -193 l 1
 321 -196 l 1
 318 -199 l 1
 291 -199 l 2
 260 -199 258 -199 256 -193 c 1
 254 -190 254 -161 254 60 c 0
 254 197 254 312 253 316 c 0
 249 343 237 349 192 351 c 2
 174 351 l 1
 174 368 l 1
 174 384 l 1
 178 384 l 2
 184 384 194 386 201 388 c 0
 227 396 246 414 252 437 c 0
 253 441 254 444 255 444 c 1
 261 449 l 1
EndSplineSet
Validated: 1
EndChar

StartChar: endash
Encoding: 123 8211 117
Width: 666
Flags: HW
LayerCount: 2
Fore
SplineSet
154 273 m 1
 154 285 l 1
 410 285 l 1
 665 285 l 1
 665 273 l 1
 665 261 l 1
 410 261 l 1
 154 261 l 1
 154 273 l 1
EndSplineSet
Validated: 1
EndChar

StartChar: emdash
Encoding: 124 8212 118
Width: 1178
Flags: HW
LayerCount: 2
Fore
SplineSet
154 273 m 1
 154 285 l 1
 666 285 l 1
 1177 285 l 1
 1177 273 l 1
 1177 261 l 1
 666 261 l 1
 154 261 l 1
 154 273 l 1
EndSplineSet
Validated: 1
EndChar

StartChar: asciitilde
Encoding: 126 126 119
Width: 530
Flags: HW
HStem: 559 44<144 292>
LayerCount: 2
Fore
SplineSet
197 603 m 0
 202 604 207 604 212 604 c 0
 229 604 250 600 283 590 c 0
 317 580 332 576 351 576 c 0
 353 576 356 577 359 577 c 0
 369 578 376 578 383 580 c 0
 395 584 410 591 421 598 c 2
 430 604 l 1
 437 595 l 1
 444 586 l 1
 444 585 435 578 426 570 c 0
 394 546 381 541 361 535 c 0
 352 533 343 531 334 531 c 0
 316 531 297 536 266 545 c 0
 229 556 214 559 196 559 c 0
 194 559 191 559 188 559 c 0
 178 558 171 558 164 556 c 0
 152 552 137 545 126 538 c 2
 117 531 l 1
 110 541 l 1
 103 550 l 1
 103 551 112 557 122 565 c 0
 144 581 154 589 165 594 c 0
 174 598 188 602 197 603 c 0
EndSplineSet
Validated: 1
EndChar

StartChar: uni0308
Encoding: 127 776 120
Width: 527
Flags: HW
LayerCount: 2
Fore
SplineSet
158 603 m 0
 162 604 167 605 171 605 c 0
 188 605 206 596 215 581 c 0
 221 572 223 562 223 553 c 0
 223 544 221 535 215 526 c 0
 206 511 189 502 172 502 c 0
 168 502 163 503 159 504 c 0
 135 509 119 530 119 554 c 0
 119 577 135 597 158 603 c 0
357 603 m 0
 361 604 366 605 370 605 c 0
 397 605 422 582 422 553 c 0
 422 525 397 502 371 502 c 0
 367 502 362 503 358 504 c 0
 334 509 318 530 318 554 c 0
 318 577 334 597 357 603 c 0
EndSplineSet
Validated: 1
EndChar

StartChar: quotedblright
Encoding: 257 8221 121
Width: 625
Flags: HW
LayerCount: 2
Fore
SplineSet
188 602 m 0
 193 603 197 604 202 604 c 0
 218 604 233 598 244 585 c 0
 251 578 259 563 263 551 c 0
 268 535 271 517 271 497 c 0
 271 476 268 454 263 432 c 0
 258 413 253 400 244 382 c 0
 230 353 216 335 196 312 c 0
 184 300 179 296 174 296 c 0
 171 296 169 297 166 300 c 1
 163 304 162 305 162 308 c 0
 162 312 163 314 173 324 c 0
 195 346 210 365 223 391 c 0
 234 414 241 437 245 463 c 0
 246 474 247 493 247 504 c 0
 247 506 247 509 247 510 c 2
 246 515 l 1
 240 510 l 2
 229 500 215 495 201 495 c 0
 192 495 182 497 174 502 c 0
 158 510 147 530 147 549 c 0
 147 575 163 597 188 602 c 0
386 602 m 0
 391 603 396 604 401 604 c 0
 417 604 432 598 443 585 c 0
 450 578 457 563 461 551 c 0
 466 535 469 517 469 497 c 0
 469 476 466 454 461 432 c 0
 456 413 452 400 443 382 c 0
 429 353 415 335 395 312 c 0
 383 300 378 296 373 296 c 0
 370 296 368 297 365 300 c 1
 362 304 361 305 361 308 c 0
 361 312 362 314 372 324 c 0
 394 346 408 365 421 391 c 0
 432 414 440 437 444 463 c 0
 445 474 446 493 446 504 c 0
 446 506 446 509 446 510 c 2
 445 515 l 1
 439 510 l 2
 428 500 413 495 399 495 c 0
 384 495 371 500 361 511 c 0
 351 521 345 535 345 549 c 0
 345 563 351 578 361 588 c 0
 367 595 377 600 386 602 c 0
EndSplineSet
Validated: 1
EndChar

StartChar: quotedblleft
Encoding: 256 8220 122
Width: 613
Flags: HW
LayerCount: 2
Fore
SplineSet
416 298 m 0
 411 297 407 296 402 296 c 0
 386 296 371 302 360 315 c 0
 353 322 346 337 342 349 c 0
 337 365 333 383 333 403 c 0
 333 424 337 446 342 468 c 0
 347 487 351 500 360 518 c 0
 374 547 388 564 408 587 c 0
 420 599 425 604 430 604 c 0
 433 604 435 603 438 600 c 1
 441 596 442 595 442 592 c 0
 442 588 441 586 431 576 c 0
 409 554 394 535 381 509 c 0
 370 486 363 463 359 437 c 0
 358 426 357 406 357 395 c 0
 357 393 357 391 357 390 c 2
 358 385 l 1
 364 390 l 2
 375 400 389 405 403 405 c 0
 412 405 422 403 430 398 c 0
 446 390 457 370 457 351 c 0
 457 325 441 303 416 298 c 0
218 298 m 0
 213 297 208 296 203 296 c 0
 187 296 172 302 161 315 c 0
 154 322 147 337 143 349 c 0
 138 365 135 383 135 403 c 0
 135 424 138 446 143 468 c 0
 148 487 152 500 161 518 c 0
 175 547 189 564 209 587 c 0
 221 599 226 604 231 604 c 0
 234 604 236 603 239 600 c 1
 242 596 243 595 243 592 c 0
 243 588 242 586 232 576 c 0
 210 554 196 535 183 509 c 0
 172 486 164 463 160 437 c 0
 159 426 158 406 158 395 c 0
 158 393 158 391 158 390 c 2
 159 385 l 1
 165 390 l 2
 176 400 191 405 205 405 c 0
 220 405 233 400 243 389 c 0
 253 379 259 364 259 350 c 0
 259 336 253 322 243 312 c 0
 237 305 227 300 218 298 c 0
EndSplineSet
Validated: 1
EndChar

StartChar: arrowright
Encoding: 258 8594 123
Width: 108
Flags: HW
HStem: 236 41<28 598>
VStem: 475 41<29 91 420 483>
LayerCount: 2
Fore
SplineSet
711 256 m 1
 612 218 536 138 516 29 c 1
 495 29 l 2
 478 29 475 29 475 31 c 0
 475 31 491 140 588 226 c 2
 598 236 l 1
 315 236 l 2
 133 236 67 235 43 235 c 0
 31 235 29 235 28 236 c 1
 19 240 17 252 17 256 c 0
 17 263 21 271 28 274 c 1
 31 276 42 276 315 276 c 2
 598 276 l 1
 588 286 l 2
 492 370 475 478 475 481 c 0
 475 483 478 483 495 483 c 2
 516 483 l 1
 536 373 612 293 711 256 c 1
EndSplineSet
Validated: 1
EndChar

StartChar: arrowleft
Encoding: 259 8592 124
Width: 178
Flags: HW
HStem: 236 41<200 770>
VStem: 282 41<29 91 420 483>
LayerCount: 2
Fore
SplineSet
282 29 m 1
 262 138 186 218 87 256 c 1
 186 293 262 373 282 483 c 1
 303 483 l 2
 320 483 323 483 323 481 c 0
 323 479 307 371 210 286 c 2
 200 276 l 1
 483 276 l 2
 756 276 767 276 770 274 c 1
 777 271 781 263 781 256 c 0
 781 252 779 240 770 236 c 1
 769 235 767 235 755 235 c 0
 731 235 665 236 483 236 c 2
 200 236 l 1
 210 226 l 2
 306 141 323 33 323 31 c 0
 323 29 320 29 303 29 c 2
 282 29 l 1
EndSplineSet
Validated: 1
EndChar
